<?xml version="1.0" encoding="utf-8"?>
<!-- Generator: Adobe Illustrator 22.1.0, SVG Export Plug-In . SVG Version: 6.00 Build 0)  -->
<svg version="1.1" id="Layer_1" xmlns="http://www.w3.org/2000/svg" xmlns:xlink="http://www.w3.org/1999/xlink" x="0px" y="0px"
	 viewBox="0 0 497.7 477.3" style="enable-background:new 0 0 497.7 477.3;" xml:space="preserve">
<style type="text/css">
	.st0{fill:#F5F5F5;}
	.st1{fill:#E1E1E1;}
	.st2{fill:#ECECEC;}
	.st3{fill:#0E314C;}
	.st4{fill:url(#SVGID_1_);}
	.st5{opacity:0.3;}
	.st6{fill:url(#SVGID_2_);}
	.st7{fill:url(#SVGID_3_);}
	.st8{fill:url(#SVGID_4_);}
	.st9{fill:url(#SVGID_5_);}
	.st10{fill:url(#SVGID_6_);}
	.st11{opacity:0.1;fill:url(#SVGID_7_);}
	.st12{opacity:0.1;fill:url(#SVGID_8_);}
	.st13{fill:url(#SVGID_9_);}
	.st14{fill:url(#SVGID_10_);}
	.st15{fill:url(#SVGID_11_);}
	.st16{opacity:0.4;}
	.st17{fill:url(#SVGID_12_);}
	.st18{fill:url(#SVGID_13_);}
	.st19{fill:url(#SVGID_14_);}
	.st20{fill:#FFBF9D;}
	.st21{fill:#00B1E0;}
	.st22{fill:#FFFFFF;}
	.st23{opacity:0.5;}
	.st24{fill:#FF9A6C;}
	.st25{fill:#235F87;}
</style>
<g>
	<g>
		<g>
			<g>
				<g>
					<g>
						<path class="st0" d="M280.9,475c-19.4-9.2-27.2-31.1-29.9-51.4c-0.5-3.4-1.4-6.9-0.3-10.1c1.1-3.2,4.5-5.9,7.8-5
							c2.7,0.8,4.3,3.5,6.1,5.7c2.4,2.9,5.6,5.1,9.2,6.2c2.3,0.8,5.1,1,7-0.5c2.6-2.1,2.3-6.2,1.7-9.5c-1.1-6.3-2.2-12.5-3.3-18.8
							c-0.6-3.4-1.2-6.8-0.7-10.2c0.5-3.4,2.3-6.7,5.4-8.2c3-1.4,7.3-0.3,8.5,2.9c0.5,1.3,0.5,2.8,0.8,4.2c0.3,1.4,1.2,2.8,2.6,3
							c1.4,0.2,2.6-1,3.4-2.2c2.9-4,4.5-8.8,6-13.5c1.5-4.7,2.8-9.5,5.4-13.8c2.5-4.2,6.4-7.9,11.2-9c4.8-1.1,10.4,1,12.4,5.5
							c2,4.5,0.1,9.8-2.3,14.2c-3.5,6.4-7.9,12.4-13.1,17.5c-0.9,0.9-1.9,1.9-2.1,3.3c-0.4,2.4,2.1,4.2,4.5,4.6
							c2.6,0.4,5.3-0.3,8-0.4c2.7-0.1,5.7,0.5,7.1,2.9c2,3.2-0.3,7.3-2.7,10.1c-4.9,5.7-10.7,10.5-17.2,14.2
							c-2.3,1.3-4.8,2.6-6.5,4.6c-1.7,2.1-2.4,5.3-0.8,7.5c1.6,2.2,4.8,2.4,7.3,1.5c2.5-0.9,4.6-2.7,6.9-4.1
							c4.3-2.5,10.3-3.2,14,0.3c2.4,2.3,3.2,5.9,2.7,9.2c-0.5,3.3-2,6.3-3.7,9.2c-5.9,9.9-14.2,18.5-24.3,24.1
							C302,474.4,292.2,477.1,280.9,475"/>
					</g>
				</g>
			</g>
		</g>
		<g>
			<g>
				<g>
					<g>
						<g>
							<path class="st1" d="M284,461.4c1.3-10.7,3.6-22.4,6.5-34.5c0.7-3,1.5-6,2.2-8.9c0.7-2.9,1.4-5.8,2.3-8.6
								c1.7-5.6,3.8-10.9,5.9-15.8c2.1-4.9,4.3-9.6,6.4-13.9c2.1-4.3,4.1-8.3,6.1-11.8c4-7.1,7.9-12.4,10.7-16
								c1.4-1.8,2.5-3.1,3.3-4c0.4-0.4,0.7-0.8,0.9-1c0.2-0.2,0.3-0.3,0.3-0.3c0,0-0.1,0.1-0.3,0.4c-0.2,0.3-0.5,0.6-0.8,1.1
								c-0.7,0.9-1.9,2.3-3.2,4.1c-2.8,3.6-6.6,8.9-10.5,16c-2,3.5-4,7.5-6.1,11.8c-2.1,4.3-4.2,8.9-6.4,13.9
								c-2.1,4.9-4.2,10.2-5.9,15.8c-0.9,2.8-1.6,5.7-2.3,8.6c-0.7,2.9-1.4,5.9-2.2,8.9c-2.9,12.1-5.2,23.7-6.5,34.4"/>
						</g>
					</g>
				</g>
			</g>
		</g>
		<g>
			<g>
				<g>
					<g>
						<g>
							<path class="st1" d="M295.1,409.3c0,0-0.2-0.5-0.6-1.4c-0.3-0.9-0.8-2.2-1.3-3.9c-1-3.3-2.3-7.8-3.7-12.9
								c-1.4-5-2.7-9.6-3.8-12.8c-0.5-1.6-1-2.9-1.3-3.8c-0.3-0.9-0.5-1.4-0.4-1.4c0,0,0.3,0.5,0.7,1.3c0.4,0.9,0.9,2.2,1.5,3.8
								c1.2,3.2,2.6,7.7,4,12.8c1.4,5,2.6,9.5,3.5,12.9c0.4,1.5,0.8,2.9,1.1,3.9C295,408.8,295.1,409.3,295.1,409.3z"/>
						</g>
					</g>
				</g>
			</g>
		</g>
		<g>
			<g>
				<g>
					<g>
						<g>
							<path class="st1" d="M337,393.9c0,0-0.6,0.2-1.7,0.5c-1.1,0.3-2.7,0.7-4.6,1.3c-3.9,1.1-9.2,2.8-15,4.9
								c-5.8,2.1-10.9,4.3-14.6,6c-1.8,0.8-3.3,1.5-4.3,2c-1,0.5-1.6,0.7-1.6,0.7c0,0,0.5-0.4,1.5-0.9c1-0.6,2.4-1.3,4.3-2.2
								c3.6-1.8,8.8-4,14.6-6.2c5.8-2.1,11.2-3.8,15.1-4.8c2-0.5,3.6-0.9,4.7-1.1C336.3,394,337,393.9,337,393.9z"/>
						</g>
					</g>
				</g>
			</g>
		</g>
		<g>
			<g>
				<g>
					<g>
						<g>
							<path class="st1" d="M284.4,460.5c0,0-0.2-0.2-0.4-0.5c-0.3-0.4-0.6-0.9-1-1.4c-0.9-1.3-2.1-3.1-3.5-5.4
								c-2.9-4.6-6.8-11.1-10.9-18.3c-4.1-7.2-7.9-13.7-10.7-18.4c-1.4-2.3-2.5-4.1-3.4-5.5c-0.4-0.6-0.7-1.1-0.9-1.5
								c-0.2-0.3-0.3-0.5-0.3-0.5c0,0,0.2,0.2,0.4,0.5c0.3,0.4,0.6,0.9,1,1.4c0.9,1.3,2.1,3.1,3.5,5.4c2.9,4.6,6.8,11.1,10.9,18.3
								c4.1,7.2,7.9,13.7,10.7,18.4c1.4,2.3,2.5,4.1,3.4,5.5c0.4,0.6,0.7,1.1,0.9,1.5C284.3,460.3,284.4,460.5,284.4,460.5z"/>
						</g>
					</g>
				</g>
			</g>
		</g>
		<g>
			<g>
				<g>
					<g>
						<g>
							<path class="st1" d="M338.7,432.3c0,0-0.2,0.1-0.5,0.3c-0.4,0.2-0.9,0.5-1.6,0.8c-1.5,0.8-3.4,1.8-5.8,3
								c-4.9,2.6-11.6,6.2-19.1,10.2c-7.4,4-14.2,7.6-19.2,10c-2.5,1.2-4.5,2.2-5.9,2.9c-0.7,0.3-1.2,0.5-1.6,0.7
								c-0.4,0.2-0.6,0.2-0.6,0.2c0,0,0.2-0.1,0.5-0.3c0.4-0.2,0.9-0.5,1.6-0.8c1.5-0.8,3.4-1.8,5.8-3c4.9-2.6,11.6-6.2,19.1-10.2
								c7.4-4,14.2-7.6,19.2-10c2.5-1.2,4.5-2.2,5.9-2.9c0.7-0.3,1.2-0.5,1.6-0.7C338.5,432.4,338.7,432.3,338.7,432.3z"/>
						</g>
					</g>
				</g>
			</g>
		</g>
	</g>
	<g>
		<g>
			<g>
				<path class="st2" d="M140,233c0,0-13.4,1.9-5.9,31.2c7.5,29.3,13.9,44.5,13.9,44.5s1,6.6-4.3,6.4c-5.4-0.2-16.3-4.6-20,1.2
					c-3.8,6-0.5,13.2,7.9,20.8c8.4,7.6,26.2,24.8,27.8,26.4c1.6,1.5,2.8,4.8-0.9,5.2c-3.7,0.4-29.7-2.6-30.5,9.8
					c-0.7,12.5,26.2,29.7,29.1,31.6c2.9,1.9,3.4,3.5,2.7,5.1c-0.6,1.7-9.3-0.2-16.8-0.7c-7.5-0.6-16.2,0.1-16,7.3
					c0.2,7.2,14.3,25.5,55.4,39l19.5,5l14.4-14.2c29-32.2,32.1-55.1,28.7-61.4c-3.4-6.4-11.3-2.6-17.5,1.6
					c-6.2,4.2-12.8,10.1-14.2,9c-1.4-1.1-1.8-2.7-0.2-5.8c1.6-3.1,16.3-31.4,9.5-41.9c-6.8-10.5-27.9,5.2-31.3,6.6
					c-3.4,1.4-4-2-3.4-4.1c0.6-2.2,7.5-26,11-36.7c3.5-10.7,2.9-18.7-3.5-22c-6.1-3.2-13.4,6-17.9,8.9c-4.5,2.8-7-3.4-7-3.4
					s-2-16.3-10-45.5c-8.1-29.2-20.9-24-20.9-24"/>
			</g>
		</g>
		<g>
			<g>
				<g>
					<path class="st1" d="M201.9,470.8c-5.8-21.5-15.5-59.8-24.1-92.6c-8.5-32.8-16.2-62.6-22-84.1c-2.9-10.7-5.2-19.4-6.8-25.4
						c-0.8-3-1.4-5.3-1.8-6.9c-0.2-0.8-0.4-1.4-0.5-1.8c-0.1-0.4-0.1-0.6-0.1-0.6s0.1,0.2,0.2,0.6c0.1,0.4,0.3,1,0.5,1.8
						c0.5,1.6,1.1,3.9,2,6.9c1.7,6,4.1,14.7,7,25.4c5.8,21.5,13.6,51.2,22.1,84c8.5,32.9,18.2,71.2,23.9,92.7"/>
				</g>
			</g>
		</g>
		<g>
			<g>
				<g>
					<path class="st1" d="M138.7,323.1c0,0,0.5,0.2,1.3,0.7c0.8,0.5,2,1.2,3.4,2.1c2.8,1.8,6.6,4.4,10.8,7.4
						c4.1,2.9,7.8,5.6,10.6,7.6c1.3,0.9,2.4,1.7,3.2,2.3c0.8,0.5,1.2,0.8,1.2,0.9c0,0-0.5-0.2-1.3-0.7c-0.8-0.5-2-1.2-3.3-2.1
						c-2.8-1.8-6.6-4.5-10.7-7.4c-4.1-2.9-7.8-5.5-10.7-7.5c-1.3-0.9-2.4-1.7-3.2-2.3C139.1,323.4,138.7,323.1,138.7,323.1z"/>
				</g>
			</g>
		</g>
		<g>
			<g>
				<g>
					<path class="st1" d="M170.8,343c-0.1-0.1,4.9-8.2,11.2-18.1c6.3-9.9,11.6-17.9,11.7-17.8c0.1,0.1-4.9,8.2-11.2,18.1
						C176.2,335.1,170.9,343.1,170.8,343z"/>
				</g>
			</g>
		</g>
		<g>
			<g>
				<g>
					<path class="st1" d="M181.6,394c0,0,0.4-0.4,1.1-1c0.8-0.7,1.8-1.6,3-2.7c2.6-2.2,6.1-5.4,9.9-9c3.8-3.6,7.1-6.9,9.4-9.4
						c1.1-1.2,2.1-2.1,2.8-2.9c0.7-0.7,1.1-1,1.1-1c0,0-0.3,0.4-0.9,1.2c-0.6,0.7-1.5,1.8-2.7,3c-2.3,2.5-5.6,5.9-9.3,9.5
						c-3.8,3.6-7.4,6.7-10,8.8c-1.3,1.1-2.4,1.9-3.2,2.5C182,393.7,181.6,394.1,181.6,394z"/>
				</g>
			</g>
		</g>
		<g>
			<g>
				<g>
					<path class="st1" d="M148.6,382.4c0,0,0.5,0.1,1.3,0.3c1,0.3,2.2,0.7,3.6,1.1c3,1,7.1,2.3,11.7,3.9c4.6,1.5,8.7,3,11.6,4
						c1.4,0.5,2.6,0.9,3.5,1.3c0.8,0.3,1.3,0.5,1.3,0.6c0,0-0.5-0.1-1.3-0.3c-1-0.3-2.2-0.7-3.6-1.1c-3-1-7.1-2.3-11.7-3.9
						c-4.6-1.5-8.7-3-11.6-4c-1.4-0.5-2.6-0.9-3.5-1.3C149,382.6,148.6,382.4,148.6,382.4z"/>
				</g>
			</g>
		</g>
		<g>
			<g>
				<g>
					<path class="st1" d="M152.4,428.6c0,0,0.6,0.1,1.7,0.4c1.2,0.4,2.7,0.8,4.6,1.4c3.9,1.2,9.2,2.9,15,4.8c5.9,1.9,11.1,3.7,15,5
						c1.8,0.6,3.3,1.2,4.5,1.6c1.1,0.4,1.6,0.6,1.6,0.7c0,0-0.6-0.1-1.7-0.4c-1.2-0.4-2.7-0.8-4.6-1.4c-3.9-1.2-9.2-2.9-15-4.8
						c-5.9-1.9-11.1-3.7-15-5c-1.8-0.6-3.3-1.2-4.5-1.6C153,428.9,152.4,428.7,152.4,428.6z"/>
				</g>
			</g>
		</g>
		<g>
			<g>
				<g>
					<path class="st1" d="M193.9,441.9c0,0,0.4-0.5,1.3-1.3c1-0.9,2.2-2.1,3.7-3.5c3.1-3,7.5-7.1,12.1-11.8c4.7-4.7,8.8-9,11.7-12.2
						c1.4-1.5,2.6-2.8,3.5-3.7c0.8-0.9,1.3-1.4,1.3-1.3c0,0-0.4,0.6-1.2,1.5c-0.8,0.9-1.9,2.3-3.4,3.9c-2.9,3.2-6.9,7.6-11.6,12.3
						c-4.7,4.7-9,8.8-12.3,11.6c-1.6,1.4-2.9,2.6-3.9,3.4C194.5,441.6,193.9,442,193.9,441.9z"/>
				</g>
			</g>
		</g>
	</g>
	<g>
		<path class="st0" d="M81.8,58.1l-11-3.4c0,0-2.9,9.2-12.5,6.4c-5-1.5-6.6-5.5-6.8-8.4c-0.3-3.3,1.1-6.5,3.6-8.7
			c2.8-2.5,7.8-4,14.8-0.4l7.7-24.8l-10.9-3.4L62.1,30c0,0-16.5-0.8-21.7,16c-5,16.1,8.2,24.3,14.4,26.2
			C59.5,73.7,76,77.6,81.8,58.1z"/>
		
			<rect x="69.5" y="1.5" transform="matrix(-0.9546 -0.2978 0.2978 -0.9546 145.0044 35.8481)" class="st0" width="11.6" height="10.8"/>
	</g>
	<g>
		<path class="st2" d="M112.2,30.1l4.4-1.2c0,0-1-3.7,2.9-4.8c2-0.6,3.4,0.5,4.1,1.4c0.8,1,1,2.4,0.6,3.7c-0.4,1.4-1.8,3-4.9,3.2
			l2.6,9.9l4.4-1.1l-1.5-5.8c0,0,5.7-3.2,3.9-9.9c-1.7-6.4-7.9-6.4-10.3-5.8C116.4,20.2,110,22.4,112.2,30.1z"/>
		
			<rect x="122.9" y="43.8" transform="matrix(0.9669 -0.2551 0.2551 0.9669 -7.5659 33.4347)" class="st2" width="4.6" height="4.3"/>
	</g>
	<g>
		<path class="st2" d="M476.1,144.2l4.3,1.6c0,0,1.3-3.6,5.1-2.3c2,0.7,2.5,2.3,2.6,3.4c0.1,1.3-0.5,2.5-1.6,3.4
			c-1.2,0.9-3.1,1.4-5.8-0.1l-3.5,9.7l4.2,1.5l2-5.7c0,0,6.5,0.6,8.9-5.9c2.3-6.3-2.8-9.8-5.2-10.6
			C485.1,138.4,478.7,136.6,476.1,144.2z"/>
		
			<rect x="475.5" y="162.4" transform="matrix(0.9402 0.3406 -0.3406 0.9402 84.6172 -152.8853)" class="st2" width="4.6" height="4.3"/>
	</g>
	<g>
		<path class="st0" d="M21.4,193.3l9.1-3.5c0,0-2.9-7.6,4.9-10.8c4.1-1.7,7.2,0.2,8.9,1.9c1.9,2,2.7,4.9,2.2,7.6
			c-0.6,3.1-3,6.7-9.6,8l7.9,20.4l9-3.5l-4.6-12c0,0,11.3-8.1,6-21.9c-5.1-13.3-18.2-11.8-23.3-9.8C28,171.3,15.1,177.3,21.4,193.3z
			"/>
		
			<rect x="47.7" y="219.1" transform="matrix(0.9331 -0.3595 0.3595 0.9331 -76.8935 33.8704)" class="st0" width="9.7" height="9.1"/>
	</g>
	<g>
		<path class="st0" d="M479.6,227.7l-6.4,2.5c0,0,2.1,5.4-3.5,7.7c-2.9,1.2-5.1-0.2-6.3-1.4c-1.4-1.4-1.9-3.4-1.5-5.4
			c0.4-2.2,2.2-4.8,6.8-5.7l-5.6-14.5l-6.4,2.4l3.3,8.5c0,0-8,5.7-4.2,15.6c3.6,9.4,12.9,8.3,16.5,6.9
			C474.9,243.2,484.1,238.9,479.6,227.7z"/>
		
			<rect x="454" y="202.9" transform="matrix(-0.9331 0.3595 -0.3595 -0.9331 958.4999 233.9651)" class="st0" width="6.9" height="6.5"/>
	</g>
	<g>
		<path class="st3" d="M497.7,476.9c0,0.2-111.4,0.3-248.9,0.3C111.4,477.2,0,477.1,0,476.9c0-0.2,111.4-0.3,248.9-0.3
			C386.3,476.6,497.7,476.8,497.7,476.9z"/>
	</g>
	<g>
		<g>
			<g>
				<g>
					<linearGradient id="SVGID_1_" gradientUnits="userSpaceOnUse" x1="28.1299" y1="420.5999" x2="80.0887" y2="420.5999">
						<stop  offset="0" style="stop-color:#00B1E0"/>
						<stop  offset="1" style="stop-color:#8AEEFF"/>
					</linearGradient>
					<path class="st4" d="M71.5,447.7c1.1-4.1-1.6-8.3-4.7-11.3c-3-3-6.7-5.7-8.3-9.7c-2.6-6.4,0.9-14.8-3.5-20.2
						c-2.6-3.2-7.2-4.2-9.5-7.6c-1.2-1.8-1.6-3.9-2.1-6c-2.4-10.6-7.7-20.6-15.3-28.5c-0.5,9.5,1.6,19.1,6,27.5
						c1.8,3.4,4,6.7,4.5,10.4c1,6.1-2.5,12.4-1,18.4c1.7,6.9,9.4,11.5,9.8,18.6c0.3,6-4.9,11.2-4.5,17.2c0.2,2.5,1.3,4.9,2.7,7.1
						c4.6,7.7,11.4,13,21.7,12.8l12.6,0.4L71.5,447.7z"/>
				</g>
			</g>
		</g>
		<g class="st5">
			<g>
				<g>
					<g>
						<path d="M71.5,447.7c1.1-4.1-1.6-8.3-4.7-11.3c-3-3-6.7-5.7-8.3-9.7c-2.6-6.4,0.9-14.8-3.5-20.2c-2.6-3.2-7.2-4.2-9.5-7.6
							c-1.2-1.8-1.6-3.9-2.1-6c-2.4-10.6-7.7-20.6-15.3-28.5c-0.5,9.5,1.6,19.1,6,27.5c1.8,3.4,4,6.7,4.5,10.4
							c1,6.1-2.5,12.4-1,18.4c1.7,6.9,9.4,11.5,9.8,18.6c0.3,6-4.9,11.2-4.5,17.2c0.2,2.5,1.3,4.9,2.7,7.1
							c4.6,7.7,11.4,13,21.7,12.8l12.6,0.4L71.5,447.7z"/>
					</g>
				</g>
			</g>
		</g>
		<g>
			<g>
				<g>
					<g>
						<g>
							<path class="st3" d="M82.6,477.2c0,0,1.2,0.3,3.5-0.1c1.1-0.2,2.5-0.5,4.1-1c1.6-0.6,3.4-1.4,5.1-2.8
								c0.8-0.7,1.6-1.6,2.1-2.8c0.4-1.2,0.5-2.5,0.6-3.8c0.1-1.3,0.1-2.7,0.3-4.1c0.2-1.4,0.8-2.8,1.5-4.1c1.5-2.6,4-5.1,4.8-8.6
								c0.9-3.5,0.2-7.3-0.3-11.1c-0.6-3.8-1.2-7.9,0.3-11.9c1.4-3.9,4.1-7.5,5.5-12c1.4-4.5,0.7-9.3,1-14.1c0.1-2.4,0.6-4.8,1.6-7
								c1-2.2,2.4-4.3,3.5-6.7c2.2-4.8,2.6-10.1,3.2-15.4c0.3-2.7,0.6-5.4,0.9-8.1c0.3-2.7,0.5-5.4,1.4-8.1c0.8-2.6,1.9-5.2,3-7.8
								c0.5-1.3,1.1-2.6,1.5-4.1c0.2-1.5,0.3-2.9,0.4-4.3c0.1-2.9,0-5.8-0.3-8.7c-0.3-2.9-0.9-5.8-1.2-8.7c0-0.2,0-0.3-0.1-0.5
								L125,321l-0.5,0.3c-2.7,1.4-5,3.4-6.8,5.7c-1.8,2.3-3.1,5-4.2,7.7c-2.1,5.4-2.9,11.1-3.9,16.5c-1,5.4-2.4,10.8-5.2,15.3
								c-1.4,2.2-3.1,4.3-4.5,6.5c-1.5,2.2-2.7,4.6-3.1,7.2c-0.7,5.3,2.2,10,1.6,14.8c-0.2,2.3-1.2,4.5-2.3,6.6
								c-1.1,2-2.5,3.9-3.8,5.8c-1.3,1.9-2.5,3.8-3.4,5.8c-0.9,2-1.4,4.2-1.6,6.3c-0.3,4.3,0.3,8.3,0,12.1
								c-0.3,3.8-1.6,7.3-3.1,10.4c-1.5,3.1-3.2,5.9-4.6,8.6c-0.7,1.4-1.4,2.7-1.9,4c-0.6,1.3-0.8,2.7-1.1,4
								c-0.4,2.6-0.4,5.1-0.1,7.2c0.5,4.3,2.2,7.4,3.6,9.2c0.3,0.5,0.7,0.8,1,1.1c0.3,0.3,0.6,0.5,0.8,0.7
								C82.4,477,82.6,477.2,82.6,477.2c0.1-0.1-1-0.6-2.4-2.4c-1.4-1.8-2.9-4.9-3.4-9.1c-0.3-2.1-0.3-4.5,0.2-7.1
								c0.3-1.3,0.6-2.6,1.1-3.9c0.5-1.3,1.2-2.6,1.9-4c1.4-2.7,3.2-5.5,4.7-8.6c1.5-3.1,2.9-6.6,3.2-10.6c0.3-3.9-0.3-7.9,0.1-12.1
								c0.1-2.1,0.6-4.2,1.5-6.1c0.9-2,2.1-3.8,3.3-5.7c1.3-1.9,2.6-3.7,3.8-5.8c1.2-2,2.2-4.3,2.4-6.8c0.6-5-2.3-9.8-1.6-14.7
								c0.4-2.5,1.6-4.7,3-6.9c1.4-2.2,3.1-4.2,4.5-6.5c2.9-4.6,4.3-10.1,5.3-15.5c1.1-5.5,1.8-11.1,3.9-16.4c1-2.6,2.3-5.2,4.1-7.5
								c1.7-2.3,3.9-4.2,6.5-5.5l-0.6-0.3c0,0.2,0,0.3,0.1,0.5c0.3,3,0.8,5.8,1.2,8.7c0.4,2.9,0.5,5.8,0.3,8.6
								c-0.1,1.4-0.2,2.9-0.4,4.2c-0.3,1.3-0.9,2.6-1.4,3.9c-1.1,2.6-2.3,5.2-3,7.9c-0.9,2.7-1.1,5.5-1.4,8.2
								c-0.3,2.7-0.6,5.4-0.9,8.1c-0.6,5.3-1,10.6-3.2,15.2c-1.1,2.3-2.5,4.4-3.5,6.7c-1.1,2.3-1.6,4.8-1.7,7.3
								c-0.3,4.9,0.4,9.6-1,13.9c-1.3,4.3-4.1,7.9-5.5,12c-1.5,4.1-0.9,8.4-0.3,12.2c0.6,3.8,1.2,7.5,0.4,10.9
								c-0.7,3.4-3.1,5.8-4.6,8.5c-0.8,1.3-1.4,2.8-1.6,4.2c-0.2,1.4-0.2,2.8-0.3,4.1c-0.1,1.3-0.1,2.6-0.5,3.7
								c-0.4,1.1-1.2,2-2,2.7c-1.6,1.4-3.4,2.2-4.9,2.8c-1.6,0.6-2.9,0.9-4,1.1c-1.1,0.2-2,0.2-2.6,0.2
								C82.9,477.2,82.6,477.2,82.6,477.2z"/>
						</g>
					</g>
				</g>
			</g>
			<g>
				<g>
					<g>
						<g>
							<path class="st3" d="M122.5,328.5c0,0-0.1,0.1-0.1,0.4c-0.1,0.3-0.2,0.7-0.3,1.1c-0.2,1-0.5,2.5-1,4.4
								c-0.5,1.9-1.6,4-2.6,6.6c-1,2.6-2.1,5.6-3,9c-1,3.4-1.8,7.1-2.7,11.1c-0.9,4-1.8,8.3-4,12.3c-1,2.1-2.2,4.1-3.1,6.4
								c-0.9,2.3-1.5,4.8-1.8,7.2c-0.6,5-1.5,10.1-2.7,15.3c-2.5,10.3-4.9,20.2-7.1,29.2c-2.2,8.9-4.3,17-6,23.8
								c-1.7,6.7-3,12.2-4,16.1c-0.4,1.9-0.8,3.3-1,4.4c-0.1,0.5-0.2,0.8-0.3,1.1c-0.1,0.3-0.1,0.4-0.1,0.4c0,0,0.1-0.1,0.1-0.4
								c0.1-0.3,0.2-0.7,0.3-1.1c0.3-1.1,0.7-2.5,1.2-4.3c1-3.8,2.4-9.3,4.2-16c1.8-6.8,3.8-14.8,6.2-23.7c2.2-9,4.6-18.8,7.2-29.2
								c1.2-5.2,2.1-10.4,2.7-15.3c0.4-2.5,0.8-4.9,1.7-7.1c0.9-2.2,2-4.3,3.1-6.3c2.2-4.1,3.1-8.5,4-12.5c0.9-4,1.7-7.7,2.6-11.1
								c0.9-3.4,1.9-6.4,2.9-8.9c0.9-2.6,2-4.7,2.5-6.7c0.4-1.9,0.7-3.4,0.9-4.4c0.1-0.5,0.1-0.8,0.2-1.2
								C122.5,328.6,122.5,328.5,122.5,328.5z"/>
						</g>
					</g>
				</g>
			</g>
		</g>
		<g>
			<g>
				<g>
					<linearGradient id="SVGID_2_" gradientUnits="userSpaceOnUse" x1="39.2667" y1="379.1118" x2="93.5705" y2="379.1118">
						<stop  offset="0" style="stop-color:#00B1E0"/>
						<stop  offset="1" style="stop-color:#8AEEFF"/>
					</linearGradient>
					<path class="st6" d="M84.9,477.2c8.2-4.9,10.6-19.8,7.2-28.7c-3.4-9-9.5-17.1-10.4-26.7c-0.7-7.3,1.7-14.9,0-22
						c-2.3-9.7-11.8-17.2-11.6-27.1c0.1-5.6,3.2-10.8,3-16.4c-0.3-6.8-5.6-12.3-8.8-18.3c-5-9.2-5.3-20.1-7-30.5
						c-1.7-10.3-5.6-21.4-14.8-26.5c-1.4,8.8-3.7,14.8-2.9,26.7c0.3,4.3,5.2,12.5,5.9,21.8c0.4,5.6,0.7,11.2,1,16.8
						c0.3,5.4,0.7,11,2.6,16.1c1.5,3.9,3.9,7.5,5,11.5c2.1,7.6-0.7,15.8,1,23.5c1.4,6.5,5.9,12.1,6.9,18.7
						c1.3,9.3-4.7,18.9-1.6,27.8c1.5,4.4,5.1,7.9,6.2,12.5c0.8,3.5-0.1,7.2,0.6,10.8c1.2,5.7,12,10.1,17.8,9.8"/>
				</g>
			</g>
		</g>
		<g>
			<g>
				<g>
					<g>
						<path class="st3" d="M44.6,289.7c0,0,0,0.2,0,0.5c0,0.4,0.1,0.8,0.2,1.4c0.2,1.3,0.4,3.1,0.8,5.5c0.5,2.4,1.7,5.1,2.7,8.4
							c1.1,3.3,2.1,7.1,3,11.3c0.9,4.2,1.7,8.9,2.6,14c0.9,5,1.7,10.5,4.2,15.8c1.2,2.6,2.5,5.3,3.4,8.1c1,2.8,1.5,5.8,1.7,8.9
							c0.4,6.2,1.3,12.7,2.4,19.2c2.5,13,4.9,25.4,7.1,36.7c2.3,11.2,4.4,21.4,6.1,29.9c1.8,8.5,3.2,15.3,4.2,20.1
							c0.5,2.3,0.9,4.2,1.2,5.5c0.1,0.6,0.2,1.1,0.3,1.4c0.1,0.3,0.1,0.5,0.1,0.5c0,0,0-0.2-0.1-0.5c-0.1-0.4-0.1-0.8-0.2-1.4
							c-0.2-1.3-0.6-3.2-1-5.5c-0.9-4.8-2.3-11.7-4-20.2c-1.7-8.5-3.7-18.7-6-29.9c-2.2-11.3-4.6-23.7-7.1-36.7
							c-1.2-6.5-2-12.9-2.4-19.1c-0.3-3.1-0.8-6.2-1.8-9.1c-1-2.9-2.3-5.5-3.5-8.1c-2.5-5.2-3.4-10.6-4.2-15.6
							c-0.9-5-1.7-9.7-2.7-14c-1-4.2-2.1-8-3.2-11.3c-1-3.3-2.3-6-2.8-8.4c-0.5-2.4-0.7-4.2-1-5.5c-0.1-0.6-0.2-1.1-0.3-1.4
							C44.7,289.9,44.6,289.7,44.6,289.7z"/>
					</g>
				</g>
			</g>
		</g>
	</g>
	<g>
		<g>
			<linearGradient id="SVGID_3_" gradientUnits="userSpaceOnUse" x1="425.3581" y1="51.3525" x2="442.1658" y2="51.3525">
				<stop  offset="0" style="stop-color:#00B1E0"/>
				<stop  offset="1" style="stop-color:#8AEEFF"/>
			</linearGradient>
			<path class="st7" d="M442.2,54.2h-4.5c0,0,0,3.8-3.9,3.8c-2,0-3.1-1.3-3.5-2.3c-0.5-1.2-0.3-2.5,0.3-3.6c0.8-1.3,2.4-2.4,5.5-1.9
				V40.1h-4.4V46c0,0-6.2,1.6-6.2,8.5c0,6.6,5.9,8.1,8.4,8.1C435.7,62.6,442.2,62.1,442.2,54.2z"/>
			<linearGradient id="SVGID_4_" gradientUnits="userSpaceOnUse" x1="431.5278" y1="35.9253" x2="436.031" y2="35.9253">
				<stop  offset="0" style="stop-color:#00B1E0"/>
				<stop  offset="1" style="stop-color:#8AEEFF"/>
			</linearGradient>
			<polygon class="st8" points="431.5,33.8 436,33.8 436,38 431.5,38 			"/>
		</g>
		<g>
			<g>
				<g>
					<g>
						<g>
							<path class="st3" d="M466.7,48.2c0,0,0-0.2,0-0.6c0-0.4,0-1,0-1.7c0-0.4,0-0.8-0.1-1.2c-0.1-0.5-0.1-0.9-0.2-1.5
								c-0.1-0.5-0.2-1.1-0.2-1.7c-0.1-0.6-0.3-1.2-0.5-1.9c-0.7-2.7-1.9-6-4.1-9.3c-2.1-3.3-5.2-6.8-9.4-9.6
								c-4.2-2.8-9.4-4.9-15.3-5.5c-1.5-0.1-3-0.2-4.5-0.1c-0.8,0.1-1.5,0-2.3,0.1c-0.8,0.1-1.5,0.2-2.3,0.3
								c-3.1,0.6-6.2,1.5-9.2,3.1c-2.9,1.5-5.7,3.5-8.2,6c-2.4,2.5-4.6,5.4-6.2,8.6c-1.6,3.2-2.8,6.8-3.2,10.5
								c-0.2,0.9-0.2,1.9-0.2,2.8c-0.1,0.9-0.1,1.9-0.1,2.8c0.1,1.9,0.3,3.8,0.7,5.7c0.9,4.1,2.5,7.9,4.8,11.3l0-0.3
								c-1.6,3.9-3.1,7.8-4.6,11.5l-0.3,0.7l0.7-0.2c4.2-1.2,8.3-2.3,12.3-3.4l-0.3-0.1c4.3,3.2,9.2,5.3,14,6.1
								c2.4,0.4,4.9,0.6,7.2,0.4c1.2,0,2.3-0.1,3.5-0.3c0.6-0.1,1.1-0.2,1.7-0.3c0.6-0.1,1.1-0.3,1.6-0.4c8.7-2.2,15-7.6,18.7-12.8
								c1.9-2.6,3.2-5.2,4-7.6c0.2-0.6,0.4-1.2,0.6-1.7c0.1-0.6,0.3-1.1,0.4-1.6c0.1-0.5,0.3-1,0.4-1.5c0.1-0.5,0.1-0.9,0.2-1.4
								c0.1-0.9,0.3-1.6,0.3-2.3c0-0.7,0-1.2,0.1-1.7c0-0.4,0-0.8,0-1C466.8,48.3,466.8,48.2,466.7,48.2c0,0,0,0.1,0,0.3
								c0,0.3,0,0.6-0.1,1c0,0.5-0.1,1-0.1,1.7c-0.1,0.7-0.2,1.4-0.3,2.3c-0.6,3.4-2,8.5-5.8,13.6c-3.7,5.2-10,10.4-18.5,12.5
								c-0.5,0.1-1.1,0.3-1.6,0.4c-0.5,0.1-1.1,0.2-1.7,0.2c-1.1,0.2-2.2,0.3-3.4,0.3c-2.3,0.1-4.7,0-7.1-0.5
								c-4.8-0.9-9.5-2.9-13.7-6.1l-0.1-0.1l-0.2,0c-4,1.1-8.1,2.2-12.3,3.4l0.4,0.5c1.5-3.7,3.1-7.6,4.6-11.5l0.1-0.2l-0.1-0.2
								c-2.2-3.3-3.8-7.1-4.6-11c-0.4-1.8-0.6-3.7-0.7-5.5c0-0.9,0-1.8,0.1-2.8c0.1-0.9,0.1-1.8,0.2-2.7c0.4-3.6,1.5-7.1,3.1-10.3
								c1.6-3.2,3.7-6,6-8.4c2.4-2.4,5.2-4.3,8-5.9c2.9-1.6,5.9-2.5,9-3.1c0.8-0.1,1.5-0.2,2.3-0.4c0.8-0.1,1.5-0.1,2.3-0.2
								c1.5-0.1,3,0,4.4,0.1c5.8,0.5,10.9,2.6,15.1,5.3c4.1,2.7,7.2,6.1,9.3,9.4c2.2,3.3,3.4,6.5,4.1,9.2c0.2,0.7,0.3,1.3,0.5,1.9
								c0.1,0.6,0.2,1.2,0.3,1.7c0.1,0.5,0.2,1,0.2,1.5c0,0.4,0.1,0.9,0.1,1.2c0.1,0.7,0.1,1.3,0.1,1.7
								C466.7,48,466.7,48.2,466.7,48.2z"/>
						</g>
					</g>
				</g>
			</g>
		</g>
	</g>
	<g>
		<g>
			<linearGradient id="SVGID_5_" gradientUnits="userSpaceOnUse" x1="130.5668" y1="222.3872" x2="374.4118" y2="222.3872">
				<stop  offset="0" style="stop-color:#00B1E0"/>
				<stop  offset="1" style="stop-color:#8AEEFF"/>
			</linearGradient>
			<path class="st9" d="M130.6,181.2h65.1c0,0,0-54.7,56.8-55.6c29.5-0.5,44.8,18.8,51,33.6c7.2,17.2,5,36.8-4.6,52.7
				c-11,18.2-34.8,36.5-78.7,28.8l-0.4,145h64.4v-86c0,0,90.3-23.3,90.3-122.8c0-95.2-77-115.8-118.4-117.1
				c-23-0.7-31.4-1.7-59.8,2.3C159.9,67.2,129.8,109.4,130.6,181.2z"/>
			<linearGradient id="SVGID_6_" gradientUnits="userSpaceOnUse" x1="219.5726" y1="446.4243" x2="284.9044" y2="446.4243">
				<stop  offset="0" style="stop-color:#00B1E0"/>
				<stop  offset="1" style="stop-color:#8AEEFF"/>
			</linearGradient>
			<rect x="219.6" y="415.9" class="st10" width="65.3" height="61"/>
			<linearGradient id="SVGID_7_" gradientUnits="userSpaceOnUse" x1="219.5726" y1="446.4243" x2="284.9044" y2="446.4243">
				<stop  offset="0" style="stop-color:#00B1E0"/>
				<stop  offset="1" style="stop-color:#8AEEFF"/>
			</linearGradient>
			<rect x="219.6" y="415.9" class="st11" width="65.3" height="61"/>
			<linearGradient id="SVGID_8_" gradientUnits="userSpaceOnUse" x1="130.5668" y1="222.3872" x2="374.4118" y2="222.3872">
				<stop  offset="0" style="stop-color:#00B1E0"/>
				<stop  offset="1" style="stop-color:#8AEEFF"/>
			</linearGradient>
			<path class="st12" d="M130.6,181.2h65.1c0,0,0-54.7,56.8-55.6c29.5-0.5,44.8,18.8,51,33.6c7.2,17.2,5,36.8-4.6,52.7
				c-11,18.2-34.8,36.5-78.7,28.8l-0.4,145h64.4v-86c0,0,90.3-23.3,90.3-122.8c0-95.2-77-115.8-118.4-117.1
				c-23-0.7-31.4-1.7-59.8,2.3C159.9,67.2,129.8,109.4,130.6,181.2z"/>
		</g>
		<linearGradient id="SVGID_9_" gradientUnits="userSpaceOnUse" x1="103.6019" y1="222.61" x2="347.4443" y2="222.61">
			<stop  offset="0" style="stop-color:#00B1E0"/>
			<stop  offset="1" style="stop-color:#8AEEFF"/>
		</linearGradient>
		<path class="st13" d="M103.6,181.2h65.1c0,0,0-54.7,56.8-55.6c29.5-0.5,44.8,18.8,51,33.6c7.2,17.2,5,36.8-4.6,52.7
			c-11,18.2-35.2,34.8-79.1,27v146.8h64.4v-86c0,0,90.3-23.3,90.3-122.8c0-95.2-85.4-117.3-121.9-117.3
			C197.6,59.5,102.4,66.3,103.6,181.2z"/>
		<path class="st5" d="M103.6,181.2h65.1c0,0,0-54.7,56.8-55.6c29.5-0.5,44.8,18.8,51,33.6c7.2,17.2,5,36.8-4.6,52.7
			c-11,18.2-35.2,34.8-79.1,27v146.8h64.4v-86c0,0,90.3-23.3,90.3-122.8c0-95.2-85.4-117.3-121.9-117.3
			C197.6,59.5,102.4,66.3,103.6,181.2z"/>
		<linearGradient id="SVGID_10_" gradientUnits="userSpaceOnUse" x1="192.6052" y1="446.4243" x2="257.9369" y2="446.4243">
			<stop  offset="0" style="stop-color:#00B1E0"/>
			<stop  offset="1" style="stop-color:#8AEEFF"/>
		</linearGradient>
		<rect x="192.6" y="415.9" class="st14" width="65.3" height="61"/>
		<rect x="192.6" y="415.9" class="st5" width="65.3" height="61"/>
		<g>
			<path class="st3" d="M232.9,125.8c0,0-0.3,0-1-0.1c-0.6,0-1.6-0.2-2.8-0.2c-2.4-0.2-5.9-0.1-10.2,0.4c-4.3,0.5-9.3,1.6-14.7,3.5
				c-2.7,1-5.5,2.1-8.2,3.5c-2.8,1.4-5.5,3.1-8,5.2c-2.5,2.1-4.7,4.5-6.6,6.9c-1.9,2.5-3.5,5-4.9,7.5c-2.8,5-4.7,9.8-5.8,14
				c-1.2,4.2-1.7,7.6-2,10c-0.1,1.2-0.2,2.1-0.2,2.8c0,0.6-0.1,1-0.1,1c0,0,0-0.3,0-1c0-0.6,0-1.6,0.1-2.8c0.2-2.4,0.6-5.9,1.8-10.1
				c1.1-4.2,3-9.1,5.8-14.1c1.4-2.5,3-5.1,4.9-7.5c1.9-2.5,4.1-4.9,6.7-7c2.6-2.1,5.3-3.8,8.1-5.3c2.8-1.5,5.6-2.6,8.3-3.5
				c5.4-1.9,10.5-2.9,14.9-3.4c4.3-0.5,7.9-0.5,10.3-0.2c1.2,0,2.1,0.3,2.8,0.3C232.5,125.7,232.9,125.8,232.9,125.8z"/>
		</g>
		<g>
			<path class="st3" d="M331,114.2c0,0-0.1-0.1-0.2-0.3c-0.1-0.2-0.3-0.5-0.6-0.8c-0.5-0.7-1.2-1.7-2.1-3c-0.5-0.7-1-1.4-1.6-2.2
				c-0.6-0.8-1.3-1.6-2-2.5c-0.7-0.9-1.5-1.8-2.3-2.8c-0.8-1-1.8-1.9-2.8-3c-1-1-2-2.2-3.2-3.2c-1.2-1.1-2.4-2.2-3.6-3.3
				c-0.6-0.6-1.3-1.2-1.9-1.7c-0.7-0.5-1.4-1.1-2.1-1.7c-1.4-1.1-2.9-2.3-4.4-3.4c-6.2-4.5-13.4-8.8-21.3-12.6c-2-0.9-4-1.8-5.9-2.7
				c-2-0.8-4-1.5-5.9-2.3c-1.9-0.8-3.9-1.4-5.8-2c-1.9-0.6-3.7-1.3-5.6-1.7c-1.8-0.5-3.6-1-5.4-1.4c-1.7-0.5-3.5-0.7-5.1-1.1
				c-1.7-0.3-3.3-0.7-4.8-0.9c-1.6-0.2-3.1-0.4-4.5-0.6c-2.8-0.5-5.5-0.6-7.7-0.8c-1.1-0.1-2.2-0.2-3.2-0.3c-1,0-1.9-0.1-2.7-0.1
				c-1.6-0.1-2.8-0.1-3.7-0.1c-0.4,0-0.7,0-1,0c-0.2,0-0.3,0-0.3,0c0,0,0.1,0,0.3,0c0.3,0,0.6,0,1,0c0.9,0,2.1,0,3.7,0
				c0.8,0,1.7,0,2.7,0c1,0,2,0.1,3.2,0.2c2.3,0.2,4.9,0.3,7.8,0.7c1.4,0.2,2.9,0.4,4.5,0.6c1.6,0.2,3.2,0.6,4.8,0.9
				c1.7,0.4,3.4,0.6,5.2,1.1c1.8,0.5,3.6,0.9,5.4,1.4c1.9,0.4,3.7,1.1,5.6,1.7c1.9,0.6,3.9,1.2,5.8,2c1.9,0.8,3.9,1.5,5.9,2.3
				c2,0.9,4,1.8,6,2.7c8,3.8,15.2,8.2,21.4,12.7c1.6,1.1,3,2.3,4.4,3.4c0.7,0.6,1.4,1.1,2.1,1.7c0.7,0.6,1.3,1.2,1.9,1.7
				c1.3,1.2,2.5,2.3,3.6,3.3c1.1,1.1,2.1,2.2,3.1,3.3c1,1.1,2,2,2.8,3c0.8,1,1.6,2,2.3,2.9c0.7,0.9,1.4,1.7,2,2.5
				c0.6,0.8,1.1,1.6,1.5,2.2c0.9,1.3,1.6,2.4,2.1,3.1c0.2,0.3,0.4,0.6,0.5,0.8C330.9,114.1,331,114.2,331,114.2z"/>
		</g>
		<g>
			<path class="st3" d="M324.2,254c0,0-0.2,0.2-0.5,0.7c-0.4,0.5-0.9,1.1-1.5,1.9c-0.7,0.8-1.5,1.8-2.5,2.9c-1,1.1-2.1,2.4-3.4,3.7
				c-1.3,1.3-2.7,2.8-4.3,4.3c-1.6,1.5-3.3,3.1-5.1,4.7c-3.7,3.2-8,6.6-12.6,9.8c-4.7,3.2-9.4,6-13.7,8.3c-2.2,1.1-4.3,2.2-6.3,3.1
				c-2,1-3.8,1.8-5.6,2.5c-1.7,0.8-3.3,1.3-4.7,1.8c-1.4,0.5-2.6,1-3.6,1.3c-0.9,0.3-1.7,0.6-2.3,0.7c-0.5,0.2-0.8,0.2-0.8,0.2
				c0,0,0.3-0.1,0.8-0.3c0.6-0.2,1.3-0.5,2.2-0.8c1-0.4,2.2-0.8,3.5-1.4c1.4-0.6,2.9-1.1,4.6-1.9c1.7-0.7,3.6-1.6,5.5-2.5
				c2-0.9,4-2,6.2-3.2c4.3-2.4,8.9-5.1,13.6-8.3c4.7-3.2,8.9-6.6,12.6-9.8c1.8-1.6,3.6-3.1,5.2-4.7c1.6-1.5,3-2.9,4.3-4.3
				c1.3-1.3,2.4-2.6,3.4-3.6c1-1.1,1.9-2,2.5-2.8c0.7-0.7,1.2-1.3,1.6-1.8C324,254.2,324.2,254,324.2,254z"/>
		</g>
		<g>
			<path class="st3" d="M256,380.6c-0.2,0-0.3-18.1-0.3-40.4c0-22.3,0.1-40.4,0.3-40.4c0.2,0,0.3,18.1,0.3,40.4
				C256.3,362.5,256.2,380.6,256,380.6z"/>
		</g>
		<g>
			<path class="st3" d="M258.5,472.8c-0.2,0-0.3-12.7-0.3-28.4c0-15.7,0.1-28.4,0.3-28.4c0.2,0,0.3,12.7,0.3,28.4
				C258.8,460.1,258.7,472.8,258.5,472.8z"/>
		</g>
	</g>
	<g>
		<linearGradient id="SVGID_11_" gradientUnits="userSpaceOnUse" x1="322.3997" y1="169.2984" x2="354.2869" y2="169.2984">
			<stop  offset="0" style="stop-color:#00B1E0"/>
			<stop  offset="1" style="stop-color:#8AEEFF"/>
		</linearGradient>
		<path class="st15" d="M322.6,172.5c-1.1,2.3,3.1,4.1,5.5,4.8c2.4,0.7,5,0.7,7.6,0.5c3.4-0.2,6.8-0.5,9.8-2.2
			c2.6-1.5,4.5-3.9,5.9-6.6c1.4-2.7,2.2-5.6,3-8.4C354.3,160.7,327.7,162.4,322.6,172.5z"/>
		<g class="st16">
			<path d="M322.6,172.5c-1.1,2.3,3.1,4.1,5.5,4.8c2.4,0.7,5,0.7,7.6,0.5c3.4-0.2,6.8-0.5,9.8-2.2c2.6-1.5,4.5-3.9,5.9-6.6
				c1.4-2.7,2.2-5.6,3-8.4C354.3,160.7,327.7,162.4,322.6,172.5z"/>
		</g>
		<linearGradient id="SVGID_12_" gradientUnits="userSpaceOnUse" x1="396.091" y1="163.7282" x2="425.1913" y2="163.7282">
			<stop  offset="0" style="stop-color:#00B1E0"/>
			<stop  offset="1" style="stop-color:#8AEEFF"/>
		</linearGradient>
		<path class="st17" d="M397.8,165.3c4.3,3.1,9.7,4.8,15,4.7c2.6,0,5.3-0.5,7.2-2.3c0.9-0.8,1.5-1.8,2.4-2.6
			c0.6-0.5,1.3-0.9,1.9-1.5c0.6-0.6,1-1.4,0.8-2.1c-0.2-0.8-0.8-2.1-1.6-2.5c-3.1-1.7-6.7-1.7-10.2-1.6c-3.5,0.1-7,0.9-10.3,2
			c-2.7,0.9-5.6,2.2-7,4.7"/>
		<g class="st16">
			<path d="M425.2,161.6c-0.2-0.8-1.3-1.9-2-2.3c-3.1-1.7-6.3-1.9-9.8-1.8c-3.5,0.1-7,0.9-10.3,2c-2.7,0.9-5.6,2.2-7,4.7l1.7,1
				c4.3,3.1,9.7,4.8,15,4.7c2.6,0,5.3-0.5,7.2-2.3c0.9-0.8,1.5-1.8,2.4-2.6c0.6-0.5,1.3-0.9,1.9-1.5
				C424.9,163.1,425.3,162.3,425.2,161.6z"/>
		</g>
		<linearGradient id="SVGID_13_" gradientUnits="userSpaceOnUse" x1="317.3638" y1="156.9629" x2="403.2324" y2="156.9629">
			<stop  offset="0" style="stop-color:#00B1E0"/>
			<stop  offset="1" style="stop-color:#8AEEFF"/>
		</linearGradient>
		<path class="st18" d="M345.8,205.7l56.2,0.7c0.5,0,0.8-0.5,0.7-0.9l-6.6-20.6c0,0,1-10.3,2.3-22.6c2-18.8,4.7-42.4,4.8-42.3
			c-3.8-10.8-26.5-12.6-26.5-12.6l-25.8,1.5l-0.9-1.5l-7.4,3.5c-1.6,0.8-3.2,1.6-4.7,2.6c-4.9,3.3-16.8,10.8-18.9,19.2
			c-5,19.4,3.5,41.1,3.5,41.1l5.4-4.2c1.4-1.1,2.8-2,4.3-2.9L343,196c0,0-2.3,1.4-2.4,3.7C340.6,202.1,341.8,204.9,345.8,205.7"/>
		<g class="st5">
			<path d="M369.9,171.3c1.8-9.6,0.8-19.4-0.1-29.1c-3.1,7.9-3,16.9-6.3,24.7c-0.4,0.8-0.8,1.7-0.9,2.6c-0.1,0.9,0.1,1.9,0.8,2.5
				c0.9,0.8,2.2,0.4,3.4,0.2C368.1,172.2,368.8,171.7,369.9,171.3"/>
		</g>
		<g class="st16">
			<path d="M349.2,193.5c4.5,1.6,9.3-1.3,14.1-1.9c3.2-0.3,6.3,0.4,9.4,0.9c6.3,1,12.8,1.2,19.2,0.5c1-0.1,2-0.2,2.8-0.7
				c0.9-0.5,1.5-1.8,1.5-2.8c-10.6-1.1-21.2-1.7-31.8-2.8c-2.7-0.3-5.4-0.5-8,0.3c-3.2,1-5.7,3.5-7.9,6"/>
		</g>
		<linearGradient id="SVGID_14_" gradientUnits="userSpaceOnUse" x1="390.2333" y1="142.2034" x2="425.153" y2="142.2034">
			<stop  offset="0" style="stop-color:#00B1E0"/>
			<stop  offset="1" style="stop-color:#8AEEFF"/>
		</linearGradient>
		<path class="st19" d="M423.5,157.9c-4.6-10.3-20.8-38.9-20.8-38.9l-12.5,15.7l2.9,30.8c0,0,6.6-7.4,25.1-7.5
			c4.3,0,6.9,3.6,6.9,3.6L423.5,157.9z"/>
		<g>
			<path class="st3" d="M348.3,152.4c-0.2,0-1.1-3-2.1-6.7c-1-3.8-1.7-6.9-1.5-6.9c0.2,0,1.1,3,2.1,6.7
				C347.8,149.3,348.5,152.4,348.3,152.4z"/>
		</g>
		<g>
			<path class="st3" d="M389.3,132.6c0,0,0.4,0.3,1.2,1c0.7,0.7,1.7,1.7,2.8,3.1c2.2,2.7,4.9,6.9,6,12.2c0.6,2.6,0.7,5.2,0.4,7.6
				c-0.3,2.3-0.7,4.3-1,6.1c-0.3,1.7-0.5,3.1-0.6,4.1c-0.1,1-0.1,1.5-0.2,1.5c0,0-0.1-0.5-0.1-1.5c0-1,0.1-2.4,0.4-4.1
				c0.2-1.7,0.6-3.8,0.9-6.1c0.3-2.3,0.2-4.8-0.4-7.4c-1.1-5.2-3.7-9.4-5.7-12.1C390.8,134.1,389.2,132.6,389.3,132.6z"/>
		</g>
		<g>
			<path class="st3" d="M377.8,203.3c0,0-0.4,0.2-1.2,0.4c-0.4,0.1-0.9,0.2-1.5,0.3c-0.6,0.1-1.2,0.2-2,0.2c-1.5,0.1-3.2,0.1-5.2,0
				c-1.9-0.2-4-0.6-6.2-1.2c-2.1-0.7-4.1-1.6-5.8-2.5c-1.7-1-3.1-2-4.3-2.9c-0.6-0.4-1.1-0.9-1.5-1.3c-0.4-0.4-0.8-0.8-1-1.1
				c-0.5-0.6-0.8-1-0.8-1c0.1-0.1,1.3,1.3,3.6,3c1.1,0.9,2.6,1.8,4.3,2.8c1.7,0.9,3.6,1.7,5.7,2.4c2.1,0.6,4.2,1,6.1,1.3
				c1.9,0.2,3.6,0.2,5.1,0.2C376,203.6,377.8,203.2,377.8,203.3z"/>
		</g>
		<g>
			<path class="st3" d="M395.2,196.9c0.1,0,0.3,0.6,0.4,1.6c0.1,1,0.2,2.5-0.3,4.1c-0.4,1.6-1.4,2.8-2.2,3.5
				c-0.8,0.7-1.5,0.9-1.5,0.8c0-0.1,0.5-0.4,1.2-1.1c0.7-0.7,1.5-1.9,1.9-3.4C395.6,199.5,394.9,196.9,395.2,196.9z"/>
		</g>
		<g>
			<path class="st3" d="M392.1,200.8c0.1,0,0.4,1.6-0.3,3.5c-0.7,1.9-2,2.9-2.1,2.8c-0.1-0.1,0.9-1.2,1.6-3
				C392,202.4,391.9,200.8,392.1,200.8z"/>
		</g>
		<g>
			<path class="st3" d="M382.1,163.7c0.1,0.1-0.9,1.3-2,2.9c-1.1,1.6-1.8,3-2,2.9c-0.1-0.1,0.4-1.6,1.5-3.2
				C380.7,164.7,381.9,163.6,382.1,163.7z"/>
		</g>
		<g>
			<path class="st3" d="M343.5,136.4c-0.1,0.1-1-0.6-2.5-1.7c-1.5-1-3.8-2.2-6.4-3.2c-2.6-1-5.1-1.5-6.9-1.7c-1.8-0.2-3-0.3-3-0.4
				c0-0.1,1.2-0.2,3,0c1.9,0.1,4.4,0.6,7.1,1.6c2.7,1,4.9,2.3,6.4,3.4C342.7,135.6,343.5,136.4,343.5,136.4z"/>
		</g>
		<g>
			<path class="st3" d="M402.8,118.6c0.1,0.2-2.9,2-5.7,5.3c-2.8,3.3-4.1,6.6-4.3,6.5c-0.1,0,0.2-0.9,0.8-2.2c0.6-1.3,1.6-3,3-4.7
				c1.4-1.7,2.9-3,4.1-3.8C401.9,118.9,402.7,118.5,402.8,118.6z"/>
		</g>
		<g>
			<path class="st3" d="M379.6,109.3c0,0,0.1,0.2,0.3,0.5c0.2,0.3,0.3,0.9,0.5,1.6c0.4,1.4,0.5,3.6,0,6.1c-0.6,2.5-2,5.5-4.6,7.8
				c-2.6,2.3-6.4,3.7-10.4,3.7c-4,0-7.7-1.4-10.5-3.5c-2.8-2.1-4.6-4.7-5.8-7c-1.1-2.3-1.7-4.4-1.9-5.8c-0.1-0.7-0.2-1.3-0.2-1.6
				c0-0.4,0-0.6,0-0.6c0.1,0,0.1,0.8,0.4,2.2c0.3,1.4,0.9,3.4,2.1,5.7c1.2,2.2,3,4.7,5.7,6.7c2.7,2,6.3,3.3,10.2,3.3
				c3.9,0,7.5-1.3,10-3.5c2.5-2.2,3.9-5,4.6-7.5c0.6-2.5,0.5-4.6,0.2-6C379.8,110,379.5,109.3,379.6,109.3z"/>
		</g>
		<g class="st5">
			<path d="M383.5,165.7c0-0.6-0.1-1.2-0.6-1.5c-0.3-0.2-0.7-0.1-1,0c-0.3,0.2-0.6,0.4-0.8,0.7c-1.4,1.5-2.3,2.9-3,4.8l5.5-0.5
				C383.6,168.1,383.5,166.9,383.5,165.7z"/>
		</g>
		<g class="st5">
			<path d="M401.8,154.1c-0.4-3.2-2-6.1-4-8.6c2.4,7.8,1.6,12.2,0.2,17.5l0.3-0.7C399.9,159.2,402.3,157.3,401.8,154.1z"/>
		</g>
		<g>
			<polygon class="st20" points="390.8,416.2 387.4,466.7 365.5,466.5 362,413.9 			"/>
		</g>
		<g>
			<g>
				<path class="st21" d="M388.1,460.1l0,1.5c0,0,24.8,10,25,14.7l-49.2-0.3l0.8-16.4C372,463,379.6,463.4,388.1,460.1z"/>
			</g>
		</g>
		<g>
			<g>
				<g>
					<path class="st22" d="M369.6,464.8c-1,0.3-1.6,1.3-1.4,2.3c0.2,1,1.3,1.6,2.3,1.4c1-0.2,1.8-1.5,1.5-2.4
						c-0.3-0.9-1.6-1.7-2.5-1.2"/>
				</g>
			</g>
		</g>
		<g class="st23">
			<g>
				<path class="st3" d="M363.9,475.9l0.2-3.9l47.1,1.7c0,0,2.2,1,1.9,2.5L363.9,475.9z"/>
			</g>
		</g>
		<g>
			<g>
				<g>
					<path class="st3" d="M388.2,461.7c0,0.2-1.2,0.3-2.4,1.1c-1.2,0.7-1.8,1.8-2,1.7c-0.2,0,0.1-1.5,1.6-2.4
						C386.8,461.2,388.3,461.4,388.2,461.7z"/>
				</g>
			</g>
		</g>
		<g>
			<g>
				<g>
					<path class="st3" d="M393.4,463.8c0.1,0.2-1,0.6-1.8,1.6c-0.9,1-1.1,2.1-1.3,2.1c-0.2,0-0.4-1.4,0.7-2.6
						C392,463.7,393.4,463.6,393.4,463.8z"/>
				</g>
			</g>
		</g>
		<g>
			<g>
				<g>
					<path class="st3" d="M396.3,470c-0.2,0.1-0.5-1.2,0.1-2.5c0.6-1.3,1.8-1.8,1.9-1.6c0.1,0.2-0.6,0.9-1.1,2
						C396.6,469,396.5,470,396.3,470z"/>
				</g>
			</g>
		</g>
		<path class="st3" d="M386.8,46.4c1.3-3.2-0.3-7-3-9c-2.7-2-6.4-2.5-9.8-1.9c-3.4,0.5-6.5,1.9-9.6,3.3c-2.8-2.8-7.3-3.9-11.1-2.7
			c-3.8,1.2-6.8,4.7-7.4,8.7c-2.4-0.6-5.2,0.2-6.8,2.1c-1.7,1.9-2.2,4.7-1.4,7l15.2,5.4l16.6,29.3c4.9,4.2,12.8,4,17.6-0.2
			c4.7-4.3,5.7-12.2,2-17.5c0.9-0.8,1.7-1.8,2.3-2.9c2.6-1.6,4.7-4.2,5.4-7.2C398.4,54.3,393.4,47.2,386.8,46.4z"/>
		<g>
			<g>
				<g>
					<g>
						<g>
							<g>
								<g>
									<path class="st20" d="M376.7,107.4c-0.9-4.8-1.6-8-1.6-8c0,0,9-3.5,8.4-16c-0.3-6.2-2.7-16.1-4.9-24.1
										c-2-7.2-8.7-15.1-15.8-12.8L341.3,57c-2.2,0.7-2.5,2.7-2,4.9l0,1.1l8.4,34.6l3.5,15.4c1.6,6.6,7.9,10.9,14.6,9.9l0,0
										C373.2,121.8,378.2,114.8,376.7,107.4z"/>
								</g>
							</g>
						</g>
					</g>
				</g>
			</g>
		</g>
		<g>
			<g>
				<g>
					<g>
						<g>
							<g>
								<g>
									<g>
										<path class="st3" d="M378.4,67.7c0.2,0.8-0.3,1.7-1.2,1.9c-0.8,0.2-1.7-0.3-1.9-1.1c-0.2-0.8,0.3-1.7,1.2-1.9
											C377.4,66.4,378.2,66.9,378.4,67.7z"/>
									</g>
								</g>
							</g>
						</g>
					</g>
				</g>
			</g>
			<g>
				<g>
					<g>
						<g>
							<g>
								<g>
									<g>
										<g>
											<path class="st3" d="M377.5,65.3c-0.2,0.2-1.5-0.4-3.2,0c-1.7,0.3-2.7,1.5-3,1.3c-0.1-0.1,0-0.5,0.5-1
												c0.4-0.5,1.3-1.1,2.3-1.3c1-0.2,2,0,2.6,0.3C377.3,64.8,377.6,65.2,377.5,65.3z"/>
										</g>
									</g>
								</g>
							</g>
						</g>
					</g>
				</g>
			</g>
		</g>
		<g>
			<g>
				<g>
					<g>
						<g>
							<g>
								<g>
									<g>
										<path class="st3" d="M362.1,71.4c0.2,0.8-0.3,1.7-1.2,1.9c-0.8,0.2-1.7-0.3-1.9-1.1c-0.2-0.8,0.3-1.7,1.2-1.9
											C361.1,70.1,361.9,70.6,362.1,71.4z"/>
									</g>
								</g>
							</g>
						</g>
					</g>
				</g>
			</g>
			<g>
				<g>
					<g>
						<g>
							<g>
								<g>
									<g>
										<g>
											<path class="st3" d="M361.3,69.3c-0.2,0.2-1.5-0.4-3.2,0c-1.7,0.3-2.7,1.5-3,1.3c-0.1-0.1,0-0.5,0.5-1
												c0.4-0.5,1.3-1.1,2.3-1.3c1-0.2,2,0,2.6,0.3C361.1,68.8,361.4,69.1,361.3,69.3z"/>
										</g>
									</g>
								</g>
							</g>
						</g>
					</g>
				</g>
			</g>
		</g>
		<g>
			<g>
				<g>
					<g>
						<g>
							<g>
								<g>
									<g>
										<path class="st3" d="M369.8,79.9c0-0.1,1-0.5,2.6-1.1c0.4-0.1,0.8-0.3,0.8-0.6c0-0.3-0.2-0.8-0.6-1.2
											c-0.6-1-1.3-1.9-1.9-3c-2.7-4.3-4.8-7.8-4.6-7.9c0.2-0.1,2.5,3.3,5.3,7.5c0.7,1.1,1.3,2.1,1.9,3c0.3,0.5,0.7,0.9,0.6,1.6
											c0,0.3-0.3,0.6-0.6,0.8c-0.3,0.1-0.5,0.2-0.7,0.3C370.9,79.7,369.8,80,369.8,79.9z"/>
									</g>
								</g>
							</g>
						</g>
					</g>
				</g>
			</g>
		</g>
		<g>
			<g>
				<g>
					<g>
						<g>
							<g>
								<g>
									<path class="st24" d="M375.1,99.4c0,0-8.1,2.2-17.2-0.9c0,0,5.9,7.7,17.8,4L375.1,99.4z"/>
								</g>
							</g>
						</g>
					</g>
				</g>
			</g>
		</g>
		<g>
			<g>
				<g>
					<g>
						<g>
							<g>
								<g>
									<path class="st3" d="M361.6,66.9c-0.1,0.5-1.8,0.5-3.8,1c-2,0.4-3.5,1.2-3.8,0.8c-0.1-0.2,0.1-0.7,0.7-1.2
										c0.6-0.5,1.6-1.1,2.7-1.4c1.2-0.3,2.3-0.2,3.1,0C361.3,66.3,361.7,66.6,361.6,66.9z"/>
								</g>
							</g>
						</g>
					</g>
				</g>
			</g>
		</g>
		<g>
			<g>
				<g>
					<g>
						<g>
							<g>
								<g>
									<path class="st3" d="M376.9,59.9c-0.3,0.5-1.7,0.3-3.4,0.7c-1.7,0.3-3,0.9-3.4,0.6c-0.2-0.2,0-0.6,0.5-1.1
										c0.5-0.5,1.5-1,2.6-1.2c1.1-0.2,2.2-0.1,2.8,0.2C376.7,59.4,377,59.7,376.9,59.9z"/>
								</g>
							</g>
						</g>
					</g>
				</g>
			</g>
		</g>
		<g>
			<path class="st3" d="M346.6,48.9c0.5,2.4,2.1,4.6,4.3,5.8c2.2,1.2,4.9,1.3,7.2,0.4c1.8-0.7,3.6-2.1,5.4-1.4
				c1.9,0.7,2.5,3.2,4.3,4.2c2.5,1.4,5.6-1,8.5-0.8c2.2,0.2,4,1.9,5.7,3.3s4.2,2.6,6.1,1.5c-0.5-1.9-1.1-3.7-2-5.4
				c-0.9-1.7-2.3-3.2-4.1-3.9c-1-0.4-2.1-0.5-3-1c-2-1-2.9-3.4-4.4-5.2c-1.9-2.2-5-3.5-7.9-3.2c-2.4,0.3-4.8,1.5-7.2,1.4
				c-1.8-0.1-3.5-0.9-5.4-0.9c-3.5,0.1-6.2,3.2-8.1,6.1"/>
		</g>
		<path class="st3" d="M358.5,51.5c-1.6-0.1-4.9-0.5-6-1.6c-2.4-2.5-5.9-3.8-9.1-3c-3.2,0.8-5.7,4-5.7,7.5c-3.9,0.8-7.1,4-8.2,8.1
			c-1.1,4,0,8.7,2.8,11.8c0.7,0.8,1.9,2.7,1.9,2.7s-1.4,1.8-2,3c-2.6,5.7,4.4,7.9,4.4,7.9c0,3.8,3.6,3.8,5.8,3.8
			c2.2,0,3.5,6,5.3,5.8l-1.8-18.7c0.2,0.1,0.5,0.1,0.8,0.1c4.3,0.1,3.2-8,1.8-10.1c1.2-1.6,2.4-3.3,3.2-5.2c0.8-1.9,0.8-6.6,0.2-8.6
			C353.4,54.9,359.2,51.5,358.5,51.5z"/>
		<g>
			<g>
				<g>
					<g>
						<g>
							<g>
								<g>
									<g>
										<g>
											<g>
												<g>
													<path class="st20" d="M346.5,79.9c-0.7-2.6-3.8-3.7-5.8-1.9c-1.1,1-1.7,2.6-1,5.3c1.8,7.3,8.7,3.9,8.7,3.7
														C348.3,86.8,347.3,82.9,346.5,79.9z"/>
												</g>
											</g>
										</g>
									</g>
								</g>
							</g>
						</g>
					</g>
				</g>
			</g>
			<g>
				<g>
					<g>
						<g>
							<g>
								<g>
									<g>
										<g>
											<g>
												<g>
													<g>
														<path class="st24" d="M345.5,84.8c0,0-0.1,0.1-0.3,0.3c-0.2,0.1-0.5,0.3-0.9,0.3c-0.8-0.1-1.8-1.1-2.2-2.4
															c-0.2-0.7-0.2-1.3-0.1-1.9c0.1-0.6,0.3-1,0.7-1.2c0.4-0.2,0.7,0,0.8,0.2c0.1,0.2,0.1,0.3,0.2,0.3c0,0,0.1-0.2,0-0.4
															c-0.1-0.1-0.2-0.3-0.4-0.4c-0.2-0.1-0.5-0.1-0.7,0c-0.5,0.2-0.9,0.8-1,1.5c-0.1,0.6-0.1,1.4,0.1,2.1
															c0.4,1.5,1.5,2.6,2.6,2.7c0.5,0,0.9-0.3,1.1-0.5C345.5,85,345.5,84.8,345.5,84.8z"/>
													</g>
												</g>
											</g>
										</g>
									</g>
								</g>
							</g>
						</g>
					</g>
				</g>
			</g>
		</g>
		<g>
			<path class="st25" d="M385.5,69.7c0-0.1,0.7-0.5,1.6-1.6c0.9-1.1,2-3,2.3-5.6c0.1-1.3,0.1-2.7-0.4-4.2c-0.5-1.4-1.3-2.9-2.6-4
				c-2.5-2.3-6.6-3.3-10.4-2c-0.3,0.1-0.7,0.3-1,0.4c-0.3,0.2-0.6,0.3-0.9,0.5l-0.4,0.3l0-0.5c0-0.9-0.3-1.7-0.9-2.4
				c-0.6-0.7-1.3-1.1-2.1-1.5c-1.6-0.7-3.3-0.7-4.8-0.4c-3.1,0.7-5.8,2.1-8.2,2.4c-2.5,0.3-4.5-0.3-5.6-1.1
				c-0.6-0.4-0.9-0.8-1.1-1.1c-0.2-0.3-0.3-0.5-0.2-0.5c0.1,0,0.4,0.7,1.5,1.4c1.1,0.7,3.1,1.3,5.4,0.9c1.2-0.2,2.4-0.6,3.8-1.1
				c1.3-0.5,2.8-1.1,4.4-1.4c0.8-0.2,1.7-0.3,2.5-0.3c0.9,0,1.8,0.2,2.6,0.6c0.8,0.4,1.7,0.9,2.3,1.6c0.6,0.7,1,1.7,1.1,2.7
				l-0.5-0.2c0.3-0.2,0.6-0.4,0.9-0.5c0.3-0.1,0.7-0.3,1-0.4c4-1.4,8.3-0.3,10.9,2.2c1.3,1.2,2.2,2.7,2.7,4.3c0.5,1.5,0.5,3,0.4,4.4
				c-0.3,2.7-1.5,4.6-2.5,5.7c-0.5,0.6-0.9,0.9-1.3,1.2C385.6,69.6,385.5,69.8,385.5,69.7z"/>
		</g>
		<g>
			<path class="st25" d="M384,44.3c0,0.1-0.8-0.6-2.3-0.8c-0.8-0.1-1.7-0.1-2.8,0.3c-1,0.3-2.1,1-2.9,2.1l-0.3,0.4l-0.2-0.5
				c-0.9-2.4-3.6-4.7-6.9-5.1c-2.5-0.3-4.7,0.8-6.6,1.9c-1.9,1.1-3.6,2.2-5.2,2.7c-1.6,0.6-3,0.6-4,0.5c-0.5-0.1-0.8-0.2-1.1-0.3
				c-0.2-0.1-0.3-0.2-0.3-0.2c0-0.1,0.5,0.1,1.4,0.2c0.9,0.1,2.3,0,3.8-0.6c1.6-0.6,3.2-1.6,5.1-2.8c1-0.6,2-1.1,3.2-1.5
				c1.2-0.4,2.5-0.6,3.8-0.5c3.5,0.4,6.4,2.9,7.3,5.5l-0.4-0.1c0.9-1.2,2-1.9,3.2-2.2c1.1-0.3,2.1-0.3,2.9-0.1
				c0.8,0.2,1.4,0.4,1.8,0.7C383.8,44.1,384,44.2,384,44.3z"/>
		</g>
		<path class="st24" d="M369.2,83.2c-0.5-0.5-1.3-0.7-2-0.6c-0.7,0.1-1.5,0.7-1.9,1.4c0,0,0,0,0,0c0,0,0,0.1-0.1,0.1l0,0
			c-0.2,0.3-0.2,0.6-0.2,0.9c0.1,0.7,0.6,1.2,1.2,1.5c1,0.5,2.2,0.3,3-0.4C369.9,85.3,369.9,83.9,369.2,83.2z"/>
		<g>
			<path class="st3" d="M369.7,86.7c-0.1,0-0.2-0.3-0.5-0.8c-0.3-0.5-0.8-1.1-1.6-1.4c-0.8-0.3-1.5-0.3-2.1-0.3
				c-0.6,0.1-0.9,0.2-0.9,0.2c0-0.1,0.2-0.4,0.8-0.6c0.6-0.2,1.5-0.3,2.4,0.1c0.9,0.4,1.5,1.2,1.7,1.7
				C369.8,86.3,369.8,86.7,369.7,86.7z"/>
		</g>
		<g>
			<path class="st21" d="M346.7,88.1c0.1,0,0.3,0.6-0.1,1.4c-0.2,0.4-0.6,0.9-1.2,1.1c-0.6,0.2-1.4,0.2-2-0.2c-0.6-0.4-1-1-1.1-1.7
				c-0.1-0.6,0.2-1.2,0.5-1.6c0.6-0.8,1.2-0.8,1.2-0.7c0,0.1-0.5,0.3-0.9,0.9c-0.2,0.3-0.3,0.8-0.3,1.3c0.1,0.5,0.4,0.9,0.8,1.3
				c0.5,0.3,1,0.4,1.5,0.2c0.5-0.1,0.8-0.5,1-0.8C346.7,88.6,346.6,88.1,346.7,88.1z"/>
		</g>
		<g>
			<path class="st21" d="M342.9,87.7c0.1,0,0,0.4-0.5,0.6c-0.2,0.1-0.6,0.2-0.9,0.1c-0.4-0.1-0.7-0.4-0.9-0.7
				c-0.2-0.4-0.2-0.8-0.1-1.2c0.1-0.4,0.4-0.6,0.6-0.7c0.5-0.3,0.8-0.2,0.8-0.1c0,0.1-0.3,0.1-0.6,0.4c-0.3,0.3-0.5,0.8-0.2,1.3
				c0.3,0.5,0.8,0.6,1.2,0.5C342.6,87.8,342.8,87.6,342.9,87.7z"/>
		</g>
		<g>
			<path class="st20" d="M355.3,187.8c0,0,27.9,1.6,44.4,1.8c12.8,0.1,18.5-3.3,21-11.5c2.1-6.9-2.5-20.1-2.5-20.1
				c-8.6,0-14,1.2-19.5,3.8l1.5,6l-45,3.9L355.3,187.8z"/>
			<g>
				<path class="st24" d="M409.6,174.3c-0.2,0.1-1.5-2.3-4.2-4.2c-2.7-1.9-5.5-2.2-5.4-2.4c0-0.1,0.7-0.1,1.8,0.2
					c1.1,0.2,2.6,0.8,4,1.8c1.4,1,2.5,2.1,3.1,3.1C409.4,173.6,409.7,174.2,409.6,174.3z"/>
			</g>
			<g>
				<path class="st20" d="M345.1,161.7L345.1,161.7c0,0-8.6,2.1-15,6.3l6.7,18.3c2.3,6,9.2,9,14.6,5.9c8.5-4.8,11.5-19,11.5-19
					l9.3-40.4l-15.5-9.7L345.1,161.7"/>
				<g>
					<path class="st20" d="M356.8,123.1l0.6-13.3L354,96.3c-0.2-0.7-0.3-1.7,0.3-2.1c0.6-0.5,1.6-0.5,2.1,0.1
						c0.9,1,5.5,12.8,5.5,12.8s6.8-4.1,8.1-4.3c1.2-0.2,2.7,3.5,2.8,3.8c0.1,0.3,0,2.5,0,2.5s4.2,0.1,4.6,0.7
						c0.4,0.6,0.5,3.6,0.5,3.6s1.8,0.6,2.1,1.9c0.3,1.4,0.9,3.6,0,4.1c-0.8,0.5-2.6,1.5-2.6,1.5s-0.7,6.9-0.9,7.5
						c-0.2,0.6-4.1,4.5-4.1,4.5L356.8,123.1z"/>
					<g>
						<path class="st24" d="M342.4,192.5c0,0,0.4,0.2,1.3,0.5c0.9,0.3,2.2,0.6,4,0.3c1.7-0.2,3.9-1,5.8-2.7c1.9-1.7,3.8-4,5.4-6.8
							c0.8-1.4,1.5-3,2.1-4.7c0.6-1.7,1-3.5,1.4-5.4c0.9-3.8,1.8-7.9,2.9-12.2c2-8.7,4.3-18.4,6.8-28.9l0-0.1l0.1-0.1
							c0.8-0.8,1.6-1.5,2.3-2.3c0.4-0.4,0.8-0.8,1.1-1.2c0.2-0.2,0.4-0.4,0.5-0.6c0.1-0.1,0.1-0.4,0.2-0.7c0.3-2.3,0.5-4.6,0.8-6.9
							l0-0.1l0.1-0.1c0.7-0.4,1.4-0.8,2.1-1.2c0.2-0.1,0.4-0.2,0.5-0.3c0.1-0.1,0.2-0.2,0.2-0.4c0.1-0.3,0.1-0.8,0-1.2
							c-0.1-0.8-0.3-1.7-0.5-2.5c-0.3-0.7-1.1-1.2-1.8-1.4l-0.2-0.1l0-0.2c0-0.7-0.1-1.3-0.1-2c0-0.3-0.1-0.7-0.1-1
							c0-0.2-0.1-0.3-0.1-0.4c0-0.1,0,0-0.1-0.1c-0.1,0-0.1-0.1-0.2-0.1c-1.3-0.3-2.7-0.4-4.1-0.5l-0.3,0l0-0.3c0-0.7,0.1-1.5,0-2.2
							c0-0.2-0.2-0.5-0.3-0.8c-0.1-0.3-0.3-0.5-0.4-0.8c-0.3-0.5-0.6-1-0.9-1.5c-0.2-0.2-0.4-0.4-0.6-0.6c-0.2-0.1-0.3-0.2-0.6-0.1
							c-0.5,0.2-1.1,0.5-1.6,0.7c-2.1,1.1-4.1,2.3-6.2,3.5l-0.3,0.2l-0.1-0.3c-1.1-2.7-2.1-5.3-3.2-7.9c-0.5-1.3-1-2.6-1.5-3.9
							c-0.2-0.6-0.6-1-1.2-1.2c-0.6-0.2-1.2,0-1.5,0.5c-0.1,0.2-0.2,0.5-0.2,0.8c0,0.3,0.2,0.6,0.2,0.9c0.2,0.6,0.3,1.3,0.5,1.9
							c0.3,1.3,0.7,2.6,1,3.8c0.7,2.5,1.3,5,2,7.4l0,0l0,0c-0.2,4.6-0.4,9.1-0.6,13.3l0,0l0,0c-4.3,13.9-7.8,25.4-10.3,33.4
							c-1.2,4-2.2,7.1-2.9,9.3c-0.3,1-0.6,1.9-0.8,2.4c-0.2,0.6-0.3,0.8-0.3,0.8s0.1-0.3,0.2-0.9c0.2-0.6,0.4-1.4,0.7-2.5
							c0.6-2.2,1.6-5.3,2.8-9.3c2.4-8.1,5.9-19.6,10.1-33.5l0,0.1c0.2-4.2,0.4-8.7,0.6-13.3l0,0.1c-0.6-2.4-1.3-4.9-2-7.4
							c-0.3-1.3-0.7-2.5-1-3.8c-0.2-0.6-0.3-1.3-0.5-1.9c-0.1-0.3-0.2-0.6-0.2-1c0-0.4,0-0.8,0.2-1.1c0.2-0.3,0.5-0.6,0.9-0.8
							c0.4-0.1,0.8-0.1,1.2,0c0.4,0.1,0.7,0.3,1,0.5c0.3,0.2,0.5,0.7,0.6,1c0.5,1.3,1,2.6,1.5,3.9c1,2.6,2.1,5.2,3.2,7.9l-0.4-0.1
							c2-1.2,4.1-2.4,6.2-3.5c0.5-0.3,1.1-0.5,1.7-0.8c0.2,0,0.3-0.1,0.6-0.1c0.2,0,0.4,0.1,0.5,0.2c0.3,0.2,0.5,0.4,0.7,0.7
							c0.4,0.5,0.7,1,1,1.6c0.1,0.3,0.3,0.6,0.4,0.8c0.1,0.3,0.3,0.5,0.3,1c0,0.8,0,1.5,0,2.3l-0.3-0.3c1.5,0.1,2.9,0.1,4.3,0.5
							c0.1,0,0.2,0.1,0.3,0.1c0.1,0,0.3,0.2,0.3,0.3c0.1,0.2,0.1,0.4,0.2,0.6c0.1,0.4,0.1,0.7,0.2,1c0.1,0.7,0.1,1.4,0.1,2l-0.2-0.3
							c0.9,0.3,1.7,0.8,2.2,1.8c0.3,0.9,0.4,1.7,0.5,2.6c0,0.4,0.1,0.9,0,1.4c0,0.2-0.2,0.5-0.4,0.7c-0.2,0.2-0.4,0.2-0.6,0.3
							c-0.7,0.4-1.5,0.8-2.2,1.2l0.1-0.2c-0.3,2.4-0.5,4.7-0.8,7l-0.1,0.4c0,0.1-0.1,0.4-0.2,0.5c-0.2,0.3-0.4,0.5-0.6,0.7
							c-0.4,0.4-0.8,0.8-1.2,1.3c-0.8,0.8-1.6,1.6-2.3,2.4l0.1-0.1c-2.5,10.5-4.8,20.2-6.8,28.9c-1,4.3-2,8.4-2.9,12.2
							c-0.5,1.9-0.9,3.7-1.5,5.4c-0.6,1.7-1.3,3.3-2.1,4.7c-1.6,2.9-3.6,5.1-5.5,6.8c-2,1.7-4.2,2.4-5.9,2.6c-1.8,0.2-3.2-0.1-4-0.4
							c-0.4-0.2-0.8-0.3-1-0.4C342.5,192.6,342.4,192.5,342.4,192.5z"/>
					</g>
					<g>
						<path class="st24" d="M372.8,109c0,0.1-0.4,0.1-1,0.2c-0.6,0-1.4,0.1-2.2,0.3c-0.8,0.2-1.5,0.6-1.9,1
							c-0.4,0.4-0.6,0.7-0.7,0.7c-0.1,0,0-0.4,0.4-1c0.4-0.5,1.1-1.1,2.1-1.3c0.9-0.2,1.8-0.2,2.4-0.1
							C372.4,108.8,372.8,108.9,372.8,109z"/>
					</g>
					<g>
						<path class="st24" d="M369.4,109.1c-0.2-0.1-0.2-0.4,0-0.8c0.1-0.4,0.4-0.6,0.5-0.6c0.2,0.1,0.2,0.4,0,0.8
							C369.8,108.9,369.6,109.1,369.4,109.1z"/>
					</g>
					<g>
						<path class="st24" d="M378,113.2c0,0.2-1.5,0.3-3.3,0.5c-0.9,0.1-1.6,0.4-1.9,0.9c-0.3,0.5-0.2,0.8-0.3,0.9
							c-0.1,0.1-0.4-0.4-0.1-1.1c0.1-0.3,0.4-0.7,0.8-0.9c0.4-0.2,0.9-0.3,1.4-0.4C376.5,112.9,378,113,378,113.2z"/>
					</g>
					<g>
						<path class="st24" d="M377.3,117.2c0.2,0,0.3,0.8,0.2,1.9c0,1-0.2,1.8-0.4,1.8c-0.2,0-0.3-0.8-0.2-1.9
							C377,118.1,377.1,117.2,377.3,117.2z"/>
					</g>
				</g>
			</g>
		</g>
		<g>
			<path class="st22" d="M323.3,127.7c0,0-0.4,0.4-1,1.3c-0.6,0.9-1.2,2.4-1.5,4.3c-0.3,1.9-0.3,4.2-0.2,6.8
				c0.1,2.6,0.3,5.4,0.6,8.3c0.6,5.9,1.6,11.1,2.4,14.9c0.4,1.9,0.8,3.4,1,4.5c0.1,0.5,0.2,0.9,0.3,1.2c0.1,0.3,0.1,0.4,0.1,0.4
				s-0.1-0.1-0.1-0.4c-0.1-0.3-0.2-0.7-0.3-1.2c-0.3-1-0.7-2.6-1.1-4.5c-0.9-3.8-1.8-9-2.5-14.9c-0.3-2.9-0.5-5.7-0.6-8.3
				c-0.1-2.6-0.1-4.9,0.3-6.8c0.3-1.9,1-3.4,1.6-4.3C322.8,128.1,323.3,127.7,323.3,127.7z"/>
		</g>
		<g>
			<path class="st22" d="M347,112.4c0,0-0.1,0.1-0.3,0.1c-0.2,0.1-0.5,0.2-0.7,0.4c-0.6,0.3-1.6,0.8-2.7,1.4
				c-2.3,1.2-5.3,3.1-8.5,5.3c-3.2,2.2-6.1,4.3-8.2,5.8c-1,0.7-1.8,1.3-2.5,1.8c-0.2,0.2-0.5,0.3-0.7,0.5c-0.2,0.1-0.2,0.2-0.2,0.1
				c0,0,0.1-0.1,0.2-0.2c0.2-0.2,0.4-0.3,0.7-0.5c0.7-0.5,1.5-1.1,2.4-1.8c2.1-1.5,4.9-3.6,8.1-5.9c3.2-2.2,6.2-4.1,8.5-5.2
				c1.1-0.6,2.1-1,2.7-1.3c0.3-0.1,0.5-0.2,0.8-0.3C346.9,112.4,347,112.4,347,112.4z"/>
		</g>
		<g>
			<path class="st22" d="M400.8,119.7c0,0-0.1,0-0.2-0.1c-0.2-0.1-0.3-0.3-0.5-0.4c-0.4-0.4-1.1-0.9-2-1.5c-1.7-1.2-4.3-2.5-7.2-3.7
				c-3-1.2-5.7-2-7.7-2.6c-1-0.3-1.8-0.5-2.4-0.6c-0.2-0.1-0.4-0.1-0.7-0.2c-0.1,0-0.2-0.1-0.2-0.1c0,0,0.1,0,0.2,0
				c0.2,0,0.4,0.1,0.7,0.1c0.6,0.1,1.4,0.3,2.4,0.6c2,0.5,4.8,1.3,7.8,2.5c3,1.2,5.5,2.5,7.3,3.7
				C399.9,118.7,400.8,119.7,400.8,119.7z"/>
		</g>
		<g>
			<path class="st22" d="M347.3,205.8c0,0-0.2,0-0.4-0.2c-0.3-0.1-0.7-0.3-1.1-0.6c-0.9-0.6-2.1-1.7-2.5-3.3c-0.4-1.6,0-3.2,0.4-4.1
				c0.2-0.5,0.5-0.9,0.7-1.1c0.2-0.2,0.3-0.4,0.3-0.3c0,0-0.4,0.5-0.8,1.5c-0.4,1-0.7,2.4-0.4,4c0.3,1.6,1.5,2.6,2.3,3.2
				C346.7,205.5,347.3,205.7,347.3,205.8z"/>
		</g>
		<g>
			<path class="st22" d="M343.7,193.6c0.1,0,0.3,0.6,0.5,1.4c0.2,0.8,0.4,1.5,0.3,1.5c-0.1,0-0.3-0.6-0.5-1.4
				C343.8,194.2,343.7,193.6,343.7,193.6z"/>
		</g>
		<g>
			<path class="st3" d="M359,446.3l34.4-0.2l-0.6-118.9l-0.3-120.9l-46.6-0.6l-8.4,15.8c-3.4,6.4-5.7,13.3-6.4,20.5
				c-0.6,5.5,3.5,23.3,4.9,27.8l12.8,40.7L359,446.3z"/>
			<path class="st3" d="M402.5,206.5l37.8,103c4.4,13.8,3,27.5-4.7,40.2l-43.9,85.6l-24.7-30.9l36.7-76.7l-32.4-52.4l5.4-68.8
				l15.2-0.2L402.5,206.5z"/>
		</g>
		<g>
			<path class="st25" d="M389.3,241c0,0,0,0.2,0.1,0.5c0,0.4,0.1,0.9,0.1,1.6c0.1,1.4,0.2,3.4,0.3,6c0.3,5.2,0.6,12.7,1.1,22
				c0.4,9.3,0.9,20.3,1.5,32.6c0.3,6.1,0.6,12.6,0.9,19.2c0.2,3.3,0.1,6.7,0.2,10.2c0,3.4,0,6.9,0,10.5c0,28.3,0.1,54,0.1,72.6
				c0,9.3,0,16.8,0,22c0,2.6,0,4.6,0,6c0,0.7,0,1.2,0,1.6c0,0.4,0,0.5,0,0.5s0-0.2,0-0.5c0-0.4,0-0.9,0-1.6c0-1.4,0-3.4-0.1-6
				c0-5.2-0.1-12.7-0.2-22c-0.1-18.6-0.2-44.2-0.3-72.6c0-3.5,0-7,0-10.5c0-3.4,0.1-6.8-0.1-10.2c-0.3-6.7-0.6-13.1-0.8-19.2
				c-0.5-12.3-1-23.3-1.4-32.6c-0.4-9.3-0.7-16.8-0.9-22c-0.1-2.6-0.2-4.6-0.2-6c0-0.7,0-1.2,0-1.6C389.3,241.2,389.3,241,389.3,241
				z"/>
		</g>
		<g>
			<path class="st25" d="M388.4,208.5c0,0,0.1,0.4,0.2,1.1c0.1,0.7,0.3,1.8,0.4,3.1c0.3,2.6,0.6,6.2,0.8,10.2
				c0.2,4,0.2,7.6,0.1,10.3c0,1.3-0.1,2.4-0.1,3.1c0,0.7-0.1,1.1-0.1,1.1c-0.1,0-0.1-1.6-0.2-4.2c0-2.6-0.1-6.2-0.3-10.2
				c-0.2-4-0.4-7.6-0.6-10.2C388.4,210.1,388.3,208.5,388.4,208.5z"/>
		</g>
		<g>
			<path class="st25" d="M380.8,210.8c0.1,0.1-0.6,0.4-0.8,1.3c-0.1,0.4,0,1,0.4,1.4c0.4,0.4,1.1,0.6,1.7,0.3
				c0.6-0.3,0.9-0.9,0.9-1.5c0-0.6-0.4-1-0.8-1.2C381.5,210.6,380.9,210.9,380.8,210.8c0,0,0.1-0.2,0.4-0.2c0.3-0.1,0.8-0.1,1.3,0.1
				c0.5,0.2,1.1,0.8,1.1,1.6c0.1,0.8-0.3,1.6-1.2,2c-0.9,0.4-1.8,0.1-2.3-0.5c-0.6-0.5-0.6-1.3-0.5-1.9c0.2-0.5,0.5-0.9,0.7-1
				C380.6,210.8,380.8,210.8,380.8,210.8z"/>
		</g>
		<g>
			<path class="st25" d="M362.8,208.8c0,0,0.2,0.4,0.3,1.1c0.1,0.7,0.2,1.8,0.1,3.1c-0.1,1.3-0.5,2.8-1.3,4.4
				c-0.8,1.5-2,3.1-3.6,4.3c-1.6,1.2-3.5,1.8-5.2,2.1c-1.7,0.3-3.3,0.1-4.6-0.2c-1.3-0.3-2.2-0.7-2.9-1.1c-0.6-0.4-0.9-0.6-0.9-0.6
				c0.1-0.1,1.4,0.8,3.9,1.3c2.4,0.5,6.2,0.3,9.3-2c3.1-2.3,4.5-5.7,4.8-8.2C363.1,210.4,362.7,208.8,362.8,208.8z"/>
		</g>
		<g>
			<path class="st25" d="M407,218.7c0,0.1-0.9,0.1-2.2-0.3c-1.3-0.4-3-1.3-4.4-2.8c-1.4-1.6-2.2-3.4-2.4-4.7c-0.2-1.3-0.1-2.2,0-2.2
				c0.1,0,0.1,0.8,0.5,2.1c0.3,1.3,1.1,2.9,2.4,4.4c1.3,1.5,2.9,2.4,4.1,2.8C406.2,218.5,407,218.6,407,218.7z"/>
		</g>
		<g>
			<path class="st25" d="M420.4,329.7c0,0.1-0.7,0.7-2,1.6c-0.7,0.4-1.5,0.9-2.6,1.1c-1,0.3-2.3,0.3-3.5-0.1
				c-2.4-0.8-3.9-2.6-4.8-3.8c-0.9-1.3-1.4-2.1-1.3-2.2c0.1-0.1,0.7,0.7,1.6,1.9c1,1.2,2.5,2.8,4.7,3.5c2.2,0.7,4.3-0.1,5.6-0.8
				C419.6,330.2,420.4,329.6,420.4,329.7z"/>
		</g>
		<g>
			<path class="st25" d="M411.8,336.3c-0.1,0.1-1.7-1.9-3.6-4.5c-1.8-2.6-3.2-4.7-3.1-4.8c0.1-0.1,1.7,1.9,3.6,4.5
				C410.6,334,412,336.2,411.8,336.3z"/>
		</g>
	</g>
</g>
</svg>
