<svg xmlns="http://www.w3.org/2000/svg" width="471.636" height="366.486" viewBox="0 0 471.636 366.486">
  <g id="arka-cta-ecommerce" transform="translate(-108.12 -31.514)">
    <path id="Path_3284" data-name="Path 3284" d="M396.289,396.033s90.566,2.954,80.722,25.6-68.662,28.973-117.046,38.1-112.414,9.217-123.242-4.564-108.195,14.7-116.07-5.973-154.114-30.553-80.994-64.5S383.492,346.813,396.289,396.033Z" transform="translate(88.873 -68.122)" fill="#f0f7fb"/>
    <g id="Group_1745" data-name="Group 1745" transform="translate(94.303 -48.242)">
      <g id="Group_1744" data-name="Group 1744">
        <g id="Group_1671" data-name="Group 1671">
          <path id="Path_3226" data-name="Path 3226" d="M448.194,397.784s9.907-165.272-18.559-171.161c-10.2-2.111,14.39-21.121.161.171-8.4-26.632-16.015-48.328-21.088-57.673-18.651-34.357-53.007,39.264-88.212,95.215S304.658,116.114,245.761,97.463,165.27,306.545,127.969,277.1s-9.593,89.986-47.876,53.666-43.306,67.021-43.306,67.021l316.951-6.821,57.914,14.724,39.636.346s-1.127-.895-3.094-8.249Z" fill="#d8e9f4"/>
        </g>
        <g id="Group_1743" data-name="Group 1743">
          <path id="Path_3227" data-name="Path 3227" d="M31.772,306.545s-8.834-92.271,56.933-100.124,16.687,79.51-8.834,26.5,47.116-122.7,91.289-87.363c0,0,113.866,95.216,150.676,17.669s79.019-87.363,94.724-75.583" fill="none" stroke="#bad8eb" stroke-miterlimit="10" stroke-width="0.982" stroke-dasharray="3.926"/>
          <g id="Group_1674" data-name="Group 1674">
            <g id="Group_1672" data-name="Group 1672">
              <path id="Path_3228" data-name="Path 3228" d="M236.916,223.062s23.318-66.355-25.183-62.624S193.079,212,184.684,223.062s-24.25.133-46.635,0S105.4,273.3,147.376,283.555s9.327,21.452-12.125,16.789-41.039,29.847,11.2,54.1c34.709,16.113,78.832,20.563,114.705,5.386,12.219-5.17,51.041-27.986,34.229-45.638-9.1-9.551-39.634-3.228-27.23-25,3.134-5.5,8.519-9.354,14.113-12.314,12.24-6.479,28.843-9.382,26.33-26.714-4.176-28.8-47.423-24.213-67.016-20.707Z" fill="none" stroke="#dd4c65" stroke-miterlimit="10" stroke-width="0.982"/>
              <line id="Line_13" data-name="Line 13" y2="210.493" transform="translate(218.1 194.721)" fill="none" stroke="#37424f" stroke-miterlimit="10" stroke-width="1.964"/>
            </g>
            <g id="Group_1673" data-name="Group 1673">
              <path id="Path_3229" data-name="Path 3229" d="M398.181,192.23s19.157-54.516-20.69-51.451-15.326,42.364-22.223,51.451-19.923.109-38.314,0-26.821,41.27,7.663,49.7,7.663,17.624-9.962,13.793-33.717,24.521,9.2,44.447c28.516,13.238,64.767,16.894,94.24,4.424,10.038-4.246,41.934-22.992,28.122-37.495-7.473-7.847-32.563-2.652-22.372-20.538,2.575-4.518,7-7.684,11.6-10.117,10.056-5.322,23.7-7.708,21.632-21.947-3.431-23.662-38.961-19.893-55.059-17.013Z" fill="none" stroke="#f2b468" stroke-miterlimit="10" stroke-width="0.982"/>
              <line id="Line_14" data-name="Line 14" y2="172.937" transform="translate(382.723 168.945)" fill="none" stroke="#37424f" stroke-miterlimit="10" stroke-width="1.614"/>
            </g>
          </g>
          <g id="Group_1676" data-name="Group 1676">
            <rect id="Rectangle_1249" data-name="Rectangle 1249" width="127.722" height="73.197" rx="5.011" transform="translate(357.732 203.254)" fill="#4dc7b8"/>
            <g id="Group_1675" data-name="Group 1675">
              <rect id="Rectangle_1250" data-name="Rectangle 1250" width="29.769" height="17.958" rx="4.694" transform="translate(364.942 230.874)" fill="#f2c998"/>
              <line id="Line_15" data-name="Line 15" y2="17.958" transform="translate(371.336 230.874)" fill="none" stroke="#f2e4d3" stroke-miterlimit="10" stroke-width="0.342"/>
              <line id="Line_16" data-name="Line 16" y2="17.958" transform="translate(387.374 230.874)" fill="none" stroke="#f2e4d3" stroke-miterlimit="10" stroke-width="0.342"/>
              <line id="Line_17" data-name="Line 17" x2="29.769" transform="translate(364.942 236.044)" fill="none" stroke="#f2e4d3" stroke-miterlimit="10" stroke-width="0.342"/>
              <line id="Line_18" data-name="Line 18" x2="29.769" transform="translate(364.942 243.676)" fill="none" stroke="#f2e4d3" stroke-miterlimit="10" stroke-width="0.342"/>
            </g>
            <text id="_123_456_789_000_123" data-name="123 456 789 000 123" transform="translate(374.912 264.17)" fill="#fff" font-size="10.877" font-family="SegoeUI, Segoe UI"><tspan x="0" y="0">123 456 789 000 123</tspan></text>
            <text id="BANK" transform="translate(439.721 225.961)" fill="#fff" font-size="14.723" font-family="Raleway-Medium, Raleway" font-weight="500"><tspan x="0" y="0">BANK</tspan></text>
            <rect id="Rectangle_1251" data-name="Rectangle 1251" width="62.643" height="3.708" transform="translate(405.313 233.853)" fill="none" stroke="#3d9e92" stroke-miterlimit="10" stroke-width="0.342"/>
            <rect id="Rectangle_1252" data-name="Rectangle 1252" width="38.637" height="3.708" transform="translate(405.313 241.533)" fill="none" stroke="#3d9e92" stroke-miterlimit="10" stroke-width="0.269"/>
            <rect id="Rectangle_1253" data-name="Rectangle 1253" width="61.873" height="8.286" transform="translate(368.087 214.64)" fill="#3d9e92"/>
          </g>
          <g id="Group_1680" data-name="Group 1680">
            <g id="Group_1677" data-name="Group 1677">
              <rect id="Rectangle_1254" data-name="Rectangle 1254" width="32.646" height="45.202" transform="translate(79.386 350.669)" fill="#f2c38a"/>
              <rect id="Rectangle_1255" data-name="Rectangle 1255" width="32.646" height="45.202" transform="translate(112.032 350.669)" fill="#f2b468"/>
              <rect id="Rectangle_1256" data-name="Rectangle 1256" width="7.323" height="45.202" transform="translate(92.2 350.669)" fill="#f2b468"/>
              <rect id="Rectangle_1257" data-name="Rectangle 1257" width="7.323" height="45.202" transform="translate(125.151 350.669)" fill="#f2c38a"/>
            </g>
            <g id="Group_1678" data-name="Group 1678">
              <rect id="Rectangle_1258" data-name="Rectangle 1258" width="32.691" height="75.583" transform="translate(125.336 320.287)" fill="#dd4c65"/>
              <rect id="Rectangle_1259" data-name="Rectangle 1259" width="32.691" height="75.583" transform="translate(154.226 320.287)" fill="#dd314e"/>
            </g>
            <g id="Group_1679" data-name="Group 1679">
              <rect id="Rectangle_1260" data-name="Rectangle 1260" width="26.18" height="33.375" transform="translate(36.68 364.46)" fill="#4dc7b8"/>
              <rect id="Rectangle_1261" data-name="Rectangle 1261" width="26.18" height="33.375" transform="translate(59.815 364.46)" fill="#2ea394"/>
            </g>
          </g>
          <g id="Group_1700" data-name="Group 1700">
            <rect id="Rectangle_1262" data-name="Rectangle 1262" width="149.204" height="268.959" rx="11.043" transform="translate(225.639 135.255)" fill="#131a36"/>
            <g id="Group_1699" data-name="Group 1699">
              <rect id="Rectangle_1263" data-name="Rectangle 1263" width="249.327" height="142.332" rx="1.286" transform="translate(371.407 145.071) rotate(90)" fill="#fff"/>
              <g id="Group_1698" data-name="Group 1698">
                <g id="Group_1681" data-name="Group 1681">
                  <path id="Path_3230" data-name="Path 3230" d="M368.462,229H300.731a.981.981,0,0,1-.981-.981h0a.982.982,0,0,1,.981-.982h67.731a.982.982,0,0,1,.981.982h0A.981.981,0,0,1,368.462,229Z" fill="#bad8eb"/>
                  <rect id="Rectangle_1264" data-name="Rectangle 1264" width="53.988" height="1.963" rx="0.864" transform="translate(299.75 232.925)" fill="#bad8eb"/>
                  <path id="Path_3231" data-name="Path 3231" d="M368.462,244.7H300.731a.981.981,0,0,1-.981-.982h0a.981.981,0,0,1,.981-.981h67.731a.981.981,0,0,1,.981.981h0A.981.981,0,0,1,368.462,244.7Z" fill="#bad8eb"/>
                  <rect id="Rectangle_1265" data-name="Rectangle 1265" width="53.988" height="1.963" rx="0.864" transform="translate(299.75 248.63)" fill="#bad8eb"/>
                </g>
                <g id="Group_1682" data-name="Group 1682">
                  <path id="Path_3232" data-name="Path 3232" d="M360.118,163.231H236.436a2.454,2.454,0,0,1-2.454-2.454h0a2.454,2.454,0,0,1,2.454-2.454H360.118a2.454,2.454,0,0,1,2.454,2.454h0A2.454,2.454,0,0,1,360.118,163.231Z" fill="none" stroke="#bad8eb" stroke-miterlimit="10" stroke-width="0.982"/>
                  <path id="Path_3233" data-name="Path 3233" d="M360.118,174.029H236.436a2.455,2.455,0,0,1-2.454-2.455h0a2.454,2.454,0,0,1,2.454-2.453H360.118a2.454,2.454,0,0,1,2.454,2.453h0A2.455,2.455,0,0,1,360.118,174.029Z" fill="#bad8eb"/>
                </g>
                <g id="Group_1689" data-name="Group 1689">
                  <rect id="Rectangle_1266" data-name="Rectangle 1266" width="133.498" height="50.062" transform="translate(233.982 264.336)" fill="none" stroke="#bad8eb" stroke-miterlimit="10" stroke-width="0.982"/>
                  <g id="Group_1686" data-name="Group 1686">
                    <g id="Group_1683" data-name="Group 1683">
                      <path id="Path_3234" data-name="Path 3234" d="M300.24,269.735H239.381a.982.982,0,0,1-.982-.982h0a.982.982,0,0,1,.982-.981H300.24a.981.981,0,0,1,.982.981h0A.982.982,0,0,1,300.24,269.735Z" fill="#bad8eb"/>
                      <rect id="Rectangle_1267" data-name="Rectangle 1267" width="42.209" height="1.963" rx="0.805" transform="translate(238.89 274.152)" fill="#bad8eb"/>
                    </g>
                    <g id="Group_1684" data-name="Group 1684">
                      <path id="Path_3235" data-name="Path 3235" d="M300.24,284.459H239.381a.982.982,0,0,1-.982-.982h0a.982.982,0,0,1,.982-.981H300.24a.981.981,0,0,1,.982.981h0A.982.982,0,0,1,300.24,284.459Z" fill="#bad8eb"/>
                      <rect id="Rectangle_1268" data-name="Rectangle 1268" width="42.209" height="1.963" rx="0.805" transform="translate(238.89 288.876)" fill="#bad8eb"/>
                    </g>
                    <g id="Group_1685" data-name="Group 1685">
                      <path id="Path_3236" data-name="Path 3236" d="M300.24,300.165H239.381a.982.982,0,0,1-.982-.982h0a.982.982,0,0,1,.982-.982H300.24a.982.982,0,0,1,.982.982h0A.982.982,0,0,1,300.24,300.165Z" fill="#bad8eb"/>
                      <rect id="Rectangle_1269" data-name="Rectangle 1269" width="42.209" height="1.963" rx="0.805" transform="translate(238.89 304.582)" fill="#bad8eb"/>
                    </g>
                  </g>
                  <g id="Group_1687" data-name="Group 1687">
                    <rect id="Rectangle_1270" data-name="Rectangle 1270" width="18.65" height="14.724" transform="translate(312.51 269.244)" fill="#dd4c65"/>
                    <path id="Path_3237" data-name="Path 3237" d="M331.161,296.729H312.51a1.963,1.963,0,0,1-1.963-1.963h0a1.963,1.963,0,0,1,1.963-1.964h18.651a1.963,1.963,0,0,1,1.963,1.964h0A1.963,1.963,0,0,1,331.161,296.729Z" fill="#bad8eb"/>
                  </g>
                  <g id="Group_1688" data-name="Group 1688">
                    <rect id="Rectangle_1271" data-name="Rectangle 1271" width="18.65" height="14.724" transform="translate(340.977 269.244)" fill="#f2b468"/>
                    <path id="Path_3238" data-name="Path 3238" d="M359.627,296.729h-18.65a1.963,1.963,0,0,1-1.963-1.963h0a1.963,1.963,0,0,1,1.963-1.964h18.65a1.964,1.964,0,0,1,1.964,1.964h0A1.963,1.963,0,0,1,359.627,296.729Z" fill="#bad8eb"/>
                  </g>
                </g>
                <g id="Group_1696" data-name="Group 1696">
                  <g id="Group_1690" data-name="Group 1690">
                    <rect id="Rectangle_1272" data-name="Rectangle 1272" width="23.068" height="1.759" rx="0.563" transform="translate(238.399 372.738)" fill="#bad8eb"/>
                    <path id="Rectangle_1273" data-name="Rectangle 1273" d="M.461,0H15.037A.461.461,0,0,1,15.5.461V1.3a.462.462,0,0,1-.462.462H.462A.462.462,0,0,1,0,1.3V.461A.461.461,0,0,1,.461,0Z" transform="translate(238.58 378.455)" fill="#bad8eb"/>
                  </g>
                  <g id="Group_1691" data-name="Group 1691">
                    <rect id="Rectangle_1274" data-name="Rectangle 1274" width="23.068" height="1.759" rx="0.563" transform="translate(285.516 372.738)" fill="#bad8eb"/>
                    <path id="Rectangle_1275" data-name="Rectangle 1275" d="M.461,0H15.037A.462.462,0,0,1,15.5.462V1.3a.462.462,0,0,1-.462.462H.461A.461.461,0,0,1,0,1.3V.461A.461.461,0,0,1,.461,0Z" transform="translate(285.697 378.455)" fill="#bad8eb"/>
                  </g>
                  <g id="Group_1692" data-name="Group 1692">
                    <rect id="Rectangle_1276" data-name="Rectangle 1276" width="23.068" height="1.759" rx="0.563" transform="translate(332.633 372.738)" fill="#bad8eb"/>
                    <rect id="Rectangle_1277" data-name="Rectangle 1277" width="15.499" height="1.759" rx="0.462" transform="translate(332.813 378.455)" fill="#bad8eb"/>
                  </g>
                  <g id="Group_1693" data-name="Group 1693">
                    <rect id="Rectangle_1278" data-name="Rectangle 1278" width="38.282" height="38.283" rx="2.975" transform="translate(233.982 326.177)" fill="none" stroke="#dd4c65" stroke-miterlimit="10" stroke-width="0.798"/>
                    <path id="Rectangle_1279" data-name="Rectangle 1279" d="M.634,0H14.52a.633.633,0,0,1,.633.633V3.753a.633.633,0,0,1-.633.633H.633A.633.633,0,0,1,0,3.753V.634A.634.634,0,0,1,.634,0Z" transform="translate(245.547 344.122)" fill="none" stroke="#dd4c65" stroke-miterlimit="10" stroke-width="0.798"/>
                  </g>
                  <g id="Group_1694" data-name="Group 1694">
                    <rect id="Rectangle_1280" data-name="Rectangle 1280" width="38.282" height="38.283" rx="2.975" transform="translate(284.228 326.177)" fill="none" stroke="#f2b468" stroke-miterlimit="10" stroke-width="0.798"/>
                    <path id="Rectangle_1281" data-name="Rectangle 1281" d="M.634,0H14.52a.634.634,0,0,1,.634.634V3.753a.633.633,0,0,1-.633.633H.634A.634.634,0,0,1,0,3.753V.634A.634.634,0,0,1,.634,0Z" transform="translate(295.793 344.122)" fill="none" stroke="#f2b468" stroke-miterlimit="10" stroke-width="0.798"/>
                  </g>
                  <g id="Group_1695" data-name="Group 1695">
                    <rect id="Rectangle_1282" data-name="Rectangle 1282" width="38.282" height="38.283" rx="2.975" transform="translate(330.486 326.177)" fill="none" stroke="#4dc7b8" stroke-miterlimit="10" stroke-width="0.798"/>
                    <path id="Rectangle_1283" data-name="Rectangle 1283" d="M.634,0H14.52a.634.634,0,0,1,.634.634V3.753a.633.633,0,0,1-.633.633H.634A.634.634,0,0,1,0,3.753V.634A.634.634,0,0,1,.634,0Z" transform="translate(342.051 344.122)" fill="none" stroke="#4dc7b8" stroke-miterlimit="10" stroke-width="0.798"/>
                  </g>
                </g>
                <g id="Group_1697" data-name="Group 1697">
                  <text id="_50_" data-name="50% " transform="translate(312.756 205.14)" fill="#dd4c65" font-size="22.706" font-family="SegoeUI, Segoe UI"><tspan x="0" y="0">50% </tspan></text>
                  <text id="DISCOUNT" transform="translate(304.32 220.885)" fill="#141829" font-size="12.221" font-family="Raleway-Bold, Raleway" font-weight="700"><tspan x="0" y="0">DISCOUNT</tspan></text>
                  <rect id="Rectangle_1284" data-name="Rectangle 1284" width="65.767" height="38.283" transform="translate(301.713 186.789)" fill="none" stroke="#2c3540" stroke-miterlimit="10" stroke-width="0.982"/>
                </g>
              </g>
            </g>
            <path id="Path_3239" data-name="Path 3239" d="M322.326,150.47H275.21a4.908,4.908,0,0,1-4.909-4.908h0a4.908,4.908,0,0,1,4.909-4.908h47.116a4.908,4.908,0,0,1,4.908,4.908h0A4.908,4.908,0,0,1,322.326,150.47Z" fill="#131a36"/>
          </g>
          <g id="Group_1703" data-name="Group 1703">
            <g id="Group_1701" data-name="Group 1701">
              <path id="Path_3240" data-name="Path 3240" d="M262.711,255.662H194.718V186.789h82.807Z" fill="#f2c38a"/>
            </g>
            <g id="Group_1702" data-name="Group 1702">
              <path id="Path_3241" data-name="Path 3241" d="M296.663,250.111l-33.952,5.55V186.789h33.952Z" fill="#f2b468"/>
            </g>
          </g>
          <g id="Group_1709" data-name="Group 1709">
            <g id="Group_1704" data-name="Group 1704">
              <rect id="Rectangle_1285" data-name="Rectangle 1285" width="42.445" height="56.264" transform="translate(116.487 303.979)" fill="#4dc7b8"/>
              <rect id="Rectangle_1286" data-name="Rectangle 1286" width="10.858" height="54.29" transform="translate(132.28 303.979)" fill="#a8e4dc"/>
            </g>
            <g id="Group_1705" data-name="Group 1705">
              <rect id="Rectangle_1287" data-name="Rectangle 1287" width="29.613" height="48.368" transform="translate(167.816 277.328)" fill="#4dc7b8"/>
              <rect id="Rectangle_1288" data-name="Rectangle 1288" width="10.858" height="48.368" transform="translate(176.7 277.328)" fill="#a8e4dc"/>
            </g>
            <g id="Group_1706" data-name="Group 1706">
              <rect id="Rectangle_1289" data-name="Rectangle 1289" width="62.187" height="32.574" transform="translate(137.216 325.695)" fill="#f2c38a"/>
              <rect id="Rectangle_1290" data-name="Rectangle 1290" width="9.871" height="32.574" transform="translate(162.88 325.695)" fill="#fbebd7"/>
            </g>
            <path id="Path_3242" data-name="Path 3242" d="M86.38,291.394h5.338a11.55,11.55,0,0,1,11.326,9.284l11.715,58.578v18.2a10.178,10.178,0,0,0,10.178,10.178h73.725" fill="none" stroke="#5b7a87" stroke-linecap="round" stroke-linejoin="round" stroke-width="3.948"/>
            <path id="Path_3243" data-name="Path 3243" d="M105.629,311.136H212.235l-16.04,49.355H114.759" fill="none" stroke="#5b7a87" stroke-linecap="round" stroke-linejoin="round" stroke-width="3.948"/>
            <line id="Line_19" data-name="Line 19" x2="5.109" y2="49.355" transform="translate(129.291 311.136)" fill="none" stroke="#5b7a87" stroke-linecap="round" stroke-linejoin="round" stroke-width="1.974"/>
            <line id="Line_20" data-name="Line 20" x1="5.96" y2="49.355" transform="translate(175.556 311.136)" fill="none" stroke="#5b7a87" stroke-linecap="round" stroke-linejoin="round" stroke-width="1.974"/>
            <line id="Line_21" data-name="Line 21" y2="49.355" transform="translate(156.823 311.136)" fill="none" stroke="#5b7a87" stroke-linecap="round" stroke-linejoin="round" stroke-width="1.974"/>
            <g id="Group_1707" data-name="Group 1707">
              <circle id="Ellipse_93" data-name="Ellipse 93" cx="9.871" cy="9.871" r="9.871" transform="translate(123.256 390.844) rotate(-45)" fill="#5b7a87"/>
              <circle id="Ellipse_94" data-name="Ellipse 94" cx="7.897" cy="7.897" r="7.897" transform="translate(126.889 386.591) rotate(-22.615)" fill="#fff"/>
              <path id="Path_3244" data-name="Path 3244" d="M142.151,390.844a4.936,4.936,0,1,1-4.935-4.936A4.936,4.936,0,0,1,142.151,390.844Z" fill="#5b7a87"/>
            </g>
            <g id="Group_1708" data-name="Group 1708">
              <circle id="Ellipse_95" data-name="Ellipse 95" cx="9.871" cy="9.871" r="9.871" transform="translate(164.714 390.844) rotate(-45)" fill="#5b7a87"/>
              <circle id="Ellipse_96" data-name="Ellipse 96" cx="7.897" cy="7.897" r="7.897" transform="matrix(0.657, -0.754, 0.754, 0.657, 167.532, 391.605)" fill="#fff"/>
              <path id="Path_3245" data-name="Path 3245" d="M183.609,390.844a4.935,4.935,0,1,1-4.935-4.936A4.936,4.936,0,0,1,183.609,390.844Z" fill="#5b7a87"/>
            </g>
            <line id="Line_22" data-name="Line 22" x2="98.42" transform="translate(108.442 327.669)" fill="none" stroke="#5b7a87" stroke-linecap="round" stroke-linejoin="round" stroke-width="1.974"/>
            <line id="Line_23" data-name="Line 23" x2="88.839" transform="translate(112.045 345.437)" fill="none" stroke="#5b7a87" stroke-linecap="round" stroke-linejoin="round" stroke-width="1.974"/>
            <path id="Path_3246" data-name="Path 3246" d="M88.354,296.082H71.574a4.442,4.442,0,0,1-4.442-4.442h0a4.442,4.442,0,0,1,4.442-4.442h16.78A4.442,4.442,0,0,1,92.8,291.64h0A4.441,4.441,0,0,1,88.354,296.082Z" fill="#5b7a87"/>
          </g>
          <g id="Group_1711" data-name="Group 1711">
            <g id="Group_1710" data-name="Group 1710">
              <rect id="Rectangle_1291" data-name="Rectangle 1291" width="32.646" height="45.202" transform="translate(330.676 360.485)" fill="#f2c38a"/>
              <rect id="Rectangle_1292" data-name="Rectangle 1292" width="32.646" height="45.202" transform="translate(363.322 360.485)" fill="#f2b468"/>
              <rect id="Rectangle_1293" data-name="Rectangle 1293" width="7.323" height="45.202" transform="translate(343.49 360.485)" fill="#f2b468"/>
              <rect id="Rectangle_1294" data-name="Rectangle 1294" width="7.322" height="45.202" transform="translate(376.442 360.485)" fill="#f2c38a"/>
            </g>
            <rect id="Rectangle_1295" data-name="Rectangle 1295" width="32.691" height="75.583" transform="translate(376.627 330.103)" fill="#dd4c65"/>
            <rect id="Rectangle_1296" data-name="Rectangle 1296" width="32.691" height="75.583" transform="translate(405.517 330.103)" fill="#dd314e"/>
          </g>
          <rect id="Rectangle_1297" data-name="Rectangle 1297" width="25.522" height="68.712" transform="translate(213.369 186.789)" fill="#f2b468"/>
          <path id="Path_3247" data-name="Path 3247" d="M290.915,250.594l-18.651,3.926V186.789h18.651Z" fill="#f2c38a"/>
          <g id="Group_1728" data-name="Group 1728">
            <g id="Group_1727" data-name="Group 1727">
              <g id="Group_1714" data-name="Group 1714">
                <g id="Group_1713" data-name="Group 1713">
                  <path id="Path_3248" data-name="Path 3248" d="M273.245,289.845c-4.54-5.82-11.354-13.418-17.477-15.688l-17.033-17.163a12.046,12.046,0,0,0-1.425-4.626s-.793.339-.559,1.622-3.206-1.612-5.409-4.108-1.055,8.483,4.6,9.777l14.24,18.264s8.116,12.8,16.066,18.985C270.892,300.523,276.865,294.486,273.245,289.845Z" fill="#e8b3a0"/>
                  <g id="Group_1712" data-name="Group 1712">
                    <path id="Path_3249" data-name="Path 3249" d="M265.812,280.257c.3-.052,19.251,8.294,10.157,17.489-8.851,8.95-18.5-9.62-18.5-9.62Z" fill="#4dc7b8"/>
                    <line id="Line_24" data-name="Line 24" x1="9.263" y2="8.996" transform="translate(258.477 281.016)" fill="none" stroke="#fff" stroke-miterlimit="10" stroke-width="0.352"/>
                  </g>
                </g>
                <path id="Path_3250" data-name="Path 3250" d="M271.7,283.168c3.528,2.8,8.2,10.6,4.267,14.578a6.816,6.816,0,0,1-8.174,1.491" fill="none" stroke="#fff" stroke-miterlimit="10" stroke-width="0.352"/>
              </g>
              <g id="Group_1718" data-name="Group 1718">
                <g id="Group_1715" data-name="Group 1715">
                  <rect id="Rectangle_1298" data-name="Rectangle 1298" width="10.045" height="13.354" transform="translate(261.46 273.836) rotate(-15.077)" fill="#ebbda0"/>
                  <path id="Path_3251" data-name="Path 3251" d="M261.46,273.836l.205.762,1.627,6.04s5.582-4.312,5.881-6.8S261.46,273.836,261.46,273.836Z" fill="#db9680"/>
                </g>
                <path id="Path_3252" data-name="Path 3252" d="M261.561,248.226s-7.966,6.638-12.834,8.851c0,0-.442,1.622,2.656,2.8,0,0,.062,12.526,6.2,15.181s13.581-3.837,13.581-3.837,10.617-11.98,7.224-20.15S269.085,246.6,261.561,248.226Z" fill="#ebbda0"/>
                <g id="Group_1716" data-name="Group 1716">
                  <path id="Path_3253" data-name="Path 3253" d="M258.651,256.066c-.36.727-.995,1.147-1.418.937s-.473-.968-.113-1.695.995-1.147,1.418-.938S259.012,255.339,258.651,256.066Z" fill="#060e33"/>
                  <path id="Path_3254" data-name="Path 3254" d="M257.578,251.074s2.529.615,2.461,2.528" fill="none" stroke="#060e33" stroke-linecap="round" stroke-linejoin="round" stroke-width="0.757"/>
                  <path id="Path_3255" data-name="Path 3255" d="M254.468,265.113s.069,1.572,2.119,1.5,2.051-1.5,2.051-1.5" fill="none" stroke="#060e33" stroke-linecap="round" stroke-linejoin="round" stroke-width="0.757"/>
                </g>
                <g id="Group_1717" data-name="Group 1717">
                  <path id="Path_3256" data-name="Path 3256" d="M260.824,248.521s-3.018,8.541,3.915,10.9,8.428,10.5,5.33,13.307,22.338-15.654,1.081-28.93c0,0-12.539,0-13.129,7.229Z" fill="#37424f"/>
                  <path id="Path_3257" data-name="Path 3257" d="M269.173,273.836s20.484-5.127,11.979-22.346c-7.059-14.29-17.639-6.367-17.639-6.367S275.478,264.505,269.173,273.836Z" fill="#37424f"/>
                </g>
              </g>
              <g id="Group_1721" data-name="Group 1721">
                <g id="Group_1719" data-name="Group 1719">
                  <path id="Path_3258" data-name="Path 3258" d="M289.18,407.653l-10.224,4.928a.98.98,0,0,0,.425,1.863h9.086a.98.98,0,0,0,.677-.271l.84-.8v1.374h3.988a.98.98,0,0,0,.961-1.173l-1.143-5.717a.981.981,0,0,0-1.109-.777l-3.222.488A.941.941,0,0,0,289.18,407.653Z" fill="#4dc7b8"/>
                  <path id="Path_3259" data-name="Path 3259" d="M282.408,320.264s11.728,23.97,2.72,49.483c0,0,9.514,24.791,8.478,37.192l-4.545.8-16.175-37.171-3.7-41.213Z" fill="#272f38"/>
                </g>
                <g id="Group_1720" data-name="Group 1720">
                  <path id="Path_3260" data-name="Path 3260" d="M260.9,408.346l-10.088,4.862a1.049,1.049,0,0,0,.456,1.994h9.179l1.124-1.073V415.5h5.184l-1.912-6.9Z" fill="#4dc7b8"/>
                  <path id="Path_3261" data-name="Path 3261" d="M282.408,320.264s2.168,11.737-16.779,49.925c0,0,2.417,12.788-.781,38.416H261l-8.19-35.931,6-49.8Z" fill="#37424f"/>
                </g>
              </g>
              <g id="Group_1726" data-name="Group 1726">
                <g id="Group_1722" data-name="Group 1722">
                  <path id="Path_3262" data-name="Path 3262" d="M263.42,281.115,249.1,334.162s30.191,7.6,41.946.1l-17.219-53.144Z" fill="#4dc7b8"/>
                </g>
                <g id="Group_1725" data-name="Group 1725">
                  <g id="Group_1724" data-name="Group 1724">
                    <path id="Path_3263" data-name="Path 3263" d="M264.41,289.845c-4.539-5.82-11.353-13.418-17.477-15.688L229.9,256.994a12.046,12.046,0,0,0-1.425-4.626s-.794.339-.559,1.622-3.206-1.612-5.41-4.108-1.055,8.483,4.6,9.777l14.241,18.264s8.115,12.8,16.065,18.985C262.058,300.523,268.03,294.486,264.41,289.845Z" fill="#e8b3a0"/>
                    <g id="Group_1723" data-name="Group 1723">
                      <path id="Path_3264" data-name="Path 3264" d="M256.978,280.257c.3-.052,19.251,8.294,10.157,17.489-8.852,8.95-18.5-9.62-18.5-9.62Z" fill="#4dc7b8"/>
                      <line id="Line_25" data-name="Line 25" x1="9.263" y2="8.996" transform="translate(249.642 281.016)" fill="none" stroke="#fff" stroke-miterlimit="10" stroke-width="0.352"/>
                    </g>
                  </g>
                  <path id="Path_3265" data-name="Path 3265" d="M262.867,283.168c3.529,2.8,8.2,10.6,4.268,14.578a6.816,6.816,0,0,1-8.174,1.491" fill="none" stroke="#fff" stroke-miterlimit="10" stroke-width="0.352"/>
                </g>
              </g>
            </g>
            <path id="Path_3266" data-name="Path 3266" d="M266.375,243.722s18.651-2.944,20.614,7.853-9.816,14.724-4.908,24.54,8.834,38.283-4.908,34.356-9.337-37.643-3.2-42.871S279.136,244.7,266.375,243.722Z" fill="#37424f"/>
          </g>
          <g id="Group_1737" data-name="Group 1737">
            <g id="Group_1736" data-name="Group 1736">
              <path id="Path_3267" data-name="Path 3267" d="M437.658,285.75l-15.8,4.719s-22.3-9.936-22.873-9.6-4.9-5.992-5.272-6.148-7.552.32-5.516,6.556,9.025,3.789,9.025,3.789l19.326,15.13a5.17,5.17,0,0,0,4.278.984L440.206,297Z" fill="#e8b3a0"/>
              <g id="Group_1729" data-name="Group 1729">
                <path id="Path_3268" data-name="Path 3268" d="M432.059,327.674s-9.943,19.887-14.622,38.311l5.849,39.482h4.972s7.9-26.705.292-38.9c0,0,27.783-14.33,32.462-40.359Z" fill="#37424f"/>
                <path id="Path_3269" data-name="Path 3269" d="M423.286,405.467s-17.307,7.091-11.6,7.091h16.252l.316-7.091Z" fill="#131a36"/>
              </g>
              <g id="Group_1730" data-name="Group 1730">
                <path id="Path_3270" data-name="Path 3270" d="M461.012,326.211l-9.944,79.255H446.39l-4.972-55.274Z" fill="#2c3540"/>
                <path id="Path_3271" data-name="Path 3271" d="M446.243,405.467s-13.737,7.091-11.6,7.091H450.9l.316-7.091Z" fill="#131a36"/>
              </g>
              <g id="Group_1731" data-name="Group 1731">
                <path id="Path_3272" data-name="Path 3272" d="M454.786,268.809s8.046,22.816,12.337,57.4c0,0-28.7,9.666-41.569,0l4.827-21.2s-7.4-7.509-10.407-16.091l23.574-18.505S450.495,275.782,454.786,268.809Z" fill="#f2b468"/>
                <path id="Path_3273" data-name="Path 3273" d="M430.381,305.014s11.488.268,15.533-16.9" fill="none" stroke="#fff" stroke-miterlimit="10" stroke-width="0.717"/>
                <line id="Line_26" data-name="Line 26" y2="21.992" transform="translate(444.997 301.796)" fill="none" stroke="#fff" stroke-miterlimit="10" stroke-width="0.717"/>
                <path id="Path_3274" data-name="Path 3274" d="M423.22,286.375s4.606,12.458,13.192,16.755" fill="none" stroke="#fff" stroke-miterlimit="10" stroke-width="0.717"/>
              </g>
              <g id="Group_1735" data-name="Group 1735">
                <g id="Group_1732" data-name="Group 1732">
                  <path id="Path_3275" data-name="Path 3275" d="M442.946,265.855l10.6-11.407,1.813,15.968s-6.923,4.452-12.416,1.089Z" fill="#e8b3a0"/>
                  <path id="Path_3276" data-name="Path 3276" d="M454.238,260.522s-4.32,9.45-11.292,8.867v-4.421l10.691-9.808Z" fill="#e89b80"/>
                </g>
                <g id="Group_1734" data-name="Group 1734">
                  <path id="Path_3277" data-name="Path 3277" d="M435.132,239.72s-1.38.531-1.168,8.066c0,0-2.547,2.76-4.245,4.351s2.229,2.441,2.229,2.441.849,13.615,9.021,12.167,10.3-10.893,10.3-10.893a4.683,4.683,0,0,0,2.122-5.625c-1.167-3.927-4.033,0-4.033,0l.425-9.552S442.985,233.671,435.132,239.72Z" fill="#e8b3a0"/>
                  <g id="Group_1733" data-name="Group 1733">
                    <path id="Path_3278" data-name="Path 3278" d="M434.495,259.248s5.556,2.017,6.97-2.759" fill="none" stroke="#37424f" stroke-linecap="round" stroke-linejoin="round" stroke-width="0.717"/>
                    <path id="Path_3279" data-name="Path 3279" d="M436.724,247.415c0,.85-.333,1.538-.743,1.538s-.743-.688-.743-1.538.333-1.539.743-1.539S436.724,246.565,436.724,247.415Z" fill="#37424f"/>
                    <path id="Path_3280" data-name="Path 3280" d="M436.724,243.01s3.5.212,3.608,2.866" fill="none" stroke="#37424f" stroke-linecap="round" stroke-linejoin="round" stroke-width="1.076"/>
                  </g>
                </g>
              </g>
            </g>
            <path id="Path_3281" data-name="Path 3281" d="M441.1,239.8s-10.8,5.889-11.779.982,11.011-3.4,11.011-3.4-11.011-.525-8.066-4.451,10.8,1.963,10.8,1.963-.982-8.834,3.926-5.89a9.792,9.792,0,0,1,4.908,7.853s6.871-3.926,5.89,5.89-6.663,14.724-6.663,14.724l-.209-1.963s3.69-3.281,1.845-6.549c0,0-.863-1.3-3.808,1.641,0,0-3.926,1.963-2.945-7.853C446.008,242.741,437.174,249.612,441.1,239.8Z" fill="#37424f"/>
          </g>
          <g id="Group_1742" data-name="Group 1742">
            <g id="Group_1738" data-name="Group 1738">
              <path id="Path_3282" data-name="Path 3282" d="M158.4,172.065a16.688,16.688,0,1,1-16.688-16.687A16.688,16.688,0,0,1,158.4,172.065Z" fill="none" stroke="#dd4c65" stroke-miterlimit="10" stroke-width="1.777"/>
              <text id="_" data-name="$" transform="translate(132.941 180.834)" fill="#dd4c65" font-size="27.926" font-family="Raleway-Bold, Raleway" font-weight="700"><tspan x="0" y="0">$</tspan></text>
            </g>
            <g id="Group_1739" data-name="Group 1739">
              <circle id="Ellipse_97" data-name="Ellipse 97" cx="17.386" cy="17.386" r="17.386" transform="translate(16.696 317.3) rotate(-31.717)" fill="none" stroke="#f2a952" stroke-miterlimit="10" stroke-width="1.852"/>
              <text id="_2" data-name="%" transform="translate(31.488 332.084)" fill="#f2a952" font-size="29.095" font-family="Raleway-Bold, Raleway" font-weight="700"><tspan x="0" y="0">%</tspan></text>
            </g>
            <g id="Group_1741" data-name="Group 1741">
              <g id="Group_1740" data-name="Group 1740">
                <circle id="Ellipse_98" data-name="Ellipse 98" cx="16.347" cy="16.347" r="16.347" transform="matrix(0.772, -0.636, 0.636, 0.772, 393.652, 101.783)" fill="none" stroke="#4dc7b8" stroke-miterlimit="10" stroke-width="1.741"/>
              </g>
              <path id="Path_3283" data-name="Path 3283" d="M425.265,96.991a4.824,4.824,0,0,0-6.822,0l-1.778,1.778-1.779-1.778a4.823,4.823,0,0,0-6.821,6.821l1.779,1.779,6.821,6.821,6.821-6.821,1.779-1.779A4.824,4.824,0,0,0,425.265,96.991Z" fill="#4dc7b8"/>
            </g>
          </g>
        </g>
      </g>
    </g>
  </g>
</svg>
