<svg xmlns="http://www.w3.org/2000/svg" width="90" height="90" viewBox="0 0 90 90">
  <g id="certified-team" transform="translate(-860.402 -1416.402)">
    <rect id="Rectangle_27" data-name="Rectangle 27" width="90" height="90" rx="20" transform="translate(860.402 1416.402)" fill="#e8a0bf"/>
    <g id="Group_53" data-name="Group 53" transform="translate(886.402 1442.402)">
      <path id="Path_12" data-name="Path 12" d="M745.684,191.829c-.008-.165-.02-.3-.02-.43,0-3.681-.015-7.362,0-11.043a9.521,9.521,0,0,1,6.5-9.294,9.317,9.317,0,0,1,12.1,7.9,10.951,10.951,0,0,1,.088,1.444q.011,5.5,0,11c0,.133-.013.266-.021.428Z" transform="translate(-736.013 -153.876)" fill="#fff" fill-rule="evenodd"/>
      <path id="Path_13" data-name="Path 13" d="M777.28,34.536a7.717,7.717,0,1,1-7.714-7.709A7.719,7.719,0,0,1,777.28,34.536Z" transform="translate(-750.563 -26.827)" fill="#fff" fill-rule="evenodd"/>
      <path id="Path_14" data-name="Path 14" d="M671.561,234.158H665.8c-.011-.126-.031-.255-.031-.383,0-2.792-.022-5.584.006-8.375a6.651,6.651,0,0,1,5.489-6.593c.261-.051.531-.052.871-.082-.777,1.966-.553,3.956-.567,5.923-.021,2.973-.005,5.946-.005,8.919Z" transform="translate(-665.759 -196.193)" fill="#fff" fill-rule="evenodd"/>
      <path id="Path_15" data-name="Path 15" d="M939.086,233.652h-5.771v-.534q0-4.595,0-9.189a16.855,16.855,0,0,0-.607-5.783c.719.174,1.344.269,1.929.476a6.649,6.649,0,0,1,4.458,6.165c.039,2.866.012,5.734.012,8.6C939.109,233.46,939.1,233.533,939.086,233.652Z" transform="translate(-901.118 -195.684)" fill="#fff" fill-rule="evenodd"/>
      <path id="Path_16" data-name="Path 16" d="M686.613,132.493a4.819,4.819,0,1,1,4.815-4.837A4.774,4.774,0,0,1,686.613,132.493Z" transform="translate(-679.835 -111.516)" fill="#fff" fill-rule="evenodd"/>
      <path id="Path_17" data-name="Path 17" d="M894.567,122.851a4.819,4.819,0,1,1-4.812,4.84A4.77,4.77,0,0,1,894.567,122.851Z" transform="translate(-863.348 -111.512)" fill="#fff" fill-rule="evenodd"/>
    </g>
  </g>
</svg>
