<svg xmlns="http://www.w3.org/2000/svg" width="90" height="90" viewBox="0 0 90 90">
  <g id="company-experience" transform="translate(-860.402 -1416.402)">
    <rect id="Rectangle_27" data-name="Rectangle 27" width="90" height="90" rx="20" transform="translate(860.402 1416.402)" fill="#a5c9b3"/>
    <g id="Group_54" data-name="Group 54" transform="translate(886.402 1445.402)">
      <path id="Path_18" data-name="Path 18" d="M1055.75,787.806v-11.8c.373-.588.792-.732,1.277-.39a3.637,3.637,0,0,0,2.2.637c3.955-.013,7.91-.006,11.866-.006h.487c0,.8-.008,1.545,0,2.285a.791.791,0,0,0,.833.883q2.336.013,4.672,0a.781.781,0,0,0,.83-.771c.016-.172.007-.346.008-.519,0-.613,0-1.227,0-1.878h.485q5.988,0,11.977,0a3.364,3.364,0,0,0,1.931-.534c.664-.441,1.017-.366,1.434.289v11.8a6.807,6.807,0,0,1-.257.764,3.179,3.179,0,0,1-3.14,1.93q-15.6-.012-31.2,0c-.124,0-.247,0-.371-.007a3.145,3.145,0,0,1-2.886-2.229C1055.845,788.107,1055.8,787.957,1055.75,787.806Z" transform="translate(-1055.75 -758.839)" fill="#fff" fill-rule="evenodd"/>
      <path id="Path_19" data-name="Path 19" d="M1055.75,620.935v-5.712c.015-.019.038-.036.044-.058a3.162,3.162,0,0,1,3.425-2.631h7.608c0-.519,0-.975,0-1.431a3.163,3.163,0,0,1,3.306-3.315q4.617-.01,9.234,0a3.863,3.863,0,0,1,1.058.138,3.151,3.151,0,0,1,2.245,3.1c.008.489,0,.979,0,1.5h.49c2.448,0,4.9-.008,7.342,0a3.121,3.121,0,0,1,3.184,2.557.638.638,0,0,0,.062.129v5.638a1.179,1.179,0,0,0-.053.132,3.169,3.169,0,0,1-3.409,2.613h-12.366c0-.246,0-.443,0-.64-.011-.644-.292-.933-.93-.935q-2.263-.006-4.527,0a.793.793,0,0,0-.885.866c-.008.229,0,.458,0,.67a.777.777,0,0,1-.127.034c-4.23,0-8.46.013-12.691-.008a3.105,3.105,0,0,1-2.865-2.209C1055.85,621.234,1055.8,621.085,1055.75,620.935Zm23.733-9.973h-9.465v1.548h9.465Z" transform="translate(-1055.75 -607.783)" fill="#fff" fill-rule="evenodd"/>
    </g>
  </g>
</svg>
