<svg xmlns="http://www.w3.org/2000/svg" width="62.289" height="43.713" viewBox="0 0 62.289 43.713">
  <path id="custom-web-development" d="M47.6,42.711c-.132,0-.276,0-.431,0-1.382,0-1.549-.078-1.92-1.4A2,2,0,0,0,43.7,39.731a9.769,9.769,0,0,1-1.79-.76,1.363,1.363,0,0,0-1.349-.011c-1.787.958-1.784.92-3.209-.531-.868-.884-.957-1.14-.334-2.213a2.074,2.074,0,0,0,.02-2.362,8.131,8.131,0,0,1-.668-1.7,1.428,1.428,0,0,0-.989-1c-1.988-.6-1.862-.637-1.855-2.668,0-1.222.118-1.457,1.29-1.764a2.105,2.105,0,0,0,1.725-1.695,7.947,7.947,0,0,1,.724-1.676A1.345,1.345,0,0,0,37.277,22c-1.007-1.875-.878-1.824.583-3.242a10.127,10.127,0,0,1,1.09-.815c.543.258.985.429,1.387.666a1.671,1.671,0,0,0,1.785,0,11.767,11.767,0,0,1,1.908-.786,1.491,1.491,0,0,0,1.075-1.062c.558-1.909.69-1.818,2.526-1.808,1.378.011,1.55.087,1.918,1.407A1.969,1.969,0,0,0,51.1,17.937a8.135,8.135,0,0,1,1.732.74,1.465,1.465,0,0,0,1.463.011c1.664-.886,1.692-.942,3.114.513.936.96,1.012,1.142.351,2.308a2.032,2.032,0,0,0-.024,2.266,7.429,7.429,0,0,1,.684,1.693,1.429,1.429,0,0,0,1.058,1.076c2.079.553,1.8.928,1.808,2.526,0,1.364-.1,1.553-1.408,1.92A1.952,1.952,0,0,0,58.3,32.532a8.012,8.012,0,0,1-.738,1.733,1.476,1.476,0,0,0-.012,1.464c.9,1.675.918,1.713-.518,3.113-.947.924-1.167,1.009-2.307.351a1.991,1.991,0,0,0-2.257-.022,7.671,7.671,0,0,1-1.7.675,1.461,1.461,0,0,0-1.076,1.062c-.466,1.669-.711,1.806-1.762,1.806C47.83,42.713,47.721,42.713,47.6,42.711ZM41.365,28.784a6.042,6.042,0,1,0,12.084.046,6.081,6.081,0,0,0-6.029-6.043H47.4A6.039,6.039,0,0,0,41.365,28.784ZM3.735,36.034c-1.684,0-3.059-.451-3.735-2.515V29.255q15.282-.005,30.562-.007c.1,0,.192.011.327.018.019.229.022.44.055.647A3.034,3.034,0,0,0,33.2,32.535a1.235,1.235,0,0,1,.976.949c.088.34.308.645.4.984a1.688,1.688,0,0,1,.007.762c-.143.669-.587.8-1.249.8q-14.779-.035-29.555,0ZM43.3,28.826a4.085,4.085,0,1,1,4.112,4.1h-.033A4.117,4.117,0,0,1,43.3,28.826ZM30.375,26.8c-2.447-.013-4.9-.006-7.343-.006q-11.132,0-22.265,0c-.254,0-.511-.018-.767-.027V2.482A10.6,10.6,0,0,1,.959.889,2.82,2.82,0,0,1,3.2.006l5.27,0Q25.91,0,43.351,0a3.015,3.015,0,0,1,2.7,1.169,3.643,3.643,0,0,1,.685,1.838c.069,3.018.033,6.039.031,9.057a1.859,1.859,0,0,1-.055.289c-.22,0-.431,0-.644,0a3.088,3.088,0,0,0-3.178,2.326c-.149.48-.357.811-.869.9a.464.464,0,0,0-.165.064,2.283,2.283,0,0,1-2.444.056,2.725,2.725,0,0,0-3.082.56,15.373,15.373,0,0,0-1.506,1.506,2.957,2.957,0,0,0-.413,3.519,1.631,1.631,0,0,1,.046,1.478,2.489,2.489,0,0,1-1.76,1.8,2.36,2.36,0,0,0-1.571,1.731c-.124.447-.353.509-.737.509ZM24.046,6.634q-.681,2.968-1.358,5.935Q21.744,16.69,20.8,20.81c-.173.762.214,1.333.895,1.342.523.007.871-.305,1.022-.958q1.617-7.059,3.224-14.12c.176-.769-.08-1.278-.669-1.4a1.192,1.192,0,0,0-.247-.027C24.539,5.643,24.2,5.983,24.046,6.634ZM17.624,8.7q-3.768,2.1-7.532,4.2c-.4.22-.733.465-.742.974-.01.542.346.8.758,1.028q3.743,2.081,7.481,4.173a2.6,2.6,0,0,0,.367.189.97.97,0,0,0,1.218-.44.937.937,0,0,0-.31-1.253,7.181,7.181,0,0,0-.715-.415c-1.906-1.067-3.814-2.133-5.81-3.248.253-.153.433-.269.62-.373q2.809-1.568,5.623-3.138c.677-.38.884-.917.584-1.449a.87.87,0,0,0-.79-.477A1.571,1.571,0,0,0,17.624,8.7Zm9.966.274a.963.963,0,0,0,.466,1.346c.2.124.412.233.618.349,1.89,1.058,3.781,2.115,5.753,3.22-.188.115-.285.178-.389.236q-2.941,1.645-5.885,3.29c-.651.366-.847.876-.564,1.407a.99.99,0,0,0,1.482.311q3.852-2.141,7.694-4.3a.993.993,0,0,0,0-1.878c-.905-.522-1.822-1.024-2.735-1.533-1.669-.931-3.338-1.867-5.013-2.788a1.257,1.257,0,0,0-.608-.171A.911.911,0,0,0,27.59,8.974Z" transform="translate(0.5 0.5)" fill="#43a5de" stroke="rgba(0,0,0,0)" stroke-width="1"/>
</svg>
