<svg xmlns="http://www.w3.org/2000/svg" width="55.795" height="50.031" viewBox="0 0 55.795 50.031">
  <path id="custom-software-development" d="M4.111,49.031A3.772,3.772,0,0,1,0,44.971Q0,28.152,0,11.328v-.735H54.791v.719q0,16.819,0,33.643a3.774,3.774,0,0,1-4.1,4.076Zm20.064-8.439c0,.847-.011,1.669,0,2.489a1.875,1.875,0,0,0,1.483,1.967,5.936,5.936,0,0,0,3.44.011,1.9,1.9,0,0,0,1.519-2.014c0-.4,0-.8,0-1.2,0-1.223,0-1.223,1.152-1.712a2.57,2.57,0,0,1,.611-.26.965.965,0,0,1,.666.112c.524.453.99.966,1.492,1.443a1.808,1.808,0,0,0,2.545.309,11.083,11.083,0,0,0,2.268-2.214,1.8,1.8,0,0,0-.289-2.635c-.579-.583-1.21-1.114-1.759-1.613l.946-2.27c.82,0,1.624.007,2.427,0A1.911,1.911,0,0,0,42.807,31.3a11.161,11.161,0,0,0,.094-2.72A2.081,2.081,0,0,0,40.634,26.6c-.8-.011-1.6,0-2.378,0-.276-.648-.551-1.23-.765-1.831a.638.638,0,0,1,.112-.551c.478-.529,1.008-1.013,1.5-1.53a1.784,1.784,0,0,0,.291-2.532,10.833,10.833,0,0,0-2.174-2.218,1.856,1.856,0,0,0-2.7.273c-.584.578-1.12,1.2-1.613,1.741l-2.243-.928a.594.594,0,0,1-.024-.105c-.007-.78-.005-1.557-.014-2.337a1.917,1.917,0,0,0-1.558-2.05,6.009,6.009,0,0,0-3.376.016,1.894,1.894,0,0,0-1.51,2.017c-.009.82,0,1.64,0,2.442-.625.262-1.187.529-1.773.726a.8.8,0,0,1-.663-.114c-.522-.453-.988-.966-1.49-1.443a1.811,1.811,0,0,0-2.545-.307,10.952,10.952,0,0,0-2.237,2.156,1.831,1.831,0,0,0,.262,2.693c.578.58,1.208,1.116,1.757,1.616l-.946,2.268c-.818,0-1.622-.009-2.427,0a2.134,2.134,0,0,0-2.249,2.153c-.035.688-.032,1.38,0,2.068A2.15,2.15,0,0,0,14.152,33c.8.009,1.607,0,2.387,0,.264.623.535,1.183.733,1.768a.8.8,0,0,1-.122.659c-.454.52-.972.981-1.452,1.481a1.781,1.781,0,0,0-.3,2.53,10.856,10.856,0,0,0,2.173,2.221,1.854,1.854,0,0,0,2.708-.264c.584-.578,1.116-1.208,1.609-1.746Zm3.185-4.715a6.22,6.22,0,1,1,.048,0ZM.054,8.76c0-1.871-.137-3.726.038-5.55A3.594,3.594,0,0,1,3.785.006Q27.41,0,51.035.008a3.761,3.761,0,0,1,3.751,3.838c.02,1.557,0,3.112,0,4.668a1.45,1.45,0,0,1-.047.246Zm5.312-6.01A1.546,1.546,0,0,0,3.822,4.384,1.534,1.534,0,0,0,5.349,6.031c.715.027,1.429.025,2.146,0A1.543,1.543,0,0,0,9.07,4.368,1.544,1.544,0,0,0,7.513,2.751c-.359-.016-.714,0-1.073,0-.227,0-.453-.007-.679-.007C5.63,2.742,5.5,2.744,5.366,2.751ZM20.413,6.04c2.106,0,4.208.007,6.312,0a1.493,1.493,0,0,0,1.627-1.221A1.59,1.59,0,0,0,26.69,2.751q-6.275-.013-12.553,0a2.7,2.7,0,0,0-.4.02A1.57,1.57,0,0,0,12.421,4.48a1.51,1.51,0,0,0,1.55,1.551c1.458.013,2.92.011,4.381.009l1.373,0C19.956,6.038,20.185,6.038,20.413,6.04Z" transform="translate(0.5 0.5)" fill="#43a5de" stroke="rgba(0,0,0,0)" stroke-width="1"/>
</svg>
