<svg xmlns="http://www.w3.org/2000/svg" xmlns:xlink="http://www.w3.org/1999/xlink" width="608" height="544" viewBox="0 0 608 544">
  <defs>
    <clipPath id="clip-path">
      <rect id="Rectangle_19485" data-name="Rectangle 19485" width="608" height="544" transform="translate(0 4716)" fill="#971d1d"/>
    </clipPath>
  </defs>
  <g id="custom-software-cta" transform="translate(0 -4716)" clip-path="url(#clip-path)">
    <g id="Component_1_1" data-name="Component 1 – 1" transform="translate(-31.301 4716.605)">
      <g id="freepik--background-complete--inject-76" transform="translate(-57.607)">
        <rect id="Rectangle_19422" data-name="Rectangle 19422" width="13.101" height="0.377" transform="translate(486.256 521.957)" fill="#ebebeb"/>
        <rect id="Rectangle_19424" data-name="Rectangle 19424" width="65.115" height="0.377" transform="translate(79.09 506.398)" fill="#ebebeb"/>
        <rect id="Rectangle_19425" data-name="Rectangle 19425" width="9.543" height="0.377" transform="translate(157.638 506.398)" fill="#ebebeb"/>
        <rect id="Rectangle_19426" data-name="Rectangle 19426" width="141.235" height="0.377" transform="translate(198.208 512.76)" fill="#ebebeb"/>
        <path id="Path_84678" data-name="Path 84678" d="M337.912,481.358H46.8a8.609,8.609,0,0,1-8.593-8.609V63.533A8.609,8.609,0,0,1,46.8,55H337.912a8.609,8.609,0,0,1,8.609,8.609V472.749A8.609,8.609,0,0,1,337.912,481.358ZM46.8,55.3a8.232,8.232,0,0,0-8.217,8.232V472.749a8.232,8.232,0,0,0,8.217,8.232H337.912a8.247,8.247,0,0,0,8.232-8.232V63.533a8.247,8.247,0,0,0-8.232-8.232Z" transform="translate(19.397 -55)" fill="#ebebeb"/>
        <path id="Path_84679" data-name="Path 84679" d="M554.232,481.358H263.109a8.624,8.624,0,0,1-8.609-8.609V63.533A8.624,8.624,0,0,1,263.109,55H554.232a8.608,8.608,0,0,1,8.578,8.533V472.749A8.609,8.609,0,0,1,554.232,481.358ZM263.109,55.3a8.247,8.247,0,0,0-8.232,8.232V472.749a8.247,8.247,0,0,0,8.232,8.232H554.232a8.247,8.247,0,0,0,8.232-8.232V63.533a8.247,8.247,0,0,0-8.232-8.232Z" transform="translate(129.192 -55)" fill="#ebebeb"/>
        <path id="Path_84680" data-name="Path 84680" d="M169.028,367.121,148.147,384.58l29.746,43.239,23.76-13.267A140.33,140.33,0,0,0,245.661,443.2l-2.412,27.032,51.636,9.513,7.4-26.112a139.773,139.773,0,0,0,51.259-11.006L371.005,463.5l43.239-29.746-13.237-23.7a140.089,140.089,0,0,0,28.645-43.993l27.017,2.412,9.543-51.606L440.1,309.454A140.209,140.209,0,0,0,429.094,258.2l20.881-17.458-29.746-43.224-23.775,13.252a140.315,140.315,0,0,0-43.993-28.645l2.412-27.032-51.606-9.528-7.4,26.1a140.465,140.465,0,0,0-51.259,11.006l-17.564-20.971-43.209,29.761,13.252,23.76A140.389,140.389,0,0,0,168.44,259.22l-27.032-2.412-9.528,51.606,26.1,7.4a140.088,140.088,0,0,0,11.051,51.3Zm60.17-67.436a71.04,71.04,0,1,1,56.943,82.769A71.04,71.04,0,0,1,229.2,299.685Z" transform="translate(66.946 -9.029)" fill="#f0f0f0"/>
        <path id="Path_84681" data-name="Path 84681" d="M399.228,309.395l16.313,3.015,2.337-8.247A44.535,44.535,0,0,0,434.1,300.68l5.518,6.6,13.674-9.408-4.191-7.538a44.113,44.113,0,0,0,9.046-13.9l8.548.754,3.015-16.3-8.262-2.352a44.053,44.053,0,0,0-3.483-16.222l6.6-5.518-9.408-13.659-7.538,4.191a44.58,44.58,0,0,0-13.9-9.046l.754-8.533-16.313-3.015-2.337,8.247a44.6,44.6,0,0,0-16.222,3.483l-5.473-6.6-13.674,9.408,4.191,7.538a44.113,44.113,0,0,0-9.046,13.9l-8.548-.754-3.015,16.3,8.247,2.352a44.356,44.356,0,0,0,3.483,16.222l-6.6,5.518,9.408,13.659,7.538-4.191a44.173,44.173,0,0,0,13.915,9.046Zm-4.448-53.9a22.464,22.464,0,1,1,18,26.157,22.464,22.464,0,0,1-18-26.157Z" transform="translate(184.798 22.028)" fill="#f0f0f0"/>
        <path id="Path_84682" data-name="Path 84682" d="M92.71,331.951l12.423,2.307,1.794-6.287a34.1,34.1,0,0,0,12.348-2.653l4.206,5.02,10.418-7.161-3.2-5.759a33.681,33.681,0,0,0,6.89-10.553l6.513.573,2.292-12.423-6.287-1.719a33.574,33.574,0,0,0-2.653-12.363l5.035-4.206-7.176-10.4-5.714,3.2a33.982,33.982,0,0,0-10.553-6.9l.588-6.5L107.2,253.81,105.42,260.1a34.194,34.194,0,0,0-12.363,2.653l-4.191-5.02-10.418,7.161,3.2,5.729a33.6,33.6,0,0,0-6.89,10.553l-6.513-.573L65.95,293.023l6.242,1.779a33.575,33.575,0,0,0,2.653,12.363l-5.035,4.221,7.161,10.4,5.729-3.181a34.028,34.028,0,0,0,10.553,6.89ZM89.333,290.9a17.1,17.1,0,1,1,13.7,19.931A17.1,17.1,0,0,1,89.333,290.9Z" transform="translate(33.478 45.922)" fill="#f0f0f0"/>
        <path id="Path_84683" data-name="Path 84683" d="M237.667,141.919l9.408,1.734,1.372-4.749a25.222,25.222,0,0,0,9.362-2.005l3.181,3.814,7.87-5.427-2.412-4.327a25.63,25.63,0,0,0,5.216-8.021l4.915.437,1.734-9.393-4.749-1.357a25.751,25.751,0,0,0-2.005-9.347l3.8-3.181-5.412-7.87-4.327,2.412a25.63,25.63,0,0,0-8.021-5.216l.437-4.915-9.408-1.749-1.342,4.764a25.087,25.087,0,0,0-9.347,2.005l-3.181-3.814-7.885,5.427,2.427,4.327a25.4,25.4,0,0,0-5.216,8.021l-4.93-.437-1.734,9.393,4.749,1.357a25.631,25.631,0,0,0,2.005,9.347l-3.8,3.181,5.427,7.87,4.327-2.412A25.433,25.433,0,0,0,238.135,137Zm-2.548-31.072a16.121,16.121,0,1,1,0,.03Z" transform="translate(110.369 -40.908)" fill="#f0f0f0"/>
        <path id="Path_84684" data-name="Path 84684" d="M339.043,185.48l6.272,1.146.889-3.166a17.081,17.081,0,0,0,6.242-1.342l2.126,2.548,5.247-3.618-1.613-2.895a17.021,17.021,0,0,0,3.483-5.337l3.287.286,1.161-6.272-3.181-.9a17.052,17.052,0,0,0-1.327-6.227l2.533-2.126-3.618-5.247-2.88,1.613a17.263,17.263,0,0,0-5.352-3.483l.286-3.287-6.272-1.161-.889,3.181a17.066,17.066,0,0,0-6.242,1.327l-2.126-2.533-5.247,3.618,1.613,2.88a17.263,17.263,0,0,0-3.483,5.352l-3.287-.286-1.146,6.257,3.166.9a16.779,16.779,0,0,0,1.342,6.242l-2.548,2.111,3.618,5.262,2.895-1.613a17.021,17.021,0,0,0,5.337,3.483Zm-1.7-20.73a8.639,8.639,0,1,1,6.92,10.056A8.639,8.639,0,0,1,337.34,164.75Z" transform="translate(165.244 -8.801)" fill="#f0f0f0"/>
        <path id="Path_84685" data-name="Path 84685" d="M147.283,135.355l6.272,1.161.89-3.166a17.4,17.4,0,0,0,6.242-1.342l2.126,2.533,5.247-3.618-1.613-2.88a17.1,17.1,0,0,0,3.483-5.352l3.287.3,1.161-6.272-3.181-.9a17.127,17.127,0,0,0-1.327-6.242l2.533-2.111-3.618-5.262-2.895,1.613a16.72,16.72,0,0,0-5.337-3.468l.286-3.287L154.565,95.9l-.874,3.166a17.082,17.082,0,0,0-6.242,1.342l-2.126-2.533-5.2,3.6,1.613,2.895a17.1,17.1,0,0,0-3.483,5.352l-3.287-.3L133.82,115.7l3.166.9a16.7,16.7,0,0,0,1.342,6.227l-2.548,2.126,3.618,5.262,2.895-1.613a16.991,16.991,0,0,0,5.337,3.468Zm-1.7-20.715A8.639,8.639,0,1,1,152.5,124.7a8.639,8.639,0,0,1-6.92-10.056Z" transform="translate(67.931 -34.238)" fill="#f0f0f0"/>
        <path id="Path_84686" data-name="Path 84686" d="M329.458,355.9a29.46,29.46,0,0,0,2.337,10.885l-4.432,3.709,6.317,9.151,5.035-2.8a29.791,29.791,0,0,0,9.332,6.031l-.513,5.729,10.945,2.02,1.508-5.533a30.062,30.062,0,0,0,10.87-2.337l3.709,4.417,9.166-6.3-2.744-5.005a29.671,29.671,0,0,0,6.031-9.332l5.729.513,2.111-10.93-5.533-1.508a29.458,29.458,0,0,0-2.337-10.885l4.432-3.694-6.3-9.166-5.111,2.789a29.429,29.429,0,0,0-9.317-6.031l.5-5.744-10.93-2.02-1.508,5.533a30.154,30.154,0,0,0-10.885,2.337l-3.709-4.417-9.166,6.3,2.819,5.035a29.7,29.7,0,0,0-6.03,9.332l-5.729-.513L324,354.329Zm15.076-3.407a12.91,12.91,0,1,0,.015,0Z" transform="translate(164.472 79.446)" fill="#f0f0f0"/>
        <path id="Path_84687" data-name="Path 84687" d="M398.552,302.832,381.712,309l16.84,6.121v6.257l-24.122-9.151v-6.573l24.122-9.151Z" transform="translate(190.072 67.593)" fill="#e0e0e0"/>
        <path id="Path_84688" data-name="Path 84688" d="M408.07,288.28h7.041l-16.69,47.656H391.38Z" transform="translate(198.676 63.42)" fill="#e0e0e0"/>
        <path id="Path_84689" data-name="Path 84689" d="M431.822,305.676v6.618L407.7,321.446v-6.317l16.84-6.121-16.84-6.166V296.57Z" transform="translate(206.961 67.628)" fill="#e0e0e0"/>
        <path id="Path_84690" data-name="Path 84690" d="M115.764,362.359c2.412.724,3.528,2.246,3.528,5.88v8.4a3.452,3.452,0,0,0,3.829,3.89h.95v6.407h-3.015c-6.573,0-9.935-3.362-9.935-9.408v-9.5c0-1.689-.889-2.473-2.307-2.473H107.08v-6.332h1.734c1.417,0,2.307-.784,2.307-2.473v-9.589c0-6.031,3.362-9.393,9.935-9.393h3.015v6.377h-.95a3.453,3.453,0,0,0-3.829,3.89v8.4C119.292,360.1,118.176,361.621,115.764,362.359Z" transform="translate(54.357 88.543)" fill="#e0e0e0"/>
        <path id="Path_84691" data-name="Path 84691" d="M146.291,359.234v6.407h-1.734a2.156,2.156,0,0,0-2.322,2.473v9.5c0,6.031-3.362,9.408-9.92,9.408H129.3v-6.407h.95a3.453,3.453,0,0,0,3.829-3.89V368.28c0-3.633,1.1-5.156,3.513-5.88-2.412-.739-3.513-2.261-3.513-5.895v-8.428a3.452,3.452,0,0,0-3.86-3.92h-.95V337.75h3.015c6.558,0,9.92,3.362,9.92,9.393v9.513a2.156,2.156,0,0,0,2.322,2.473Z" transform="translate(65.621 88.532)" fill="#e0e0e0"/>
        <path id="Path_84692" data-name="Path 84692" d="M98.49,157.106c0-10.342,7.93-17.73,18.6-17.73a17.669,17.669,0,0,1,14.1,6.031l-5.1,4.689a11.176,11.176,0,1,0-8.609,17.926,10.885,10.885,0,0,0,8.609-4.071l5.1,4.7a17.594,17.594,0,0,1-14.142,6.121C106.42,174.82,98.49,167.463,98.49,157.106Z" transform="translate(49.996 -12.177)" fill="#e0e0e0"/>
        <path id="Path_84693" data-name="Path 84693" d="M146.153,157.948h-8.518v8.322h-6.317v-8.322H122.86v-6.031h8.458V143.58h6.317v8.337h8.518Z" transform="translate(62.367 -10.034)" fill="#e0e0e0"/>
        <path id="Path_84694" data-name="Path 84694" d="M165.848,157.948H157.33v8.322h-6.317v-8.322H142.54v-6.031h8.473V143.58h6.317v8.337h8.518Z" transform="translate(72.358 -10.034)" fill="#e0e0e0"/>
        <path id="Path_84695" data-name="Path 84695" d="M182.06,276.94l4.945-5.94c2.1,2.8,4.417,4.236,7.161,4.236,3.588,0,5.458-2.156,5.458-6.392V250.511H186.055V243.35h22.418v25c0,9.528-4.794,14.217-13.885,14.217a15.483,15.483,0,0,1-12.528-5.623Z" transform="translate(92.419 40.612)" fill="#e0e0e0"/>
        <path id="Path_84696" data-name="Path 84696" d="M203.14,276.29l2.8-6.166a20.338,20.338,0,0,0,10.3,2.864c3.965,0,5.458-1.04,5.458-2.7,0-4.839-17.9.106-17.9-11.729,0-5.623,5.066-9.589,13.7-9.589a24.348,24.348,0,0,1,11.413,2.593l-2.865,6.121a17.036,17.036,0,0,0-8.548-2.216c-3.844,0-5.5,1.221-5.5,2.759,0,5.066,17.9.166,17.9,11.835,0,5.518-5.111,9.423-13.991,9.423a25.388,25.388,0,0,1-12.77-3.2Z" transform="translate(103.12 43.463)" fill="#e0e0e0"/>
      </g>
      <g id="freepik--program-icons--inject-76" transform="translate(385.245 57.305)">
        <rect id="Rectangle_19427" data-name="Rectangle 19427" width="51.817" height="51.817" rx="2.27" transform="translate(0.136)" fill="#407bff"/>
        <g id="Group_46326" data-name="Group 46326" transform="translate(0.136)" opacity="0.4">
          <rect id="Rectangle_19428" data-name="Rectangle 19428" width="51.817" height="51.817" rx="2.27" fill="#fff"/>
        </g>
        <path id="Path_84697" data-name="Path 84697" d="M310.725,109.5l-9.046,3.3,9.046,3.272v3.407l-12.845-4.9v-3.5l12.845-4.9Z" transform="translate(-291.638 -86.325)" fill="#fff"/>
        <path id="Path_84698" data-name="Path 84698" d="M315.825,101.76h3.754l-8.925,25.434H306.9Z" transform="translate(-287.06 -88.568)" fill="#fff"/>
        <path id="Path_84699" data-name="Path 84699" d="M328.475,111.05v3.5l-12.845,4.93V116.1l9.046-3.272-9.046-3.3V106.18Z" transform="translate(-282.628 -86.325)" fill="#fff"/>
        <path id="Path_84700" data-name="Path 84700" d="M305.288,133.665v12.574h-2.91v-5.171H296.65v5.171h-2.91V133.65h2.91V138.7h5.729v-4.96Z" transform="translate(-293.74 -72.38)" fill="#263238"/>
        <path id="Path_84701" data-name="Path 84701" d="M306.48,136.027h-4.04V133.66h10.976v2.367H309.39v10.207h-2.91Z" transform="translate(-289.324 -72.375)" fill="#263238"/>
        <path id="Path_84702" data-name="Path 84702" d="M322.243,146.239V138.7l-3.709,6.227h-1.372l-3.694-6.031v7.342H310.74V133.65h2.412l4.7,7.825,4.643-7.825h2.4v12.589Z" transform="translate(-285.11 -72.38)" fill="#263238"/>
        <path id="Path_84703" data-name="Path 84703" d="M322.17,133.66h2.91v10.207H331.4v2.367H322.17Z" transform="translate(-279.308 -72.375)" fill="#263238"/>
        <g id="Group_46327" data-name="Group 46327" transform="translate(0 61.27)" opacity="0.6">
          <path id="Path_84704" data-name="Path 84704" d="M305.288,133.665v12.574h-2.91v-5.171H296.65v5.171h-2.91V133.65h2.91V138.7h5.729v-4.96Z" transform="translate(-293.74 -133.65)" fill="#fff"/>
          <path id="Path_84705" data-name="Path 84705" d="M306.48,136.027h-4.04V133.66h10.976v2.367H309.39v10.207h-2.91Z" transform="translate(-289.324 -133.645)" fill="#fff"/>
          <path id="Path_84706" data-name="Path 84706" d="M322.243,146.239V138.7l-3.709,6.227h-1.372l-3.694-6.031v7.342H310.74V133.65h2.412l4.7,7.825,4.643-7.825h2.4v12.589Z" transform="translate(-285.11 -133.65)" fill="#fff"/>
          <path id="Path_84707" data-name="Path 84707" d="M322.17,133.66h2.91v10.207H331.4v2.367H322.17Z" transform="translate(-279.308 -133.645)" fill="#fff"/>
        </g>
        <rect id="Rectangle_19429" data-name="Rectangle 19429" width="51.817" height="51.817" rx="2.27" transform="translate(110.962 27.62)" fill="#407bff"/>
        <g id="Group_46328" data-name="Group 46328" transform="translate(110.962 27.62)" opacity="0.4">
          <rect id="Rectangle_19430" data-name="Rectangle 19430" width="51.817" height="51.817" rx="2.27" fill="#fff"/>
        </g>
        <path id="Path_84708" data-name="Path 84708" d="M380.377,132.769c1.236.377,1.809,1.161,1.809,3.015v4.327a1.779,1.779,0,0,0,1.975,1.99h.482v3.3h-1.508c-3.377,0-5.1-1.734-5.1-4.84v-4.885a1.116,1.116,0,0,0-1.191-1.266h-.89v-3.3h.89a1.116,1.116,0,0,0,1.191-1.266v-4.885c0-3.106,1.719-4.839,5.1-4.839h1.508v3.3h-.482a1.779,1.779,0,0,0-1.975,1.99v4.327C382.186,131.608,381.614,132.392,380.377,132.769Z" transform="translate(-252.003 -79.248)" fill="#fff"/>
        <path id="Path_84709" data-name="Path 84709" d="M396.054,131.116v3.3h-.889a1.116,1.116,0,0,0-1.191,1.266v4.885c0,3.106-1.734,4.84-5.1,4.84H387.37v-3.3h.482a1.779,1.779,0,0,0,1.975-1.99v-4.327c0-1.869.558-2.653,1.809-3.015-1.251-.377-1.809-1.161-1.809-3.015v-4.327a1.779,1.779,0,0,0-1.975-1.99h-.482v-3.3h1.508c3.362,0,5.1,1.734,5.1,4.839v4.885a1.116,1.116,0,0,0,1.191,1.266Z" transform="translate(-246.211 -79.238)" fill="#fff"/>
        <path id="Path_84710" data-name="Path 84710" d="M373,158.488a6.935,6.935,0,0,1,12.061-4.282l-1.869,1.734a4.033,4.033,0,1,0,0,5.051l1.869,1.719A6.92,6.92,0,0,1,373,158.443Z" transform="translate(-253.505 -63.1)" fill="#263238"/>
        <path id="Path_84711" data-name="Path 84711" d="M381.52,163.539l.98-2.2a7.538,7.538,0,0,0,4.161,1.312c1.719,0,2.427-.573,2.427-1.342,0-2.367-7.327-.739-7.327-5.412,0-2.141,1.734-3.935,5.307-3.935a8.563,8.563,0,0,1,4.372,1.116l-.889,2.216a7.161,7.161,0,0,0-3.5-.98c-1.719,0-2.4.633-2.4,1.432,0,2.322,7.327.724,7.327,5.337,0,2.111-1.749,3.9-5.337,3.9a9.046,9.046,0,0,1-5.126-1.447Z" transform="translate(-249.18 -63.086)" fill="#263238"/>
        <path id="Path_84712" data-name="Path 84712" d="M389.13,163.539l1-2.2a7.418,7.418,0,0,0,4.161,1.312c1.719,0,2.427-.573,2.427-1.342,0-2.367-7.327-.739-7.327-5.412,0-2.141,1.734-3.935,5.307-3.935a8.609,8.609,0,0,1,4.372,1.116l-.9,2.216a7.071,7.071,0,0,0-3.483-.98c-1.734,0-2.4.633-2.4,1.432,0,2.322,7.327.724,7.327,5.337,0,2.111-1.749,3.9-5.352,3.9A9.046,9.046,0,0,1,389.13,163.539Z" transform="translate(-245.317 -63.086)" fill="#263238"/>
        <g id="Group_46329" data-name="Group 46329" transform="translate(119.495 88.831)" opacity="0.6">
          <path id="Path_84713" data-name="Path 84713" d="M373,158.488a6.935,6.935,0,0,1,12.061-4.282l-1.869,1.734a4.033,4.033,0,1,0,0,5.051l1.869,1.719A6.92,6.92,0,0,1,373,158.443Z" transform="translate(-373 -151.931)" fill="#fff"/>
          <path id="Path_84714" data-name="Path 84714" d="M381.52,163.539l.98-2.2a7.538,7.538,0,0,0,4.161,1.312c1.719,0,2.427-.573,2.427-1.342,0-2.367-7.327-.739-7.327-5.412,0-2.141,1.734-3.935,5.307-3.935a8.563,8.563,0,0,1,4.372,1.116l-.889,2.216a7.161,7.161,0,0,0-3.5-.98c-1.719,0-2.4.633-2.4,1.432,0,2.322,7.327.724,7.327,5.337,0,2.111-1.749,3.9-5.337,3.9a9.046,9.046,0,0,1-5.126-1.447Z" transform="translate(-368.675 -151.916)" fill="#fff"/>
          <path id="Path_84715" data-name="Path 84715" d="M389.13,163.539l1-2.2a7.418,7.418,0,0,0,4.161,1.312c1.719,0,2.427-.573,2.427-1.342,0-2.367-7.327-.739-7.327-5.412,0-2.141,1.734-3.935,5.307-3.935a8.609,8.609,0,0,1,4.372,1.116l-.9,2.216a7.071,7.071,0,0,0-3.483-.98c-1.734,0-2.4.633-2.4,1.432,0,2.322,7.327.724,7.327,5.337,0,2.111-1.749,3.9-5.352,3.9A9.046,9.046,0,0,1,389.13,163.539Z" transform="translate(-364.812 -151.916)" fill="#fff"/>
        </g>
      </g>
      <g id="freepik--Tabs--inject-76" transform="translate(166.352 79.874)">
        <rect id="Rectangle_19431" data-name="Rectangle 19431" width="184.7" height="133.697"/>
        <rect id="Rectangle_19432" data-name="Rectangle 19432" width="184.7" height="133.697" fill="#fff" opacity="0.9"/>
        <rect id="Rectangle_19433" data-name="Rectangle 19433" width="25.72" height="133.697" opacity="0.1"/>
        <rect id="Rectangle_19434" data-name="Rectangle 19434" width="184.7" height="12.498" fill="#407bff"/>
        <g id="Group_46330" data-name="Group 46330" transform="translate(38.912 28.343)" opacity="0.2">
          <path id="Path_84716" data-name="Path 84716" d="M209.543,129.8H175.908a1.508,1.508,0,1,1,0-3.015h33.635a1.508,1.508,0,1,1,0,3.015Z" transform="translate(-174.34 -126.78)"/>
          <path id="Path_84717" data-name="Path 84717" d="M269.513,129.8H204.158a1.508,1.508,0,1,1,0-3.015h65.356a1.508,1.508,0,0,1,0,3.015Z" transform="translate(-159.999 -126.78)"/>
          <path id="Path_84718" data-name="Path 84718" d="M266.772,136.325H178.908a1.508,1.508,0,1,1,0-3.015h87.865a1.508,1.508,0,0,1,0,3.015Z" transform="translate(-172.817 -123.465)"/>
          <path id="Path_84719" data-name="Path 84719" d="M232.5,142.845h-56.6a1.508,1.508,0,1,1,0-3.015h56.6a1.508,1.508,0,1,1,0,3.015Z" transform="translate(-174.34 -120.155)"/>
          <path id="Path_84720" data-name="Path 84720" d="M261.163,142.845H220.608a1.508,1.508,0,0,1,0-3.015h40.555a1.508,1.508,0,0,1,0,3.015Z" transform="translate(-151.649 -120.155)"/>
          <path id="Path_84721" data-name="Path 84721" d="M207.161,149.375H175.908a1.508,1.508,0,1,1,0-3.015h31.253a1.508,1.508,0,1,1,0,3.015Z" transform="translate(-174.34 -116.841)"/>
          <path id="Path_84722" data-name="Path 84722" d="M252.567,149.375H203.358a1.508,1.508,0,1,1,0-3.015h49.209a1.508,1.508,0,1,1,0,3.015Z" transform="translate(-160.405 -116.841)"/>
          <path id="Path_84723" data-name="Path 84723" d="M220.955,155.905H178.908a1.508,1.508,0,0,1,0-3.015h42.048a1.508,1.508,0,0,1,0,3.015Z" transform="translate(-172.817 -113.526)"/>
          <path id="Path_84724" data-name="Path 84724" d="M226.217,162.435H178.908a1.508,1.508,0,1,1,0-3.015h47.309a1.508,1.508,0,1,1,0,3.015Z" transform="translate(-172.817 -110.211)"/>
          <path id="Path_84725" data-name="Path 84725" d="M263.752,162.435H215.508a1.508,1.508,0,1,1,0-3.015h48.244a1.508,1.508,0,0,1,0,3.015Z" transform="translate(-154.238 -110.211)"/>
          <path id="Path_84726" data-name="Path 84726" d="M203,168.955H175.868a1.508,1.508,0,0,1,0-3.015H203a1.508,1.508,0,1,1,0,3.015Z" transform="translate(-174.36 -106.901)"/>
          <path id="Path_84727" data-name="Path 84727" d="M271.625,168.955H200a1.508,1.508,0,1,1,0-3.015h71.627a1.508,1.508,0,1,1,0,3.015Z" transform="translate(-162.111 -106.901)"/>
          <path id="Path_84728" data-name="Path 84728" d="M225.916,175.485H178.908a1.508,1.508,0,0,1,0-3.015h47.008a1.508,1.508,0,0,1,0,3.015Z" transform="translate(-172.817 -103.586)"/>
          <path id="Path_84729" data-name="Path 84729" d="M244.862,175.485H214.438a1.508,1.508,0,1,1,0-3.015h30.424a1.508,1.508,0,0,1,0,3.015Z" transform="translate(-154.781 -103.586)"/>
          <path id="Path_84730" data-name="Path 84730" d="M233.016,182.015H178.908a1.508,1.508,0,1,1,0-3.015h54.109a1.508,1.508,0,0,1,0,3.015Z" transform="translate(-172.817 -100.272)"/>
        </g>
        <circle id="Ellipse_1207" data-name="Ellipse 1207" cx="2.578" cy="2.578" r="2.578" transform="translate(174.176 3.754)" fill="#fff" opacity="0.4"/>
        <circle id="Ellipse_1208" data-name="Ellipse 1208" cx="2.578" cy="2.578" r="2.578" transform="translate(165.116 3.754)" fill="#fff" opacity="0.4"/>
        <circle id="Ellipse_1209" data-name="Ellipse 1209" cx="2.578" cy="2.578" r="2.578" transform="translate(156.07 3.754)" fill="#fff" opacity="0.4"/>
        <g id="Group_46331" data-name="Group 46331" transform="translate(11.805 28.343)" opacity="0.2">
          <path id="Path_84731" data-name="Path 84731" d="M157.888,129.8h0a1.508,1.508,0,1,1,1.508-1.508A1.508,1.508,0,0,1,157.888,129.8Z" transform="translate(-156.38 -126.78)"/>
          <path id="Path_84732" data-name="Path 84732" d="M157.888,136.325h0a1.508,1.508,0,1,1,1.508-1.508A1.508,1.508,0,0,1,157.888,136.325Z" transform="translate(-156.38 -123.465)"/>
          <path id="Path_84733" data-name="Path 84733" d="M157.888,142.845h0a1.508,1.508,0,1,1,1.508-1.508A1.508,1.508,0,0,1,157.888,142.845Z" transform="translate(-156.38 -120.155)"/>
          <path id="Path_84734" data-name="Path 84734" d="M157.888,149.375h0a1.508,1.508,0,1,1,1.508-1.508A1.508,1.508,0,0,1,157.888,149.375Z" transform="translate(-156.38 -116.841)"/>
          <path id="Path_84735" data-name="Path 84735" d="M157.888,155.905h0A1.508,1.508,0,1,1,159.4,154.4,1.508,1.508,0,0,1,157.888,155.905Z" transform="translate(-156.38 -113.526)"/>
          <path id="Path_84736" data-name="Path 84736" d="M157.888,162.435h0a1.508,1.508,0,1,1,1.508-1.508A1.508,1.508,0,0,1,157.888,162.435Z" transform="translate(-156.38 -110.211)"/>
          <path id="Path_84737" data-name="Path 84737" d="M157.888,168.955h0a1.508,1.508,0,1,1,1.508-1.508A1.508,1.508,0,0,1,157.888,168.955Z" transform="translate(-156.38 -106.901)"/>
          <path id="Path_84738" data-name="Path 84738" d="M157.888,175.485h0a1.508,1.508,0,1,1,1.508-1.508A1.508,1.508,0,0,1,157.888,175.485Z" transform="translate(-156.38 -103.586)"/>
          <path id="Path_84739" data-name="Path 84739" d="M157.888,182.015h0a1.508,1.508,0,1,1,1.508-1.508A1.508,1.508,0,0,1,157.888,182.015Z" transform="translate(-156.38 -100.272)"/>
        </g>
        <rect id="Rectangle_19435" data-name="Rectangle 19435" width="242.02" height="154.969" transform="translate(109.967 109.092)" fill="#263238"/>
        <rect id="Rectangle_19436" data-name="Rectangle 19436" width="242.02" height="154.969" transform="translate(109.967 109.092)" fill="#fff" opacity="0.9"/>
        <rect id="Rectangle_19437" data-name="Rectangle 19437" width="37.751" height="154.969" transform="translate(109.967 109.092)" opacity="0.1"/>
        <rect id="Rectangle_19438" data-name="Rectangle 19438" width="242.02" height="12.498" transform="translate(109.967 109.092)" fill="#407bff"/>
        <path id="Path_84740" data-name="Path 84740" d="M234.759,198.172l-4.01,1.508,4.01,1.508v1.508l-5.729-2.186V199l5.729-2.171Z" transform="translate(-107.696 -62.877)" fill="#fff"/>
        <path id="Path_84741" data-name="Path 84741" d="M237.04,194.76h1.673l-3.98,11.352H233.06Z" transform="translate(-105.65 -63.928)" fill="#fff"/>
        <path id="Path_84742" data-name="Path 84742" d="M242.689,198.957v1.508l-5.729,2.186v-1.508l4.01-1.508-4.01-1.508V196.62Z" transform="translate(-103.67 -62.984)" fill="#fff"/>
        <g id="Group_46332" data-name="Group 46332" transform="translate(120.264 149.512)" opacity="0.2">
          <path id="Path_84743" data-name="Path 84743" d="M246.231,210.165h-16.4a1.508,1.508,0,1,1,0-3.015h16.4a1.508,1.508,0,1,1,0,3.015Z" transform="translate(-228.32 -207.15)"/>
          <path id="Path_84744" data-name="Path 84744" d="M246.231,216.685h-16.4a1.508,1.508,0,1,1,0-3.015h16.4a1.508,1.508,0,1,1,0,3.015Z" transform="translate(-228.32 -203.84)"/>
          <path id="Path_84745" data-name="Path 84745" d="M246.231,223.215h-16.4a1.508,1.508,0,1,1,0-3.015h16.4a1.508,1.508,0,1,1,0,3.015Z" transform="translate(-228.32 -200.525)"/>
          <path id="Path_84746" data-name="Path 84746" d="M246.231,229.745h-16.4a1.508,1.508,0,1,1,0-3.015h16.4a1.508,1.508,0,1,1,0,3.015Z" transform="translate(-228.32 -197.211)"/>
          <path id="Path_84747" data-name="Path 84747" d="M246.231,236.275h-16.4a1.508,1.508,0,0,1,0-3.015h16.4a1.508,1.508,0,1,1,0,3.015Z" transform="translate(-228.32 -193.896)"/>
          <path id="Path_84748" data-name="Path 84748" d="M246.231,242.8h-16.4a1.508,1.508,0,1,1,0-3.015h16.4a1.508,1.508,0,1,1,0,3.015Z" transform="translate(-228.32 -190.586)"/>
          <path id="Path_84749" data-name="Path 84749" d="M246.231,249.325h-16.4a1.508,1.508,0,1,1,0-3.015h16.4a1.508,1.508,0,1,1,0,3.015Z" transform="translate(-228.32 -187.271)"/>
          <path id="Path_84750" data-name="Path 84750" d="M246.231,255.855h-16.4a1.508,1.508,0,0,1,0-3.015h16.4a1.508,1.508,0,1,1,0,3.015Z" transform="translate(-228.32 -183.956)"/>
          <path id="Path_84751" data-name="Path 84751" d="M246.231,262.385h-16.4a1.508,1.508,0,0,1,0-3.015h16.4a1.508,1.508,0,1,1,0,3.015Z" transform="translate(-228.32 -180.642)"/>
        </g>
        <path id="Path_84752" data-name="Path 84752" d="M283.483,210.165H249.848a1.508,1.508,0,1,1,0-3.015h33.635a1.508,1.508,0,1,1,0,3.015Z" transform="translate(-97.894 -57.638)" fill="#407bff"/>
        <path id="Path_84753" data-name="Path 84753" d="M365.766,210.165H278.1a1.508,1.508,0,0,1,0-3.015h87.669a1.508,1.508,0,0,1,0,3.015Z" transform="translate(-83.553 -57.638)" fill="#263238"/>
        <g id="Group_46333" data-name="Group 46333" transform="translate(295.315 149.512)" opacity="0.2">
          <path id="Path_84754" data-name="Path 84754" d="M371.341,210.165h-25.4a1.508,1.508,0,1,1,0-3.015h25.4a1.508,1.508,0,1,1,0,3.015Z" transform="translate(-344.43 -207.15)" fill="#263238"/>
        </g>
        <g id="Group_46334" data-name="Group 46334" transform="translate(154.969 159.341)" opacity="0.2">
          <path id="Path_84755" data-name="Path 84755" d="M340.712,216.685H252.848a1.508,1.508,0,1,1,0-3.015h87.865a1.508,1.508,0,1,1,0,3.015Z" transform="translate(-251.34 -213.67)" fill="#263238"/>
        </g>
        <path id="Path_84756" data-name="Path 84756" d="M398.342,216.685H316.508a1.508,1.508,0,1,1,0-3.015H398.4a1.508,1.508,0,0,1,0,3.015Z" transform="translate(-64.055 -54.329)" fill="#407bff"/>
        <path id="Path_84757" data-name="Path 84757" d="M304.921,223.215H252.848a1.508,1.508,0,1,1,0-3.015h52.074a1.508,1.508,0,1,1,0,3.015Z" transform="translate(-96.371 -51.014)" fill="#263238"/>
        <path id="Path_84758" data-name="Path 84758" d="M345.767,223.215H294.508a1.508,1.508,0,1,1,0-3.015h51.259a1.508,1.508,0,1,1,0,3.015Z" transform="translate(-75.223 -51.014)" fill="#407bff"/>
        <path id="Path_84759" data-name="Path 84759" d="M389.428,223.215h-55.36a1.508,1.508,0,1,1,0-3.015h55.36a1.508,1.508,0,1,1,0,3.015Z" transform="translate(-55.141 -51.014)" fill="#263238"/>
        <path id="Path_84760" data-name="Path 84760" d="M301.111,229.745H269.858a1.508,1.508,0,0,1,0-3.015h31.253a1.508,1.508,0,1,1,0,3.015Z" transform="translate(-87.736 -47.699)" fill="#263238"/>
        <path id="Path_84761" data-name="Path 84761" d="M331.435,229.745H297.318a1.508,1.508,0,1,1,0-3.015h34.118a1.508,1.508,0,1,1,0,3.015Z" transform="translate(-73.796 -47.699)" fill="#263238"/>
        <g id="Group_46335" data-name="Group 46335" transform="translate(263.88 179.031)" opacity="0.2">
          <path id="Path_84762" data-name="Path 84762" d="M380.418,229.745h-55.33a1.508,1.508,0,0,1,0-3.015h55.33a1.508,1.508,0,1,1,0,3.015Z" transform="translate(-323.58 -226.73)" fill="#263238"/>
        </g>
        <g id="Group_46336" data-name="Group 46336" transform="translate(154.969 188.876)" opacity="0.2">
          <path id="Path_84763" data-name="Path 84763" d="M294.9,236.275H252.848a1.508,1.508,0,0,1,0-3.015H294.9a1.508,1.508,0,0,1,0,3.015Z" transform="translate(-251.34 -233.26)" fill="#263238"/>
        </g>
        <path id="Path_84764" data-name="Path 84764" d="M300.157,242.8H252.848a1.508,1.508,0,1,1,0-3.015h47.309a1.508,1.508,0,1,1,0,3.015Z" transform="translate(-96.371 -41.074)" fill="#407bff"/>
        <path id="Path_84765" data-name="Path 84765" d="M360.648,242.8H289.368a1.508,1.508,0,1,1,0-3.015h71.281a1.508,1.508,0,1,1,0,3.015Z" transform="translate(-77.832 -41.074)" fill="#263238"/>
        <path id="Path_84766" data-name="Path 84766" d="M385.209,242.8H342.378a1.508,1.508,0,1,1,0-3.015h42.832a1.508,1.508,0,1,1,0,3.015Z" transform="translate(-50.923 -41.074)" fill="#263238"/>
        <g id="Group_46337" data-name="Group 46337" transform="translate(170 208.55)" opacity="0.2">
          <path id="Path_84767" data-name="Path 84767" d="M289.955,249.325H262.818a1.508,1.508,0,0,1,0-3.015h27.137a1.508,1.508,0,1,1,0,3.015Z" transform="translate(-261.31 -246.31)" fill="#263238"/>
        </g>
        <g id="Group_46338" data-name="Group 46338" transform="translate(206.379 208.55)" opacity="0.2">
          <path id="Path_84768" data-name="Path 84768" d="M338.9,249.325H286.948a1.508,1.508,0,0,1,0-3.015H338.9a1.508,1.508,0,0,1,0,3.015Z" transform="translate(-285.44 -246.31)" fill="#263238"/>
        </g>
        <path id="Path_84769" data-name="Path 84769" d="M378.869,249.325H328.138a1.508,1.508,0,0,1,0-3.015h50.732a1.508,1.508,0,1,1,0,3.015Z" transform="translate(-58.151 -37.76)" fill="#263238"/>
        <path id="Path_84770" data-name="Path 84770" d="M304.789,255.855H272.858a1.508,1.508,0,0,1,0-3.015h31.932a1.508,1.508,0,0,1,0,3.015Z" transform="translate(-86.213 -34.445)" fill="#263238"/>
        <g id="Group_46339" data-name="Group 46339" transform="translate(223.627 218.395)" opacity="0.2">
          <path id="Path_84771" data-name="Path 84771" d="M328.8,255.855H298.388a1.508,1.508,0,0,1,0-3.015H328.8a1.508,1.508,0,0,1,0,3.015Z" transform="translate(-296.88 -252.84)" fill="#263238"/>
        </g>
        <path id="Path_84772" data-name="Path 84772" d="M380.519,255.855H324.888a1.508,1.508,0,0,1,0-3.015h55.632a1.508,1.508,0,0,1,0,3.015Z" transform="translate(-59.801 -34.445)" fill="#407bff"/>
        <g id="Group_46340" data-name="Group 46340" transform="translate(185.137 228.24)" opacity="0.2">
          <path id="Path_84773" data-name="Path 84773" d="M311.89,262.385H272.858a1.508,1.508,0,0,1,0-3.015H311.89a1.508,1.508,0,0,1,0,3.015Z" transform="translate(-271.35 -259.37)" fill="#263238"/>
        </g>
        <path id="Path_84774" data-name="Path 84774" d="M375,185.423a2.578,2.578,0,1,0,.75-1.833,2.593,2.593,0,0,0-.75,1.833Z" transform="translate(-33.597 -69.984)" fill="#fff" opacity="0.4"/>
        <circle id="Ellipse_1210" data-name="Ellipse 1210" cx="2.578" cy="2.578" r="2.578" transform="translate(332.417 112.861)" fill="#fff" opacity="0.4"/>
        <circle id="Ellipse_1211" data-name="Ellipse 1211" cx="2.578" cy="2.578" r="2.578" transform="translate(323.356 112.861)" fill="#fff" opacity="0.4"/>
      </g>
      <g id="freepik--speech-bubble--inject-76" transform="translate(56.506 198.133)">
        <path id="Path_84775" data-name="Path 84775" d="M132.332,186.42h-43.3A13.327,13.327,0,0,0,75.69,199.747v37.691a13.327,13.327,0,0,0,13.327,13.343h30.71l9.046,11.9v-11.9h3.543a13.343,13.343,0,0,0,13.343-13.343V199.747a13.327,13.327,0,0,0-13.327-13.327Z" transform="translate(-75.69 -186.42)" fill="#407bff"/>
        <path id="Path_84776" data-name="Path 84776" d="M132.332,186.42h-43.3A13.327,13.327,0,0,0,75.69,199.747v37.691a13.327,13.327,0,0,0,13.327,13.343h30.71l9.046,11.9v-11.9h3.543a13.343,13.343,0,0,0,13.343-13.343V199.747a13.327,13.327,0,0,0-13.327-13.327Z" transform="translate(-75.69 -186.42)" fill="#fff" opacity="0.7"/>
        <path id="Path_84777" data-name="Path 84777" d="M100.9,220.422a2.005,2.005,0,0,1-1.508-.694l-8.428-9.86a1.979,1.979,0,0,1,3.015-2.563l6.92,8.171L112.347,202a1.975,1.975,0,0,1,3.015,2.548l-12.951,15.212a1.975,1.975,0,0,1-1.508.663Z" transform="translate(-68.173 -178.841)" fill="#fff"/>
        <circle id="Ellipse_1212" data-name="Ellipse 1212" cx="21.499" cy="21.499" r="21.499" transform="translate(4.58 32.004) rotate(-45)" fill="#407bff"/>
      </g>
      <g id="freepik--Character--inject-76" transform="translate(44.349 257.437)">
        <path id="Path_84778" data-name="Path 84778" d="M205.822,364.013l32.369-1.583-3.151,28.147s-22.464,4.282-32.489-11.7Z" transform="translate(0.866 -156.376)" fill="#ebb376"/>
        <path id="Path_84779" data-name="Path 84779" d="M248.117,372.245l-7.372,20.413L224.1,390.577l3.151-28.147Z" transform="translate(11.805 -156.376)" fill="#ebb376"/>
        <path id="Path_84780" data-name="Path 84780" d="M204.861,424.126a132.325,132.325,0,0,0,33.288-24.71l-2.216-20.971c-30.59,4.523-48.244,10.991-48.244,10.991s11.337-40.631.965-55.436l-28.479,5.156s-30.258,62.9-9.905,84.97Z" transform="translate(-29.247 -170.808)" fill="#407bff"/>
        <path id="Path_84781" data-name="Path 84781" d="M204.826,424.131a132.671,132.671,0,0,0,33.319-24.7l-2.2-21c-29.61,4.342-47.113,10.553-48.244,10.96.377-1.508,11.1-40.872.935-55.405l-28.479,5.156a221.066,221.066,0,0,0-13.885,39.289c-4.071,17.172-5.262,35.671,4,45.7Z" transform="translate(-29.256 -170.813)" fill="#fff" opacity="0.7"/>
        <path id="Path_84782" data-name="Path 84782" d="M181.377,420.684c10.056-63.712,1.146-79.9,1.146-79.9l-36.183,34.178c-4.071,17.172-5.262,35.671,4,45.7Z" transform="translate(-29.22 -167.366)" opacity="0.2"/>
        <path id="Path_84783" data-name="Path 84783" d="M203.544,436.2c6.784-32.2,14.4-82.618,13.569-90.126-1.206-10.915-60.577-57.682-112.107-23.64C94.452,329.383,89.069,404.358,87.23,436.2Z" transform="translate(-57.674 -182.88)" fill="#407bff"/>
        <path id="Path_84784" data-name="Path 84784" d="M203.544,436.2c6.784-32.2,14.4-82.633,13.569-90.141-1.206-10.9-60.592-57.667-112.122-23.61-3.814,2.548-6.95,14.051-9.543,29.248-3.437,20.685-5.819,48.154-7.237,68.869-.392,5.865-.724,11.172-.98,15.634Z" transform="translate(-57.674 -182.878)" fill="#fff" opacity="0.7"/>
        <path id="Path_84785" data-name="Path 84785" d="M169.085,226.953c-17.865-7.222-59.989,18.695-63.682,64.9s19.735,33.409,19.735,33.409,4.176,17.624,21.242,12.182c0,0,14.1,15.966,27.213,9.468,0,0,16.328,17.006,25.087,8.036,0,0,9.528,10.87,18.227,2.638s33.56-92.267-5.443-111.7S169.085,226.953,169.085,226.953Z" transform="translate(-48.65 -225.756)" fill="#263238"/>
        <path id="Path_84786" data-name="Path 84786" d="M149.124,363.158l-1.719-.151c1.99-22.253-2.91-32.1-3.015-32.188l1.508-.8C146.184,330.367,151.159,340.272,149.124,363.158Z" transform="translate(-28.658 -172.828)" fill="#263238"/>
        <path id="Path_84787" data-name="Path 84787" d="M154.533,363.806c-11.835-27.876,1.508-34.374,2.05-34.676l.709,1.508-.362-.784.362.784c-.121,0-12.3,6.166-1.176,32.4Z" transform="translate(-25.987 -173.28)" fill="#263238"/>
        <path id="Path_84788" data-name="Path 84788" d="M170.595,352.374s-22.841-18.092-58.3-28.283l-11.383,5.337S81.825,305.8,113.636,298.069s75.08,13.569,85.935,31.811S180.7,354,180.7,354,177.967,350.293,170.595,352.374Z" transform="translate(-53.612 -189.875)" fill="#407bff"/>
        <path id="Path_84789" data-name="Path 84789" d="M170.595,352.374s-22.841-18.092-58.3-28.283l-11.383,5.337S81.825,305.8,113.636,298.069s75.08,13.569,85.935,31.811S180.7,354,180.7,354,177.967,350.293,170.595,352.374Z" transform="translate(-53.612 -189.875)" fill="#fff" opacity="0.6"/>
        <path id="Path_84790" data-name="Path 84790" d="M155.375,352.418a1.508,1.508,0,1,1-1.508-1.508A1.508,1.508,0,0,1,155.375,352.418Z" transform="translate(-24.612 -162.224)" fill="#fff"/>
        <path id="Path_84791" data-name="Path 84791" d="M148.885,352.418a1.508,1.508,0,1,1-1.508-1.508A1.508,1.508,0,0,1,148.885,352.418Z" transform="translate(-27.907 -162.224)" fill="#fff"/>
        <path id="Path_84792" data-name="Path 84792" d="M143.739,277c-1.387,16.177-6.347,44.973-19.509,51.259,0,0,14.714,3.015,37.691,32.128,13.071-9.166,8.126-15.423,8.126-15.423-15.287-10.026-11.322-22.388-5.141-33.168Z" transform="translate(-38.892 -199.743)" fill="#ebb376"/>
        <path id="Path_84793" data-name="Path 84793" d="M143.82,286.41l12.528,20.655a48.025,48.025,0,0,0-3.784,7.84c-6.031-3.226-12.634-13.448-11.383-20.443A23.76,23.76,0,0,1,143.82,286.41Z" transform="translate(-30.365 -194.966)" opacity="0.2"/>
        <path id="Path_84794" data-name="Path 84794" d="M137.234,263.905c-4.206,25.419-6.528,36.063,2.895,52.42,14.157,24.62,45.53,25.78,57.064,2.5,10.373-20.956,15.514-59.009-6.136-75.8C169.694,226.471,141.41,238.471,137.234,263.905Z" transform="translate(-34.152 -220.856)" fill="#ebb376"/>
        <path id="Path_84795" data-name="Path 84795" d="M193.71,233.6c16.478,9.136,32.173,37.691,8.729,30.56-3.543,6.86-16.162.573-23.5-7.659-1.236,5.714-14.745,11.443-24.695,2.593,4.809,6.935-3.377,24.439-11.9,21.423s-27.635-6.98-10.7-33.967S176.115,223.815,193.71,233.6Z" transform="translate(-38.568 -225.588)" fill="#263238"/>
        <path id="Path_84796" data-name="Path 84796" d="M167.616,270.22s1.508,10.086,4.372,15.559c-3.211,1.854-7.538-.618-7.538-.618Z" transform="translate(-18.475 -203.184)" fill="#d58745"/>
        <path id="Path_84797" data-name="Path 84797" d="M158.776,286.729A19.6,19.6,0,0,0,162.108,288a.573.573,0,0,0,.724-.452.648.648,0,0,0-.467-.784,18,18,0,0,1-11.7-10.267.618.618,0,0,0-.784-.422.633.633,0,0,0-.347.814,18.921,18.921,0,0,0,9.242,9.845Z" transform="translate(-26.069 -200.23)" fill="#263238"/>
        <path id="Path_84798" data-name="Path 84798" d="M127.642,270.948a20.669,20.669,0,0,0,9.619,12.528c6.136,3.362,10.553-2.4,10.1-9.558-.467-6.468-4.236-16-10.96-16.373S125.818,264.269,127.642,270.948Z" transform="translate(-37.389 -209.626)" fill="#ebb376"/>
        <path id="Path_84799" data-name="Path 84799" d="M154.784,256.045a1.146,1.146,0,0,0,.965,0,9.332,9.332,0,0,1,8.774-.151,1.146,1.146,0,0,0,1.643-.452,1.372,1.372,0,0,0-.5-1.764,11.549,11.549,0,0,0-11.1,0,1.3,1.3,0,0,0-.482,1.719,1.372,1.372,0,0,0,.694.648Z" transform="translate(-23.81 -212.302)" fill="#263238"/>
        <path id="Path_84800" data-name="Path 84800" d="M183.972,264.814a1.116,1.116,0,0,0,.9.09,1.236,1.236,0,0,0,.769-1.6,13.222,13.222,0,0,0-7.855-8.714,1.146,1.146,0,0,0-1.508.859,1.357,1.357,0,0,0,.874,1.6,10.553,10.553,0,0,1,6.151,6.98A1.327,1.327,0,0,0,183.972,264.814Z" transform="translate(-12.488 -211.151)" fill="#263238"/>
        <path id="Path_84801" data-name="Path 84801" d="M161.631,267.36c-.739,2.02-2.427,3.241-3.769,2.744s-1.824-2.518-1.085-4.523,2.427-3.241,3.754-2.744S162.355,265.355,161.631,267.36Z" transform="translate(-22.546 -206.988)" fill="#263238"/>
        <path id="Path_84802" data-name="Path 84802" d="M158.76,262.766l5.005-.105S160.237,265.525,158.76,262.766Z" transform="translate(-21.364 -207.022)" fill="#263238"/>
        <path id="Path_84803" data-name="Path 84803" d="M178.419,272.688c-.739,2.005-2.427,3.226-3.754,2.744s-1.839-2.533-1.1-4.523,2.427-3.226,3.769-2.744S179.158,270.668,178.419,272.688Z" transform="translate(-14.021 -204.28)" fill="#263238"/>
        <path id="Path_84804" data-name="Path 84804" d="M175.56,268.086l4.99-.106S177.022,270.86,175.56,268.086Z" transform="translate(-12.835 -204.321)" fill="#263238"/>
        <path id="Path_84805" data-name="Path 84805" d="M162.119,284.442a11.08,11.08,0,0,1-4.523-.95,11.443,11.443,0,0,1-6.242-7.3,15.272,15.272,0,0,1,7.975-17.865,11.247,11.247,0,0,1,15.875,7.086,14.85,14.85,0,0,1-.769,10.372h0a14.835,14.835,0,0,1-7.222,7.538A12.06,12.06,0,0,1,162.119,284.442Zm2.367-25.554a10.554,10.554,0,0,0-4.327,1.055,13.569,13.569,0,0,0-7.056,15.8,9.5,9.5,0,0,0,13.493,6.03,13.131,13.131,0,0,0,6.377-6.619l.784.347-.784-.347a13.147,13.147,0,0,0,.678-9.181,9.709,9.709,0,0,0-5.307-6.226,9.045,9.045,0,0,0-3.86-.859Z" transform="translate(-25.416 -209.823)" fill="#263238"/>
        <path id="Path_84806" data-name="Path 84806" d="M178.761,289.544a10.794,10.794,0,0,1-4.523-.95,11.5,11.5,0,0,1-6.257-7.3,15.3,15.3,0,0,1,7.99-17.865,11.217,11.217,0,0,1,15.86,7.086,14.76,14.76,0,0,1-.754,10.373h0a14.021,14.021,0,0,1-12.317,8.654Zm2.4-25.63a10.552,10.552,0,0,0-4.4,1,13.222,13.222,0,0,0-6.377,6.634,13.011,13.011,0,0,0-.678,9.166,9.739,9.739,0,0,0,5.307,6.242c5.277,2.367,11.82-.709,14.564-6.83h0a13.222,13.222,0,0,0,.678-9.182,9.755,9.755,0,0,0-5.307-6.226,9.424,9.424,0,0,0-3.784-.724Z" transform="translate(-16.972 -207.236)" fill="#263238"/>
        <path id="Path_84807" data-name="Path 84807" d="M168.856,270.665a.769.769,0,0,0-.437-.482,3.136,3.136,0,0,0-1.945.286l-.754-1.508a4.629,4.629,0,0,1,3.317-.347,2.472,2.472,0,0,1,1.508,1.508Z" transform="translate(-17.831 -204.081)" fill="#263238"/>
        <rect id="Rectangle_19439" data-name="Rectangle 19439" width="1.729" height="21.381" transform="translate(109.278 52.1) rotate(-72.646)" fill="#263238"/>
        <path id="Path_84808" data-name="Path 84808" d="M162.357,380.125S122.691,410.519,87.88,408.77c1.417-20.715,3.8-48.244,7.237-68.868,3.558-3.92,5.895-6.3,5.895-6.3l21.107,15.785-5.141,6.453s31.947-1.628,43.073,0Z" transform="translate(-57.344 -171.011)" opacity="0.2"/>
        <path id="Path_84809" data-name="Path 84809" d="M140.335,350.483,172.086,344l1.131,28.313s-21.544,7.629-33.876-6.649Z" transform="translate(-31.222 -165.731)" fill="#ebb376"/>
        <path id="Path_84810" data-name="Path 84810" d="M183.162,350.568l-4.191,21.288-16.78.467L161.06,344.01Z" transform="translate(-20.196 -165.726)" fill="#ebb376"/>
        <path id="Path_84811" data-name="Path 84811" d="M143.274,348.3l1.553,21.846-7.9,3.543L133.55,348.3Z" transform="translate(-34.161 -163.549)" fill="#407bff"/>
        <path id="Path_84812" data-name="Path 84812" d="M143.274,348.3l1.553,21.846-7.9,3.543L133.55,348.3Z" transform="translate(-34.161 -163.549)" fill="#fff" opacity="0.6"/>
        <path id="Path_84813" data-name="Path 84813" d="M126.309,314.78a36.726,36.726,0,0,0-21.785,12.6C94.95,338.631,61.21,372.04,68.7,399.313s79.648,6.98,101.69-8.609l-3.377-25.388-49.978,3.664,15.408-10.146C143.014,329.434,126.309,314.78,126.309,314.78Z" transform="translate(-67.626 -180.564)" fill="#407bff"/>
        <path id="Path_84814" data-name="Path 84814" d="M126.309,314.78a36.726,36.726,0,0,0-21.785,12.6C94.95,338.631,61.21,372.04,68.7,399.313s79.648,6.98,101.69-8.609l-3.377-25.388-49.978,3.664,15.408-10.146C143.014,329.434,126.309,314.78,126.309,314.78Z" transform="translate(-67.626 -180.564)" fill="#fff" opacity="0.7"/>
        <path id="Path_84815" data-name="Path 84815" d="M202.56,364.313l9.091-1.523v24.363l-7.206,1.176Z" transform="translate(0.871 -156.193)" fill="#407bff"/>
        <path id="Path_84816" data-name="Path 84816" d="M202.56,364.313l9.091-1.523v24.363l-7.206,1.176Z" transform="translate(0.871 -156.193)" fill="#fff" opacity="0.6"/>
        <path id="Path_84817" data-name="Path 84817" d="M197.583,382.745a29.311,29.311,0,0,1,.2-4l.271-2.005-1.945,1.146-1.161.693a9.293,9.293,0,0,1-1.176.437,3.5,3.5,0,0,1-2.111,0,3.874,3.874,0,0,1-1.689-1.221,7.072,7.072,0,0,1-1.191-2.05l-1.7-4.749-1.206,5.035c-.121.5-.2,1.01-.286,1.508a13.791,13.791,0,0,1-.437,1.4,4.523,4.523,0,0,1-1.4,1.915,3.015,3.015,0,0,1-2.277.2,9.392,9.392,0,0,1-2.684-1.176l-2.623-1.643,1.055,2.668a22.434,22.434,0,0,1,1.085,3.5,10.629,10.629,0,0,1,.241,1.809,2.865,2.865,0,0,1-.392,1.779,2.9,2.9,0,0,0,1.025-1.689,8.111,8.111,0,0,0,.271-1.99,13.772,13.772,0,0,0,0-1.583,12.582,12.582,0,0,0,1.357.663,5.352,5.352,0,0,0,4.3-.105,6.452,6.452,0,0,0,2.819-3.2v-.2a5.744,5.744,0,0,0,6.709,1.432,10.319,10.319,0,0,0,1.281-.694v.166a20.155,20.155,0,0,0,.437,2.111,11,11,0,0,0,.754,2.035,4.689,4.689,0,0,0,1.312,1.689,5.248,5.248,0,0,1-.648-1.915,14.8,14.8,0,0,1-.181-1.975Z" transform="translate(-12.531 -152.025)" fill="#407bff"/>
        <path id="Path_84818" data-name="Path 84818" d="M236.47,359.849a8.623,8.623,0,0,1-3.483-.377,12.638,12.638,0,0,1-3.272-1.508,9.8,9.8,0,0,1-2.427-2.608,13.57,13.57,0,0,1-1.613-3.241l-1-3.015-1.689,2.669a14.5,14.5,0,0,1-2.593,3.015,4.855,4.855,0,0,1-3.015,1.387h-.362l-.452-.09a4.22,4.22,0,0,1-.935-.226,11.278,11.278,0,0,1-1.824-.784,15.632,15.632,0,0,1-3.241-2.412l-2.623-2.518.543,3.452a27.682,27.682,0,0,1,.347,5.578,7.75,7.75,0,0,1-.528,2.563,1.7,1.7,0,0,1-1.839,1.055h-.678l.211.558q.663,1.7,1.357,3.392c-.136-1.01-.3-2.02-.482-3.015h.286a4.769,4.769,0,0,0,.889-.151,7.027,7.027,0,0,0,.8-.482c.2-.211.407-.437.588-.663a7.945,7.945,0,0,0,1.131-3.015,19.189,19.189,0,0,0,.332-3.015h0a17.2,17.2,0,0,0,1.508,1.116,13.361,13.361,0,0,0,2.231,1.1,7.812,7.812,0,0,0,2.608.588,7.644,7.644,0,0,0,5.035-1.99,13.99,13.99,0,0,0,1.643-1.628,17.2,17.2,0,0,0,.965,1.508,12.484,12.484,0,0,0,3.317,3.151,12.934,12.934,0,0,0,4.176,1.628,12.18,12.18,0,0,0,2.88.211c-.121.3-.256.6-.362.92a20.484,20.484,0,0,0-.618,2.653,10.375,10.375,0,0,0-.121,2.729,5.4,5.4,0,0,0,.8,2.563,5.638,5.638,0,0,1-.2-2.548,12.969,12.969,0,0,1,.588-2.488,25.633,25.633,0,0,1,2.186-4.523l.95-1.613Z" transform="translate(2.51 -163.142)" fill="#407bff"/>
      </g>
      <g id="freepik--Table--inject-76" transform="translate(31.675 510.303)">
        <path id="Path_84819" data-name="Path 84819" d="M6.694,0H535.42a6.694,6.694,0,0,1,6.694,6.694V22.976H0V6.694A6.694,6.694,0,0,1,6.694,0Z" transform="translate(559.964 32.942) rotate(180)" fill="#407bff"/>
        <rect id="Rectangle_19440" data-name="Rectangle 19440" width="542.129" height="11.488" transform="translate(559.964 21.439) rotate(180)" opacity="0.2"/>
        <path id="Path_84820" data-name="Path 84820" d="M65.7,406.431H630.552a6.483,6.483,0,0,0,6.483-6.468h0a6.483,6.483,0,0,0-6.483-6.483H65.7a6.483,6.483,0,0,0-6.483,6.483h0A6.483,6.483,0,0,0,65.7,406.431Z" transform="translate(-59.22 -393.48)" fill="#407bff"/>
      </g>
      <g id="freepik--device-2--inject-76" transform="translate(405.779 427.62)">
        <path id="Path_84821" data-name="Path 84821" d="M451.673,342.2,435.18,417.007a5.623,5.623,0,0,1-5.352,4.251h-90.1a3.634,3.634,0,0,1-3.377-4.7l16.463-74.236a5.156,5.156,0,0,1,5.352-3.664h90.1C450.678,338.716,452.2,339.816,451.673,342.2Z" transform="translate(-292.723 -338.636)" fill="#263238"/>
        <path id="Path_84822" data-name="Path 84822" d="M450.648,342.2l-16.493,74.809a5.624,5.624,0,0,1-5.352,4.251H341.767a3.633,3.633,0,0,1-3.392-4.7l16.493-74.236a5.111,5.111,0,0,1,5.352-3.664h87.02C449.653,338.717,451.175,339.817,450.648,342.2Z" transform="translate(-291.698 -338.637)" fill="#fff" opacity="0.4"/>
        <path id="Path_84823" data-name="Path 84823" d="M435.6,418.165,452,343.749c.543-2.442-.98-3.543-3.407-3.543h-87.02a5.141,5.141,0,0,0-5.352,3.664L339.56,419.145Z" transform="translate(-291.014 -337.85)" fill="#407bff"/>
        <path id="Path_84824" data-name="Path 84824" d="M451.994,343.734l-8.654,39.319-7.764,35.113-51.41.528-44.6.437,16.584-75.261a5.111,5.111,0,0,1,5.337-3.664h87.126C451.029,340.206,452.537,341.322,451.994,343.734Z" transform="translate(-291.009 -337.85)" fill="#fff" opacity="0.4"/>
        <path id="Path_84825" data-name="Path 84825" d="M442.7,368.62l-7.764,35.113-51.41.528h-42.7l6.98-32.112a4.523,4.523,0,0,1,4.372-3.528Z" transform="translate(-290.37 -323.417)" opacity="0.2"/>
        <path id="Path_84826" data-name="Path 84826" d="M444.823,373.1a5.111,5.111,0,0,0-5.352-3.648H352.45c-2.412,0-3.935,1.085-3.407,3.528l6.6,29.941h-14.7a1.387,1.387,0,1,0,0,2.774H448.139a3.151,3.151,0,0,0,3.015-3.844Z" transform="translate(-291.014 -323.007)" fill="#407bff"/>
        <path id="Path_84827" data-name="Path 84827" d="M444.823,373.1a5.111,5.111,0,0,0-5.352-3.648H352.45c-2.412,0-3.935,1.085-3.407,3.528l6.6,29.941h-14.7a1.387,1.387,0,1,0,0,2.774H448.139a3.151,3.151,0,0,0,3.015-3.844Z" transform="translate(-291.014 -323.007)" fill="#fff" opacity="0.4"/>
        <path id="Path_84828" data-name="Path 84828" d="M340.664,383.91h-5.051l-.633,2.729h4.915Z" transform="translate(-293.339 -315.655)"/>
        <path id="Path_84829" data-name="Path 84829" d="M322.768,398.517H308.219a.844.844,0,0,1-.859-.859.859.859,0,0,1,.859-.859h14.549a15.906,15.906,0,0,0,12.438-5.955A17.61,17.61,0,0,1,349,384.24h2.563a.874.874,0,0,1,.859.859.859.859,0,0,1-.859.859h-2.533a15.905,15.905,0,0,0-12.438,5.955A17.624,17.624,0,0,1,322.768,398.517Z" transform="translate(-307.36 -315.488)"/>
      </g>
      <g id="freepik--device-1--inject-76" transform="translate(178.76 374.767)">
        <path id="Path_84830" data-name="Path 84830" d="M156.78,386.65v6.287c0,2.834,3.422,4.01,6.257,4.01H384.025c2.8,0,6.136-1.176,6.136-4.01V386.65Z" transform="translate(-156.78 -261.411)" fill="#263238"/>
        <path id="Path_84831" data-name="Path 84831" d="M156.78,386.65v6.287c0,2.834,3.422,4.01,6.257,4.01H384.025c2.8,0,6.136-1.176,6.136-4.01V386.65Z" transform="translate(-156.78 -261.411)" fill="#fff" opacity="0.4"/>
        <path id="Path_84832" data-name="Path 84832" d="M206.72,386.65v6.287c0,2.834,3.362,4.01,6.2,4.01H358.674c2.8,0,6.136-1.176,6.136-4.01V386.65Z" transform="translate(-131.429 -261.411)" opacity="0.2"/>
        <path id="Path_84833" data-name="Path 84833" d="M398.112,309.234,371.8,428.563a8.955,8.955,0,0,1-8.533,6.815H219.548c-3.814,0-6.287-3.573-5.4-7.538l26.278-118.424c.889-3.89,4.689-5.835,8.548-5.835H392.685C396.544,303.6,398.971,305.344,398.112,309.234Z" transform="translate(-127.749 -303.58)" fill="#263238"/>
        <path id="Path_84834" data-name="Path 84834" d="M396.475,309.234,370.167,428.563a8.955,8.955,0,0,1-8.533,6.815H222.8c-3.86,0-6.287-3.573-5.427-7.538l26.308-118.424c.859-3.89,4.689-5.835,8.548-5.835H391.047C394.907,303.6,397.334,305.344,396.475,309.234Z" transform="translate(-126.111 -303.58)" fill="#fff" opacity="0.4"/>
        <path id="Path_84835" data-name="Path 84835" d="M299.24,353.784h0c0,10.222-10.945,18.529-18.981,18.529s-12.785-8.307-10.553-18.529S279.973,335.617,287.8,335.3c-2.292,10.222,2.608,18.484,10.553,18.484A4.707,4.707,0,0,0,299.24,353.784Z" transform="translate(-99.735 -287.478)" opacity="0.2"/>
      </g>
    </g>
  </g>
</svg>
