<svg xmlns="http://www.w3.org/2000/svg" width="50" height="50" viewBox="0 0 50 50">
  <g id="enterprises" transform="translate(-800 -1480)">
    <rect id="Rectangle_27" data-name="Rectangle 27" width="50" height="50" rx="10" transform="translate(800 1480)" fill="#90c6e9"/>
    <g id="Group_46474" data-name="Group 46474" transform="translate(698 1285.134)">
      <path id="Path_84855" data-name="Path 84855" d="M114,231.485V208.428a1.206,1.206,0,0,0,.054-.133,1.863,1.863,0,0,1,2.1-1.409c1.025.14,2.046.307,3.068.462l6.111.93c.874.133,1.749.263,2.622.4a1.916,1.916,0,0,1,1.548,1.985q-.022,10.71-.008,21.421c0,.083-.008.166-.012.249h-4.511c0-.1-.012-.2-.012-.3q0-2.58,0-5.159a1.872,1.872,0,0,0-2.009-2.022q-1.2,0-2.4,0a1.858,1.858,0,0,0-2,2q0,2.63,0,5.259c0,.075.008.15.012.224h-3.709A1.27,1.27,0,0,1,114,231.485Zm5.1-20.26h0c-.284,0-.568-.009-.851,0a.79.79,0,0,0-.769.745.765.765,0,0,0,.675.827,15.117,15.117,0,0,0,1.849,0,.75.75,0,0,0,.676-.844.781.781,0,0,0-.778-.731C119.629,211.217,119.362,211.224,119.1,211.224Zm-.008,3.209c-.284,0-.568-.009-.851,0a.789.789,0,0,0-.762.752.758.758,0,0,0,.658.815,14.9,14.9,0,0,0,1.9,0,.74.74,0,0,0,.643-.844.779.779,0,0,0-.76-.722C119.638,214.425,119.363,214.433,119.087,214.433Zm0,3.208c-.284,0-.568-.009-.851,0a.789.789,0,0,0-.762.752.758.758,0,0,0,.658.815,14.9,14.9,0,0,0,1.9,0,.74.74,0,0,0,.643-.844.779.779,0,0,0-.76-.722C119.638,217.632,119.363,217.641,119.087,217.641Zm0,3.208c-.284,0-.568-.009-.851,0a.789.789,0,0,0-.762.752.758.758,0,0,0,.658.815,14.885,14.885,0,0,0,1.9,0,.74.74,0,0,0,.643-.844.779.779,0,0,0-.76-.722C119.638,220.84,119.363,220.849,119.087,220.849Zm5.343-9.625c-.275,0-.551-.007-.826,0a.791.791,0,0,0-.781.732.754.754,0,0,0,.658.837,14.87,14.87,0,0,0,1.9,0,.75.75,0,0,0,.647-.822.8.8,0,0,0-.77-.744C124.982,211.217,124.706,211.225,124.431,211.224Zm0,3.209v0h-.8l-.05,0a.8.8,0,0,0-.76.728.753.753,0,0,0,.654.84,14.646,14.646,0,0,0,1.9,0,.753.753,0,0,0,.65-.843.8.8,0,0,0-.765-.723C124.986,214.425,124.71,214.433,124.435,214.433Zm.006,3.207c-.275,0-.551-.007-.826,0a.792.792,0,0,0-.792.747.768.768,0,0,0,.7.833,15.977,15.977,0,0,0,1.8,0,.769.769,0,0,0,.706-.826.8.8,0,0,0-.785-.755C124.976,217.633,124.708,217.64,124.441,217.64Zm-.008,3.209h-.8l-.05,0a.8.8,0,0,0-.758.73.753.753,0,0,0,.656.839,14.856,14.856,0,0,0,1.9,0,.75.75,0,0,0,.649-.82.794.794,0,0,0-.768-.746C124.984,220.84,124.709,220.849,124.433,220.849Z" transform="translate(0)" fill="#fff"/>
      <path id="Path_84856" data-name="Path 84856" d="M362.075,369.307c0-.1-.012-.2-.012-.3q0-7.5,0-15.006v-.356l1.322.274c2.048.43,4.1.863,6.145,1.288a1.871,1.871,0,0,1,1.582,1.5.29.29,0,0,0,.035.066V367.7a6.289,6.289,0,0,1-.4.87,1.875,1.875,0,0,1-1.2.734Zm4.284-11.227c-.267,0-.534,0-.8,0a.8.8,0,1,0-.01,1.6q.789.01,1.578,0a.8.8,0,1,0-.015-1.6C366.86,358.076,366.61,358.079,366.359,358.079Zm-.034,4.811c.259,0,.518,0,.776,0a.8.8,0,1,0,.007-1.6q-.777-.007-1.553,0a.8.8,0,1,0-.007,1.6C365.808,362.9,366.067,362.891,366.326,362.891Zm.008,3.207c.276,0,.551.008.827,0a.8.8,0,0,0-.009-1.6q-.814-.015-1.628,0a.794.794,0,0,0-.79.8.8.8,0,0,0,.8.8C365.8,366.1,366.066,366.1,366.334,366.1Z" transform="translate(-231.485 -136.97)" fill="#fff"/>
    </g>
  </g>
</svg>
