<svg xmlns="http://www.w3.org/2000/svg" width="53.36" height="48.559" viewBox="0 0 53.36 48.559">
  <path id="enterprise-software-development" d="M6816.454,1597.559a22.21,22.21,0,0,1,.031-3.18c.186-1.295,1.628-2.226,3.233-2.243,1.853-.021,3.707-.007,5.561-.007h.639v-6.4h-.651q-6.487,0-12.978,0a4.007,4.007,0,0,1-4.1-2.858,4.587,4.587,0,0,1-.181-1.288q-.016-13.714-.005-27.431a3.991,3.991,0,0,1,4.113-4.144q22.058-.01,44.118,0a3.992,3.992,0,0,1,4.127,4.187q.005,13.608,0,27.214a4.032,4.032,0,0,1-4.331,4.32q-6.436.013-12.87,0h-.723v6.374c.2.009.389.024.58.024q2.753,0,5.508,0a3.855,3.855,0,0,1,2.214.649,2.543,2.543,0,0,1,1.229,2.237c-.014.833,0,1.668,0,2.545Zm-4.113-44.192c-.894,0-.966.072-.966.962q0,12,0,24v.577h45.617v-24.573c0-.89-.076-.964-.966-.964H6812.34Zm28.567,23.827c-.571-.007-.811-.219-.812-.776q-.015-3.319,0-6.639c0-.563.238-.778.806-.789s1.16-.007,1.74,0c.668.005.863.2.868.888.007,1.071,0,2.14,0,3.211s.005,2.14,0,3.209c-.005.714-.195.894-.913.9-.3,0-.6,0-.9,0Q6841.3,1577.2,6840.907,1577.195Zm-14.595,0a.66.66,0,0,1-.741-.74q-.01-1.661,0-3.32a.661.661,0,0,1,.708-.727c.671-.017,1.343-.019,2.013,0a.634.634,0,0,1,.676.692c.005.561,0,1.124,0,1.687h0c0,.544.009,1.088,0,1.632s-.217.761-.754.771c-.238,0-.476.005-.714.005C6827.1,1577.2,6826.708,1577.2,6826.313,1577.2Zm7.345,0c-.608-.007-.808-.2-.811-.825-.007-1.488,0-2.977,0-4.464,0-1.451,0-2.9,0-4.356,0-.7.177-.876.864-.885.6-.005,1.2,0,1.8,0a.667.667,0,0,1,.739.747q.005,4.52,0,9.039a.661.661,0,0,1-.739.744l-1.11,0Q6834.027,1577.2,6833.657,1577.195Zm14.456,0a.65.65,0,0,1-.742-.732q0-6.756,0-13.512a.687.687,0,0,1,.773-.771c.6-.009,1.2-.014,1.8,0,.628.016.827.231.827.882q.005,3.324,0,6.648,0,3.27,0,6.537c0,.785-.168.947-.966.949h-1.689Zm-27.808-7.419c-.031-.162-.256-.312-.425-.415s-.4-.1-.556-.21a1.334,1.334,0,0,0-1.647-.038c-.029.021-.084.05-.1.04-.408-.322-.828-.63-1.207-.985a.54.54,0,0,1-.119-.5c.694-.952-.195-1.66-.389-2.46-.042-.172-.512-.217-.748-.375a.932.932,0,0,1-.329-.456c-.055-.164.017-.365-.017-.541a.96.96,0,0,1,.838-1.283c.146-.033.286-.241.367-.4.155-.3.23-.654.4-.949a.757.757,0,0,0,.017-.9.719.719,0,0,1,.228-1.141.5.5,0,0,0,.115-.115.946.946,0,0,1,1.493-.322.775.775,0,0,0,.541-.017c.207-.059.386-.222.592-.269a1.364,1.364,0,0,0,1.173-1.1c.027-.124.27-.263.427-.282a4.093,4.093,0,0,1,.6-.016c.164,0,.329.005.491-.005.307-.021.492.088.551.386a1.118,1.118,0,0,0,1,.974.931.931,0,0,1,.4.165.969.969,0,0,0,1.241,0,.508.508,0,0,1,.784.16,1.21,1.21,0,0,0,.27.269.953.953,0,0,1,.324,1.495.8.8,0,0,0,.018.546c.057.207.22.389.261.6a1.354,1.354,0,0,0,1.111,1.164.5.5,0,0,1,.27.377c.033.506.014,1.016.014,1.593-.973.033-1.217.758-1.536,1.491a1.194,1.194,0,0,0,.021,1.259.483.483,0,0,1-.126.745,1.414,1.414,0,0,0-.308.308.948.948,0,0,1-1.493.315.643.643,0,0,0-.494-.005,5.238,5.238,0,0,0-1.2.506,1.591,1.591,0,0,0-.523.744c-.125.324-.282.475-.632.429a1.678,1.678,0,0,0-.491,0,2.047,2.047,0,0,1-.308.026A.845.845,0,0,1,6820.305,1569.778Zm1.208-9.163a3.176,3.176,0,1,0,.029,0Zm7.854,3.626a.85.85,0,0,1,.234-1.279c1.266-.976,2.541-1.937,3.813-2.9.115-.088.239-.169.346-.265a1.167,1.167,0,0,1,1.4-.188c1.99.882,4,1.718,5.99,2.595a.672.672,0,0,0,.857-.133c1.249-1.164,2.521-2.3,3.785-3.45.077-.071.168-.127.351-.262a5.038,5.038,0,0,1-.67-.084.82.82,0,0,1-.649-.888.77.77,0,0,1,.749-.8c.979-.04,1.963-.048,2.941,0a.722.722,0,0,1,.716.861c-.145.985-.339,1.966-.564,2.936a.677.677,0,0,1-.832.537,2.207,2.207,0,0,1-.777-.561c-.077-.069-.065-.234-.112-.43-.207.186-.377.336-.544.487-1.262,1.148-2.534,2.288-3.784,3.452a1.157,1.157,0,0,1-1.424.246c-2.021-.9-4.063-1.749-6.088-2.639a.708.708,0,0,0-.832.1c-1.1.864-2.221,1.7-3.335,2.545-.1.076-.2.155-.306.227a1.12,1.12,0,0,1-.624.212A.8.8,0,0,1,6829.368,1564.24Z" transform="translate(-6807.503 -1549.5)" fill="#43a5de" stroke="rgba(0,0,0,0)" stroke-width="1"/>
</svg>
