<svg xmlns="http://www.w3.org/2000/svg" width="49.04" height="53.835" viewBox="0 0 49.04 53.835">
  <path id="full-stack-app-development" d="M7.092,52.838A6.745,6.745,0,0,1,0,45.748Q0,26.362,0,6.978A6.73,6.73,0,0,1,5.713.087,7.667,7.667,0,0,1,7.033,0q10.8-.006,21.6,0a6.735,6.735,0,0,1,7,6.819c.009,2.3.007,4.608.005,6.913,0,.131-.02.263-.033.414a4.588,4.588,0,0,0-3.434,3.523c-.27.954-.619,1.885-.917,2.783a12.643,12.643,0,0,0-.916-1.911,4.175,4.175,0,0,0-6.226-.749c-2.024,1.881-3.974,3.847-5.866,5.861a4.062,4.062,0,0,0,0,5.523c1.891,2.016,3.88,3.94,5.858,5.871a3.827,3.827,0,0,0,2.57,1.021.669.669,0,0,1,.658.4,4.294,4.294,0,0,0,7.82-.533,5.627,5.627,0,0,1,.451-1c.01.119.033.238.033.357,0,3.554.019,7.106-.005,10.658a6.69,6.69,0,0,1-5.68,6.792,8.094,8.094,0,0,1-1.375.086q-6.64,0-13.282,0Zm5.943-9.821a1.846,1.846,0,1,0,0,3.683q4.774.009,9.549,0a1.847,1.847,0,1,0,0-3.683c-1.571-.006-3.143,0-4.717,0H15.108Q14.072,43.013,13.036,43.016ZM8.175,4.123c.445,1.122.876,2.25,1.349,3.361a3.578,3.578,0,0,0,3.5,2.336q4.808.028,9.616,0a3.587,3.587,0,0,0,3.5-2.348c.474-1.11.9-2.24,1.348-3.361a3.386,3.386,0,0,0,.1-.394H8.058C8.1,3.877,8.128,4,8.175,4.123ZM29.423,33.751c.874-2.658,1.765-5.31,2.65-7.963q1.317-3.953,2.638-7.906A1.885,1.885,0,0,1,36.63,16.53,1.817,1.817,0,0,1,38.3,18.159a2.369,2.369,0,0,1-.127.956Q35.569,27,32.937,34.881a1.911,1.911,0,0,1-1.808,1.433A1.86,1.86,0,0,1,29.423,33.751ZM25.6,33.1c-.976-.925-1.908-1.895-2.859-2.845-.814-.816-1.636-1.624-2.442-2.447a1.815,1.815,0,0,1-.014-2.756q2.594-2.621,5.213-5.217a1.845,1.845,0,1,1,2.615,2.6c-1.159,1.177-2.334,2.338-3.5,3.507-.148.146-.289.3-.474.494,1.341,1.341,2.627,2.633,3.921,3.917a1.867,1.867,0,0,1,.566,1.987A1.8,1.8,0,0,1,26.9,33.624,1.873,1.873,0,0,1,25.6,33.1Zm13.845-.008a1.852,1.852,0,0,1,.1-2.713c1.3-1.3,2.607-2.6,3.967-3.954-1.384-1.382-2.719-2.7-4.042-4.038a1.852,1.852,0,0,1-.338-2.221,1.76,1.76,0,0,1,2-.882,2.264,2.264,0,0,1,.975.556c1.756,1.719,3.489,3.458,5.218,5.2a1.817,1.817,0,0,1,.006,2.752Q44.738,30.411,42.122,33a2.013,2.013,0,0,1-1.412.617A1.78,1.78,0,0,1,39.448,33.09Z" transform="translate(0.5 0.495)" fill="#43a5de" stroke="rgba(0,0,0,0)" stroke-width="1"/>
</svg>
