<svg xmlns="http://www.w3.org/2000/svg" width="50" height="50" viewBox="0 0 50 50">
  <g id="industries" transform="translate(-1348 -1480)">
    <g id="Group_40" data-name="Group 40" transform="translate(488 64)">
      <rect id="Rectangle_27" data-name="Rectangle 27" width="50" height="50" rx="10" transform="translate(860 1416)" fill="#e8a0bf"/>
    </g>
    <g id="Group_46476" data-name="Group 46476" transform="translate(2564.177 1322.606)">
      <path id="Path_84859" data-name="Path 84859" d="M-1202.827,399.8c-.19-.049-.381-.094-.57-.148a3.832,3.832,0,0,1-2.748-4.1,3.813,3.813,0,0,1,3.767-3.387q11.473-.01,22.946,0a3.806,3.806,0,0,1,3.741,3.173,1.108,1.108,0,0,0,.056.164v.954a1.332,1.332,0,0,0-.056.164,3.792,3.792,0,0,1-2.742,3.037c-.177.057-.361.093-.542.139Zm8.121-5.082a1.251,1.251,0,0,0-1.276,1.254,1.252,1.252,0,0,0,1.254,1.276,1.253,1.253,0,0,0,1.276-1.254A1.252,1.252,0,0,0-1194.707,394.716Zm7.614,0a1.251,1.251,0,0,0-1.257,1.273,1.252,1.252,0,0,0,1.273,1.257,1.253,1.253,0,0,0,1.257-1.273A1.252,1.252,0,0,0-1187.093,394.716Zm-13.986,0a1.266,1.266,0,0,0-1.271,1.265,1.266,1.266,0,0,0,1.271,1.266,1.27,1.27,0,0,0,1.274-1.266A1.269,1.269,0,0,0-1201.078,394.716Zm20.355,2.531a1.268,1.268,0,0,0,1.271-1.267,1.267,1.267,0,0,0-1.273-1.264,1.271,1.271,0,0,0-1.273,1.266A1.271,1.271,0,0,0-1180.723,397.247Z" transform="translate(0 -203.942)" fill="#fff"/>
      <path id="Path_84860" data-name="Path 84860" d="M-1095.053,174.05a1.659,1.659,0,0,1-.64,1.377c-.283.218-.585.413-.857.644a.683.683,0,0,0-.179.361,1,1,0,0,0,.611,1.19,2.7,2.7,0,0,1,.456.334,1.547,1.547,0,0,1,.406,1.984q-.462.867-.961,1.714a1.507,1.507,0,0,1-1.984.63,4.327,4.327,0,0,1-.618-.293.783.783,0,0,0-1.016.032.593.593,0,0,0-.289.468c-.025.376-.05.754-.109,1.126a1.508,1.508,0,0,1-1.485,1.331c-.645.024-1.292.024-1.937,0a1.554,1.554,0,0,1-1.535-1.521c-.029-.306-.061-.613-.075-.921a.594.594,0,0,0-.3-.492.779.779,0,0,0-.989-.032,4.859,4.859,0,0,1-.673.315,1.5,1.5,0,0,1-1.9-.584c-.366-.6-.709-1.218-1.033-1.844a1.52,1.52,0,0,1,.449-1.923c.288-.228.6-.426.88-.663a.682.682,0,0,0,.176-.361,1,1,0,0,0-.611-1.189,2.747,2.747,0,0,1-.456-.334,1.543,1.543,0,0,1-.407-1.983q.465-.866.961-1.714a1.517,1.517,0,0,1,1.986-.629c.318.14.636.281.943.442a.435.435,0,0,0,.432-.029.865.865,0,0,0,.572-.949,3.671,3.671,0,0,1,.081-.8,1.514,1.514,0,0,1,1.488-1.329c.645-.023,1.292-.023,1.937,0a1.554,1.554,0,0,1,1.534,1.521c.03.306.062.613.075.92a.6.6,0,0,0,.3.492.771.771,0,0,0,.99.031,4.984,4.984,0,0,1,.673-.316,1.483,1.483,0,0,1,1.9.581c.365.6.7,1.221,1.031,1.845A2.671,2.671,0,0,1-1095.053,174.05Zm-4.467,2.622a3.16,3.16,0,0,0-3.187-3.167,3.161,3.161,0,0,0-3.159,3.165,3.162,3.162,0,0,0,3.172,3.183A3.161,3.161,0,0,0-1099.52,176.672Z" transform="translate(-88.208 0)" fill="#fff"/>
    </g>
  </g>
</svg>
