<svg xmlns="http://www.w3.org/2000/svg" width="90" height="90" viewBox="0 0 90 90">
  <g id="project-delivered" transform="translate(-860.402 -1416.402)">
    <rect id="Rectangle_27" data-name="Rectangle 27" width="90" height="90" rx="20" transform="translate(860.402 1416.402)" fill="#90c6e9"/>
    <g id="Group_52" data-name="Group 52" transform="translate(886.402 1442.402)">
      <path id="Path_10" data-name="Path 10" d="M1140.9,196.9c.63-1.262,1.221-2.457,1.823-3.646a11.388,11.388,0,0,1,2.77-3.759,5.779,5.779,0,0,1,3.753-1.421c1.482-.008,2.964-.015,4.446,0a.809.809,0,0,0,.716-.358,31.6,31.6,0,0,1,13.56-10.115,19.2,19.2,0,0,1,7.249-1.341c1.205.021,2.411,0,3.6,0,.036.062.062.085.063.109.055,3.41.126,6.81-1.055,10.1a31.012,31.012,0,0,1-7.256,11.455c-.989,1-2.081,1.9-3.145,2.824a.805.805,0,0,0-.339.682c.017,1.324-.026,2.649.015,3.971a6.191,6.191,0,0,1-2.5,5.287,18.716,18.716,0,0,1-2.528,1.636c-1.117.621-2.28,1.159-3.424,1.731-.112.056-.231.1-.391.161v-.512c0-2.533.006-5.065-.011-7.6a.988.988,0,0,0-.259-.628q-4.135-4.168-8.291-8.315a.865.865,0,0,0-.676-.281c-2.518.01-5.036.006-7.554.006Zm26.2-11.78a2.946,2.946,0,1,0,2.933,2.938A2.951,2.951,0,0,0,1167.1,185.117Z" transform="translate(-1140.903 -176.257)" fill="#fff" fill-rule="evenodd"/>
      <path id="Path_11" data-name="Path 11" d="M1163.588,416.131c.664-3.336,1.5-6.494,4.349-8.607l4.27,4.26C1170.088,414.6,1167.017,415.606,1163.588,416.131Z" transform="translate(-1161.021 -380.709)" fill="#fff" fill-rule="evenodd"/>
    </g>
  </g>
</svg>
