<svg xmlns="http://www.w3.org/2000/svg" width="50" height="50" viewBox="0 0 50 50">
  <g id="smbs" transform="translate(-1348 -1166)">
    <rect id="Rectangle_27" data-name="Rectangle 27" width="50" height="50" rx="10" transform="translate(1348 1166)" fill="#a5c9b3"/>
    <path id="Union_10" data-name="Union 10" d="M16.715,22.971H16.4V16.42H9.853v6.55h-6.4a1.664,1.664,0,0,1-1.812-1.819q0-4.126,0-8.253v-.261c.248.086.474.172.7.241a5.216,5.216,0,0,0,4.444-.6.3.3,0,0,1,.365,0,5.432,5.432,0,0,0,5.782.005.326.326,0,0,1,.387.005,5.437,5.437,0,0,0,5.76,0,.3.3,0,0,1,.366-.018,5.247,5.247,0,0,0,4.947.441c.061-.024.126-.042.214-.072v8.5a1.67,1.67,0,0,1-1.846,1.836H16.715ZM16.2,11.479a3.8,3.8,0,0,1-3.072-1.571A3.8,3.8,0,0,1,6.98,9.92c-.039.033-.055.042-.066.055-.056.065-.108.131-.165.195a3.687,3.687,0,0,1-2.031,1.213A3.805,3.805,0,0,1,.47,9.318a3.332,3.332,0,0,1-.4-2.3c.457-1.9.942-3.791,1.419-5.686A1.648,1.648,0,0,1,3.2,0H23.06a1.645,1.645,0,0,1,1.706,1.332c.327,1.3.648,2.6.976,3.9.162.651.338,1.3.508,1.949v.666c-.087.336-.15.681-.265,1.007A3.8,3.8,0,0,1,19.624,10.3c-.118-.119-.226-.249-.35-.388A3.8,3.8,0,0,1,16.2,11.479Z" transform="translate(1360 1180)" fill="#fff"/>
  </g>
</svg>
