<svg xmlns="http://www.w3.org/2000/svg" width="55.786" height="55.786" viewBox="0 0 55.786 55.786">
  <g id="software-integration-services" transform="translate(-114 -204)">
    <path id="Path_84861" data-name="Path 84861" d="M160.742,204a1.978,1.978,0,0,1,1.362,2.192c-.051,2.286-.012,4.574-.017,6.862a1.682,1.682,0,0,1-1.9,1.913c-2.4.006-4.792.011-7.189,0a1.646,1.646,0,0,1-1.724-2.193,1.61,1.61,0,0,1,1.608-1.069c.956-.011,1.911,0,3.009,0-.212-.177-.306-.272-.415-.343a23.506,23.506,0,0,0-15.4-3.985c-9.715.911-16.738,5.864-20.722,14.74-3.251,7.244-2.754,14.508.913,21.552a4.115,4.115,0,0,1,.481,1.195,1.6,1.6,0,0,1-3.012.938c-.813-1.7-1.636-3.4-2.3-5.154a23.225,23.225,0,0,1-1.345-6.587,2.88,2.88,0,0,0-.092-.421V230.15c.178-1.235.312-2.479.541-3.7a27.889,27.889,0,0,1,22.491-22.016c1.035-.17,2.078-.287,3.118-.429h3.378a4.337,4.337,0,0,0,.477.088,27.357,27.357,0,0,1,13.416,4.641c.444.3.879.608,1.4.969,0-1.245.038-2.386-.011-3.523A1.936,1.936,0,0,1,160.2,204Z" transform="translate(0)" fill="#43a5de"/>
    <path id="Path_84862" data-name="Path 84862" d="M168.231,337.051a1.98,1.98,0,0,1-1.362-2.193c.051-2.287.013-4.576.017-6.864a1.679,1.679,0,0,1,1.905-1.91c2.4-.005,4.794-.011,7.191,0a1.637,1.637,0,0,1,1.714,2.2,1.538,1.538,0,0,1-1.5,1.061c-.817.019-1.634,0-2.452.008a1,1,0,0,0-.568.149c.719.434,1.424.895,2.159,1.3a24.667,24.667,0,0,0,35.895-16.852,24.327,24.327,0,0,0-2.654-16.793,2.949,2.949,0,0,1-.349-.847,1.6,1.6,0,0,1,1.049-1.817,1.638,1.638,0,0,1,2,.8,27.273,27.273,0,0,1,3.261,9.005c.178,1.034.294,2.078.439,3.118V310.9c-.031.14-.071.279-.091.421-.189,1.291-.309,2.6-.573,3.87a27.9,27.9,0,0,1-22.369,21.428c-1.035.168-2.077.288-3.116.43h-3.378a4.268,4.268,0,0,0-.475-.089,27.41,27.41,0,0,1-14.239-5.22c-.165-.119-.334-.233-.579-.4,0,1.243-.039,2.367.011,3.487a1.964,1.964,0,0,1-1.389,2.225Z" transform="translate(-45.188 -77.266)" fill="#43a5de"/>
    <path id="Path_84863" data-name="Path 84863" d="M219.475,320.8a12.713,12.713,0,0,1-3.9-2.182.588.588,0,0,0-.512-.022c-.393.183-.755.431-1.138.638a1.623,1.623,0,0,1-2.3-.606q-1.084-1.824-2.125-3.674a1.541,1.541,0,0,1,.651-2.31,1.8,1.8,0,0,0,1.226-2.352,10.6,10.6,0,0,1,.113-2.865c.023-.276-.009-.438-.26-.569-.386-.2-.763-.419-1.134-.647a1.606,1.606,0,0,1-.622-2.257q1.061-1.9,2.178-3.769a1.6,1.6,0,0,1,2.226-.585c.4.211.779.469,1.187.661a.588.588,0,0,0,.512-.019,12.585,12.585,0,0,1,3.9-2.182c0-.531,0-1.056,0-1.581a1.641,1.641,0,0,1,1.725-1.756q2.1-.014,4.194,0a1.639,1.639,0,0,1,1.707,1.72c.01.525-.157,1.158.079,1.545.216.354.89.4,1.321.656.8.466,1.583.954,2.33,1.494a.619.619,0,0,0,.851.05,9.475,9.475,0,0,1,.987-.574,1.614,1.614,0,0,1,2.267.588q1.1,1.845,2.15,3.722a1.61,1.61,0,0,1-.624,2.3c-.458.288-1.113.467-1.329.879-.2.385.111,1.013.107,1.534-.009.923-.064,1.847-.149,2.766-.027.3,0,.467.28.607a13.019,13.019,0,0,1,1.175.684,1.551,1.551,0,0,1,.584,2.133q-1.079,1.983-2.253,3.913a1.583,1.583,0,0,1-2.108.558c-.42-.212-.808-.491-1.234-.689a.641.641,0,0,0-.556.028,13.048,13.048,0,0,1-3.567,2.059.636.636,0,0,0-.3.462c-.042.432-.006.87-.017,1.306a1.625,1.625,0,0,1-1.646,1.668c-1.452.017-2.905.019-4.357,0a1.616,1.616,0,0,1-1.618-1.64C219.463,321.932,219.475,321.37,219.475,320.8Zm3.815-15.728a4.357,4.357,0,1,0,4.354,4.372A4.363,4.363,0,0,0,223.29,305.073Z" transform="translate(-81.395 -77.537)" fill="#43a5de"/>
  </g>
</svg>
