<svg xmlns="http://www.w3.org/2000/svg" width="54" height="45.212" viewBox="0 0 54 45.212">
  <g id="software-consultation-service" transform="translate(476.97 -459.885)">
    <path id="Path_84871" data-name="Path 84871" d="M-346.73,488c0,2.239-.013,4.306.007,6.373a1.713,1.713,0,0,1-.888,1.785,1.7,1.7,0,0,1-1.948-.429c-3-2.41-5.991-4.828-9.019-7.2a2.605,2.605,0,0,0-1.474-.506c-3.33-.044-6.661-.017-9.992-.025-2.99-.007-4.785-1.779-4.791-4.758q-.017-9.312,0-18.624a4.351,4.351,0,0,1,4.7-4.728q13.534-.007,27.068,0a4.309,4.309,0,0,1,4.678,4.633q.013,9.409,0,18.818A4.349,4.349,0,0,1-343.058,488C-344.246,488.008-345.435,488-346.73,488Z" transform="translate(-84.592 0)" fill="#43a5de"/>
    <path id="Path_84872" data-name="Path 84872" d="M-428.034,514.071c0,.355,0,.7,0,1.054,0,2.749-.022,5.5.005,8.247a7.438,7.438,0,0,0,7.765,7.759c2.94.028,5.88.005,9.021.005a31.2,31.2,0,0,1-.266,4.19,3.723,3.723,0,0,1-3.847,2.8c-2.814.022-5.629-.019-8.442.03a2.634,2.634,0,0,0-1.466.523c-2.427,1.883-4.816,3.815-7.207,5.743-.625.5-1.238.969-2.1.56-.893-.426-.931-1.22-.92-2.06.019-1.548.005-3.1.005-4.788-.945,0-1.835,0-2.726,0a3.923,3.923,0,0,1-4.28-4.281q-.009-7.908,0-15.815a3.807,3.807,0,0,1,3.9-4.062c3.362-.07,6.728-.02,10.092-.016A2.442,2.442,0,0,1-428.034,514.071Z" transform="translate(-34.478 -40.042)" fill="#43a5de"/>
  </g>
</svg>
