<svg xmlns="http://www.w3.org/2000/svg" width="50" height="50" viewBox="0 0 50 50">
  <g id="startups" transform="translate(-800 -1166)">
    <rect id="Rectangle_27" data-name="Rectangle 27" width="50" height="50" rx="10" transform="translate(800 1166)" fill="#e6989b"/>
    <g id="Group_46475" data-name="Group 46475" transform="translate(1275.193 1124)">
      <path id="Path_84857" data-name="Path 84857" d="M-419.2,56.565c-.059.476-.108.954-.179,1.428a18.183,18.183,0,0,1-2.159,6.152,18.66,18.66,0,0,1-3.762,4.784.525.525,0,0,0-.15.424,12.66,12.66,0,0,1-3.615,8.373.909.909,0,0,1-.462.249c-.264.048-.486-.184-.529-.489-.178-1.25-.358-2.5-.545-3.808l-.437.387a.547.547,0,0,1-.9-.029l-6.3-6.3a.545.545,0,0,1-.023-.9l.385-.433c-.616-.09-1.182-.173-1.749-.254q-1.043-.149-2.086-.294a.516.516,0,0,1-.464-.35.532.532,0,0,1,.174-.576,12.793,12.793,0,0,1,5.168-3.1,12.638,12.638,0,0,1,3.372-.584.51.51,0,0,0,.322-.145,19.388,19.388,0,0,1,9.371-5.586,14.783,14.783,0,0,1,2.869-.471,1.257,1.257,0,0,0,.182-.039h1.138l.379.379Zm-6.948,7.911a2.541,2.541,0,0,0,2.532-2.535,2.54,2.54,0,0,0-2.517-2.525,2.539,2.539,0,0,0-2.543,2.522A2.541,2.541,0,0,0-426.143,64.475Z" transform="translate(-18.728)" fill="#fff"/>
      <path id="Path_84858" data-name="Path 84858" d="M-457.228,309.936a3.2,3.2,0,0,1,3.025,2.389,3.046,3.046,0,0,1-1.479,3.452,11.466,11.466,0,0,1-1.555.745c-1.4.52-2.822,1-4.234,1.5a.512.512,0,0,1-.57-.1.512.512,0,0,1-.115-.567,38.445,38.445,0,0,1,2.029-5.419,3.147,3.147,0,0,1,1.93-1.8C-457.882,310.038-457.551,310-457.228,309.936Z" transform="translate(0 -238.789)" fill="#fff"/>
    </g>
  </g>
</svg>
