<svg xmlns="http://www.w3.org/2000/svg" xmlns:xlink="http://www.w3.org/1999/xlink" width="81.176" height="81" viewBox="0 0 81.176 81">
  <defs>
    <linearGradient id="linear-gradient" x1="0.5" x2="0.5" y2="1" gradientUnits="objectBoundingBox">
      <stop offset="0" stop-color="#665bf6"/>
      <stop offset="1" stop-color="#7de1ec"/>
    </linearGradient>
  </defs>
  <g id="banking-finance" transform="translate(-1367.498 781.686)">
    <path id="Union_3" data-name="Union 3" d="M54.652,80a10.294,10.294,0,0,1-1.372-.7,3.428,3.428,0,0,1-1.3-3.732,3.491,3.491,0,0,1,3.1-2.576c.311-.028.624-.021.938-.021q2.944-.005,5.886,0c4.58.01,9.163.017,13.744-.031,2.214-.024,3.8.659,4.534,2.838v1.407A4.2,4.2,0,0,1,77.359,80ZM27.718,80c-.6-.045-1.189-.1-1.787-.135-5.182-.266-10.273-.976-15.057-3.142C5.487,74.282,1.911,70.309.617,64.453.362,63.291.2,62.1,0,60.932V56.711c.18-1.152.31-2.311.542-3.449A33.609,33.609,0,0,1,14.517,31.835c.23-.166.461-.335.73-.528-.087-.172-.151-.331-.242-.479a4.6,4.6,0,0,1,3.331-7.042,7.056,7.056,0,0,1,.935-.055q11.428-.005,22.854,0A4.712,4.712,0,0,1,47.114,28.1a4.888,4.888,0,0,1-.987,3.145c1.459,1.131,2.893,2.242,4.477,3.466-.279.2-.476.321-.642.466a8.009,8.009,0,0,0-.828,11.4c.418.483.379.762-.017,1.221a7.887,7.887,0,0,0,0,10.488.766.766,0,0,1,.011,1.224,7.929,7.929,0,0,0,.014,10.553c.218.262.541.448.2.914-2.108,2.866-2.215,3.28-2.094,7.073-1.424.328-2.866.783-4.342.98-2.763.366-5.542.579-8.315.859-.311.034-.618.076-.924.114ZM25.739,57.269a2.3,2.3,0,0,0-2.1,2.4A6.208,6.208,0,0,0,26.607,65.2a2.96,2.96,0,0,1,1.787,3.18,2.209,2.209,0,0,0,2.328,2.231,2.344,2.344,0,0,0,2.307-2.211,8.3,8.3,0,0,0,0-1.407c-.065-.6.162-.886.722-1.162a6.627,6.627,0,0,0,3.935-6.1,6.8,6.8,0,0,0-3.576-6.256,9.515,9.515,0,0,0-3.822-.986,2.27,2.27,0,0,1-1.956-2.28,2.308,2.308,0,0,1,1.942-2.3c1.486-.245,2.576.721,2.762,2.445a2.341,2.341,0,0,0,4.67-.317,6.386,6.386,0,0,0-3.239-5.632,2.308,2.308,0,0,1-1.427-2.807c0-.417,0-.831,0-1.249a2.352,2.352,0,1,0-4.689-.038c-.015.835-.046,1.669.011,2.5a1,1,0,0,1-.7,1.1,6.637,6.637,0,0,0-3.994,5.973,6.791,6.791,0,0,0,3.556,6.415,10.04,10.04,0,0,0,3.9,1.01,2.278,2.278,0,0,1,1.894,2.414,2.348,2.348,0,0,1-4.653.245c-.042-.255-.032-.521-.083-.776a2.325,2.325,0,0,0-2.285-1.945A2.4,2.4,0,0,0,25.739,57.269Zm29.772,11a3.508,3.508,0,0,1-3.486-2.4A3.3,3.3,0,0,1,53.2,62.042a4.324,4.324,0,0,1,2.232-.766c7.045-.055,14.091-.041,21.136-.028a3.685,3.685,0,0,1,3.6,2.807v1.407A3.77,3.77,0,0,1,77.5,68.147a4.52,4.52,0,0,1-1.006.124q-5.756.006-11.511.006Q60.246,68.277,55.511,68.271Zm0-11.722a3.514,3.514,0,0,1-3.486-2.4A3.3,3.3,0,0,1,53.2,50.317a4.32,4.32,0,0,1,2.232-.762c7.045-.059,14.091-.041,21.136-.028a3.685,3.685,0,0,1,3.6,2.807v1.407A3.782,3.782,0,0,1,77.5,56.425a4.52,4.52,0,0,1-1.006.124q-5.756.006-11.511.007Q60.246,56.555,55.511,56.549Zm0-11.722a3.514,3.514,0,0,1-3.486-2.4A3.3,3.3,0,0,1,53.2,38.595a4.29,4.29,0,0,1,2.232-.762c7.045-.059,14.091-.045,21.136-.031a3.692,3.692,0,0,1,3.6,2.807v1.407A3.78,3.78,0,0,1,77.5,44.7a4.731,4.731,0,0,1-1.006.121q-6.636.006-13.271.009Q59.367,44.832,55.511,44.826ZM18.23,19.03a1.233,1.233,0,0,1-.207-.048c-.932-2.862-1.873-5.756-2.815-8.646-.258-.79-.527-1.576-.77-2.373a2.371,2.371,0,0,1,2.435-3.3c2.138-.014,4.28-.021,6.418.007a.975.975,0,0,0,1.055-.638A6.7,6.7,0,0,1,30.712,0,6.664,6.664,0,0,1,37,4.018a.986.986,0,0,0,1.048.655c2.143-.034,4.28-.021,6.422-.014a2.374,2.374,0,0,1,2.463,3.335Q45.249,13.271,43.5,18.523a.851.851,0,0,1-.61.493q-7.005.02-14.014.017Q23.552,19.034,18.23,19.03Z" transform="translate(1367.998 -781.186)" stroke="rgba(0,0,0,0)" stroke-miterlimit="10" stroke-width="1" fill="url(#linear-gradient)"/>
  </g>
</svg>
