<svg xmlns="http://www.w3.org/2000/svg" xmlns:xlink="http://www.w3.org/1999/xlink" width="95.314" height="66.135" viewBox="0 0 95.314 66.135">
  <defs>
    <linearGradient id="linear-gradient" x1="0.5" x2="0.5" y2="1" gradientUnits="objectBoundingBox">
      <stop offset="0" stop-color="#22bfdf"/>
      <stop offset="1" stop-color="#1fd9c0"/>
    </linearGradient>
  </defs>
  <path id="ecommerce-development-a" d="M-8637.454,65.135a9.038,9.038,0,0,1-5.1-1.682c-3.8-2.577-5.018-6.32-3.624-11.123H-8653c1.029,5.439-.121,8.9-3.731,11.222a9.245,9.245,0,0,1-5.014,1.475,9.214,9.214,0,0,1-5.377-1.722,8.643,8.643,0,0,1-3.393-4.553,12.253,12.253,0,0,1,.05-6.422c-2.287-.038-3-1.6-3.43-3.275-1.625-6.363-3.3-12.829-4.924-19.082l-.087-.333c-1.313-5.066-2.6-10.018-3.856-14.915-.18-.7-.419-1.055-1.229-1.055l-.105,0c-.885.029-1.836.042-2.993.042-.76,0-1.529-.006-2.273-.011l-1.453-.009a3.351,3.351,0,0,1-2.295-.848,2.841,2.841,0,0,1-.893-2.121,2.829,2.829,0,0,1,.911-2.1,3.414,3.414,0,0,1,2.313-.829c1.6,0,3.231,0,4.833,0s3.23,0,4.835,0a3,3,0,0,1,3.256,2.516c.633,2.368,1.306,4.914,1.94,7.488a.985.985,0,0,0,1.148.909h.018c5.277-.019,10.53-.021,14.974-.021h10.942c-.141,16.423,7.519,26.376,23.417,30.428-.33,2.184-1.072,2.911-3.311,3.241,1.379,4.791.156,8.525-3.632,11.1A9.007,9.007,0,0,1-8637.454,65.135Zm0-12.846a3.426,3.426,0,0,0-3.4,3.4,3.383,3.383,0,0,0,.963,2.411,3.351,3.351,0,0,0,2.381,1.018h.038a3.372,3.372,0,0,0,3.4-3.332,3.436,3.436,0,0,0-.985-2.483A3.345,3.345,0,0,0-8637.456,52.289Zm-24.282,0h-.056a3.388,3.388,0,0,0-3.332,3.453,3.355,3.355,0,0,0,3.383,3.374h.007a3.412,3.412,0,0,0,3.4-3.388,3.413,3.413,0,0,0-1.012-2.433A3.359,3.359,0,0,0-8661.738,52.287Zm40.1-9.03c-.46,0-.919-.013-1.363-.038a20.738,20.738,0,0,1-12.732-5.511,21.9,21.9,0,0,1-6.84-12.374,21.41,21.41,0,0,1,.5-9.552,21.92,21.92,0,0,1,4.3-8.074A21.511,21.511,0,0,1-8621.312,0c.589,0,1.187.024,1.777.072A21.653,21.653,0,0,1-8599.857,19a4.252,4.252,0,0,0,.113.549c.02.079.04.16.059.24v3.878c-.093.421-.178.852-.26,1.268l0,.028c-.179.9-.364,1.833-.621,2.73a21.19,21.19,0,0,1-7.825,11.32A22.144,22.144,0,0,1-8621.638,43.257Zm.348-11.41a3.118,3.118,0,0,1,2.932,2.012,12.539,12.539,0,0,0,3.637-1.508,3.137,3.137,0,0,1,.65-3.5,3.117,3.117,0,0,1,2.221-.917,3.124,3.124,0,0,1,1.273.269,12.5,12.5,0,0,0,1.509-3.637,3.145,3.145,0,0,1-2.012-2.943,3.132,3.132,0,0,1,2.019-2.937,12.488,12.488,0,0,0-1.509-3.637,3.184,3.184,0,0,1-1.28.275,3.134,3.134,0,0,1-2.221-.917,3.134,3.134,0,0,1-.65-3.5,12.355,12.355,0,0,0-3.631-1.508,3.165,3.165,0,0,1-2.937,2.018,3.156,3.156,0,0,1-2.934-2.018,12.373,12.373,0,0,0-3.637,1.508,3.159,3.159,0,0,1-.651,3.5,3.12,3.12,0,0,1-2.223.917,3.085,3.085,0,0,1-1.281-.275,12.806,12.806,0,0,0-1.5,3.642,3.125,3.125,0,0,1,2.018,2.937,3.134,3.134,0,0,1-2.011,2.937A12.47,12.47,0,0,0-8632,28.2a3.137,3.137,0,0,1,1.275-.269,3.134,3.134,0,0,1,2.221.917,3.164,3.164,0,0,1,.65,3.5,12.58,12.58,0,0,0,3.637,1.508A3.116,3.116,0,0,1-8621.29,31.847Zm.058-5.133a5.1,5.1,0,0,1-5.1-5.1,5.1,5.1,0,0,1,5.1-5.1,5.1,5.1,0,0,1,5.095,5.1A5.1,5.1,0,0,1-8621.232,26.715Z" transform="translate(8694.5 0.499)" stroke="rgba(0,0,0,0)" stroke-width="1" fill="url(#linear-gradient)"/>
</svg>
