<svg xmlns="http://www.w3.org/2000/svg" xmlns:xlink="http://www.w3.org/1999/xlink" width="61.56" height="80.997" viewBox="0 0 61.56 80.997">
  <defs>
    <linearGradient id="linear-gradient" x1="0.5" x2="0.5" y2="1" gradientUnits="objectBoundingBox">
      <stop offset="0" stop-color="#ff317d"/>
      <stop offset="1" stop-color="#f9d1ff"/>
    </linearGradient>
  </defs>
  <path id="ecommerce-development" d="M-90.226-852.072c-.443-5.853,1-10.913,5.495-14.776a15.238,15.238,0,0,1,10.58-3.794,15.4,15.4,0,0,1,11.874,5.695c3.119,3.677,3.968,8.048,3.615,12.874.868,0,1.643-.049,2.409.012a16.212,16.212,0,0,1,3.267.412,8.327,8.327,0,0,1,5.912,7.8q1.077,16.313,2.15,32.625.381,5.742.791,11.482a8.311,8.311,0,0,1-8.184,9.048c-6.251.085-12.5.028-18.755.03q-12.474,0-24.949,0c-4.283-.006-7.686-2.485-8.468-6.461a21.646,21.646,0,0,1-.062-5.369c.34-5.773.756-11.542,1.143-17.313q.663-9.874,1.328-19.748c.111-1.653.145-3.315.355-4.955a8.319,8.319,0,0,1,8.538-7.559C-92.258-852.083-91.332-852.072-90.226-852.072Zm26.029-.053c0-1.026.026-1.953,0-2.878a10.225,10.225,0,0,0-12.434-9.83c-5.125,1.168-8.887,5.71-7.95,12.708Zm-11.437,27.96c7.22.01,12.733-3.407,15.371-8.8a2.814,2.814,0,0,0-1.129-3.9,2.8,2.8,0,0,0-3.824,1.345c-1.98,3.7-5.03,5.752-9.255,5.743-4.188-.008-7.213-2.058-9.185-5.717a2.8,2.8,0,0,0-3.887-1.342,2.782,2.782,0,0,0-1.048,3.915C-85.587-827.252-80.816-824.42-75.633-824.165Z" transform="translate(105.167 871.146)" stroke="rgba(0,0,0,0)" stroke-width="1" fill="url(#linear-gradient)"/>
</svg>
