<svg xmlns="http://www.w3.org/2000/svg" xmlns:xlink="http://www.w3.org/1999/xlink" width="80" height="67.06" viewBox="0 0 80 67.06">
  <defs>
    <linearGradient id="linear-gradient" x1="0.5" x2="0.5" y2="1" gradientUnits="objectBoundingBox">
      <stop offset="0" stop-color="#8351ea"/>
      <stop offset="1" stop-color="#e3cdfe"/>
    </linearGradient>
  </defs>
  <g id="education-elearning" transform="translate(-676.356 -4257.388)">
    <g id="Group_385" data-name="Group 385" transform="translate(676.356 4257.388)">
      <path id="Union_1" data-name="Union 1" d="M71.842,66.993a2.4,2.4,0,0,1-1.835-2.469c-.007-3.583-.014-7.166.009-10.748a1.374,1.374,0,0,0-.589-1.257,4.715,4.715,0,0,1-.021-7.447,1.461,1.461,0,0,0,.607-1.321q-.023-8.678-.01-17.357v-.9l4.777-1.7v.913q0,9.594-.01,19.187a1.239,1.239,0,0,0,.539,1.115,4.778,4.778,0,0,1-.052,7.631,1.409,1.409,0,0,0-.458.967c-.032,3.636-.011,7.272-.025,10.908A2.4,2.4,0,0,1,72.42,67.06,2.59,2.59,0,0,1,71.842,66.993ZM37.54,46.927A44.5,44.5,0,0,1,21.874,43.78,19.17,19.17,0,0,1,18.2,41.611a4.271,4.271,0,0,1-1.738-3.735c.04-2.967.011-5.935.011-8.9v-.906c2.905,1.03,5.646,2,8.384,2.972,4.162,1.481,8.327,2.952,12.481,4.455a7.894,7.894,0,0,0,5.56-.078c6.552-2.357,13.12-4.672,19.682-7,.265-.095.533-.184.9-.309.02.315.05.559.05.8,0,2.994-.025,5.988.014,8.981a4.621,4.621,0,0,1-1.731,3.756,17.112,17.112,0,0,1-6.164,3.087,50.871,50.871,0,0,1-15.411,2.254Q38.893,46.985,37.54,46.927ZM38.656,30.99Q20.274,24.413,1.873,17.89a2.36,2.36,0,0,1-1.7-3.149,2.568,2.568,0,0,1,1.705-1.475Q15.736,8.391,29.586,3.491C32.673,2.4,35.763,1.32,38.844.215A3.257,3.257,0,0,1,41.125.2q18.48,6.532,36.969,13.04A3.037,3.037,0,0,1,80,15.037V16.13a3.265,3.265,0,0,1-2.2,1.9q-18.149,6.421-36.275,12.9a4.54,4.54,0,0,1-1.54.293A3.9,3.9,0,0,1,38.656,30.99Z" transform="translate(0 0)" fill="url(#linear-gradient)"/>
    </g>
  </g>
</svg>
