<svg xmlns="http://www.w3.org/2000/svg" xmlns:xlink="http://www.w3.org/1999/xlink" width="80.337" height="68.005" viewBox="0 0 80.337 68.005">
  <defs>
    <linearGradient id="linear-gradient" x1="0.5" x2="0.5" y2="1" gradientUnits="objectBoundingBox">
      <stop offset="0" stop-color="#8351ea"/>
      <stop offset="1" stop-color="#e3cdfe"/>
    </linearGradient>
  </defs>
  <g id="entertainment-media" transform="translate(-1251.793 -292.9)">
    <path id="Path_4902" data-name="Path 4902" d="M1530.76,323.527c-.256,1.432-.41,2.892-.783,4.293-2.781,10.449-9.415,17.162-19.772,20.205a6.347,6.347,0,0,1-4.7-.584,32.986,32.986,0,0,0,.117-16.124,10.1,10.1,0,0,1,5.366-.223,10.475,10.475,0,0,1,4.812,2.523,3.94,3.94,0,0,0,1.47.884,2.3,2.3,0,0,0,2.638-1.161,2.448,2.448,0,0,0-.5-3,14.847,14.847,0,0,0-7.078-3.942,15.006,15.006,0,0,0-7.643.11c-.177.049-.361.074-.6.122l-5.169-11.037c.852-.131,1.645-.2,2.412-.381a7.523,7.523,0,0,0,3.568-2,2.41,2.41,0,0,0,.183-3.436,2.336,2.336,0,0,0-3.362-.195,3.64,3.64,0,0,1-4.9.037,6.4,6.4,0,0,1-1.855-2.439c-.807-1.732-1.647-3.448-2.427-5.192a2.653,2.653,0,0,0-2.587-1.76c-1.081,0-2.163,0-3.273,0a17.367,17.367,0,0,1,.017-2.215,2.665,2.665,0,0,1,1.941-2.211,48.374,48.374,0,0,1,11.019-2.406,83.013,83.013,0,0,1,17.979-.012,51.452,51.452,0,0,1,10.579,2.21,3.607,3.607,0,0,1,2.56,2.261Zm-11.486-8.033a7.987,7.987,0,0,0,5.669-2.319,2.431,2.431,0,0,0-3.271-3.6c-1.717,1.409-3.062,1.413-4.757.014a2.431,2.431,0,1,0-3.241,3.623A8.023,8.023,0,0,0,1519.274,315.494Z" transform="translate(-198.63)" fill="url(#linear-gradient)"/>
    <path id="Path_4903" data-name="Path 4903" d="M1304.423,403.011c-.251,8.892-3.45,15.906-9.823,21.467-1.614,1.408-3.566,1.582-5.513,1.733a27.4,27.4,0,0,1-27.351-15.869c-3.192-6.739-6.336-13.5-9.5-20.252a2.807,2.807,0,0,1,.688-3.794,54.731,54.731,0,0,1,13.295-9.246,72.288,72.288,0,0,1,17.948-6.832c1.6-.35,3.241-.561,4.872-.764a2.571,2.571,0,0,1,3.093,1.77c2.931,6.245,5.838,12.5,8.8,18.734a31.582,31.582,0,0,1,3.076,9.084C1304.217,400.512,1304.319,402,1304.423,403.011Zm-23.744,11.553.042-.192a15.374,15.374,0,0,0,14.426-9.925,2.445,2.445,0,0,0-1.383-3.277,2.4,2.4,0,0,0-3.152,1.507,10.491,10.491,0,0,1-13.274,6.223,2.424,2.424,0,0,0-3.181,1.46,2.376,2.376,0,0,0,1.653,3.13C1277.407,413.937,1279.053,414.213,1280.679,414.564Zm-9.049-21.293a8.285,8.285,0,0,0-7.617,5.276,2.94,2.94,0,0,0-.188,1.312,2.411,2.411,0,0,0,4.632.6,3.1,3.1,0,0,1,2.16-2.05,5.861,5.861,0,0,1,2.179.093,2.5,2.5,0,0,0,3-1.711,2.388,2.388,0,0,0-1.624-2.952C1273.347,393.584,1272.479,393.458,1271.63,393.271Zm18.08-8.481a8.3,8.3,0,0,0-7.6,5.288,2.431,2.431,0,0,0,4.47,1.912c.959-1.981,2.167-2.544,4.314-2.01a2.446,2.446,0,0,0,3.017-1.653,2.394,2.394,0,0,0-1.644-3.01C1291.434,385.067,1290.562,384.961,1289.709,384.79Z" transform="translate(0 -65.394)" fill="url(#linear-gradient)"/>
  </g>
</svg>
