<svg xmlns="http://www.w3.org/2000/svg" xmlns:xlink="http://www.w3.org/1999/xlink" width="79.998" height="79.986" viewBox="0 0 79.998 79.986">
  <defs>
    <linearGradient id="linear-gradient" x1="0.5" x2="0.5" y2="1" gradientUnits="objectBoundingBox">
      <stop offset="0" stop-color="#ff1e4e"/>
      <stop offset="1" stop-color="#ffe044"/>
    </linearGradient>
  </defs>
  <path id="events-ticketing" d="M12649.22,1634.977a2.214,2.214,0,0,0-.957-1.6,21.508,21.508,0,0,1-2.293-1.989,5.548,5.548,0,0,1,.323-7.918c.694-.663,1.491-1.22,2.22-1.845.911-.779.907-1.32-.014-2.1-.533-.453-1.1-.866-1.646-1.31a5.887,5.887,0,0,1-2.365-4.931c-.34-.094-.685-.181-1.021-.278a16.53,16.53,0,0,1-9.473-7.452,23.8,23.8,0,0,1-3.58-10.535,5.666,5.666,0,0,0-.144-.679v-4.062c.313-1.632.513-3.29.955-4.885a20.007,20.007,0,0,1,8.063-11.78,12.622,12.622,0,0,1,6.986-2.276c-4,14.66-1.4,27.484,10.467,37.869a14.733,14.733,0,0,1-5.588,3.571,10.089,10.089,0,0,1-1.494.435c-.606.112-.58.453-.326.835a3.565,3.565,0,0,0,.7.716c.656.557,1.364,1.051,1.983,1.642a5.631,5.631,0,0,1,.029,8.33,20.664,20.664,0,0,1-1.614,1.351c-1.725,1.357-1.721,1.7.027,3.077.551.435,1.106.869,1.613,1.354a5.457,5.457,0,0,1,1.78,4.1,2.356,2.356,0,0,1-2.157,2.361c-.062.005-.124.007-.185.007A2.289,2.289,0,0,1,12649.22,1634.977Zm42.177-.012a2.2,2.2,0,0,0-.967-1.595,21.663,21.663,0,0,1-2.291-1.992,5.563,5.563,0,0,1,.281-7.868,17.313,17.313,0,0,1,1.491-1.254c1.955-1.529,1.956-1.817.029-3.321-.187-.144-.376-.281-.561-.428-2.428-1.939-3.09-3.768-2.457-6.748l-3.172-2.527c11.888-10.376,14.485-23.2,10.494-37.925a10.893,10.893,0,0,1,3.957.763,17.182,17.182,0,0,1,9.008,8.146c4.8,8.593,3.872,20.154-2.236,27.531-3.031,3.665-6.839,5.879-11.743,5.791a12.065,12.065,0,0,0-1.963,0,5.165,5.165,0,0,0,.669.976c.655.594,1.394,1.094,2.046,1.689a5.653,5.653,0,0,1,0,8.756c-.65.594-1.384,1.1-2.053,1.676-.8.7-.8,1.251-.007,1.945.729.632,1.514,1.191,2.228,1.839a5.459,5.459,0,0,1,1.879,4.215,2.351,2.351,0,0,1-2.171,2.345q-.085.006-.17.006A2.287,2.287,0,0,1,12691.4,1634.965Zm-23.436-.009a2.16,2.16,0,0,0-.907-1.545,21.613,21.613,0,0,1-2.352-2.039,5.545,5.545,0,0,1,.292-7.862c.637-.616,1.358-1.135,2.044-1.692,1.19-.966,1.192-1.5.018-2.458-.624-.51-1.285-.982-1.873-1.529a5.647,5.647,0,0,1-.025-8.546c.295-.278.606-.544.985-.882-.672-.222-1.264-.4-1.839-.613a21.654,21.654,0,0,1-11.159-9.772c-5.964-10.079-5.161-23.885,1.944-33.022a19.7,19.7,0,0,1,12.4-7.765c.407-.072.812-.153,1.213-.231h3.124c1.262.285,2.559.463,3.78.869,5.329,1.767,9.11,5.394,11.874,10.163,5.867,10.125,5.007,23.86-2.082,32.884a19.635,19.635,0,0,1-12.89,7.793.738.738,0,0,0-.5.285,10.1,10.1,0,0,1-3.161,3.293,5.236,5.236,0,0,0-.585.513.961.961,0,0,0,.018,1.51c.474.444.994.838,1.509,1.232a6.322,6.322,0,0,1,2.775,4.344,5.514,5.514,0,0,1-1.791,4.859c-.7.657-1.491,1.22-2.225,1.842-.87.744-.868,1.3.007,2.052.731.622,1.521,1.185,2.225,1.839a5.419,5.419,0,0,1,1.814,4.166,2.347,2.347,0,0,1-2.175,2.336c-.054,0-.106.006-.161.006A2.3,2.3,0,0,1,12667.961,1634.955Zm2.852-44.389c1.177.656,2.4,1.248,3.589,1.882a2.4,2.4,0,0,0,3.635-2.671c-.232-1.332-.482-2.661-.661-4a1.281,1.281,0,0,1,.3-.938c.942-1,1.949-1.945,2.923-2.924a3.61,3.61,0,0,0,.666-.854c.766-1.5-.176-3.087-2.018-3.393-1.386-.231-2.779-.4-4.158-.657a1.181,1.181,0,0,1-.729-.544c-.663-1.235-1.275-2.5-1.9-3.759a2.449,2.449,0,0,0-4.409.025c-.6,1.241-1.2,2.48-1.863,3.687a1.384,1.384,0,0,1-.847.622c-1.4.263-2.824.444-4.234.66a2.357,2.357,0,0,0-1.275,4.122c.984.966,1.951,1.951,2.951,2.9a1.106,1.106,0,0,1,.378,1.157c-.289,1.5-.513,3.024-.725,4.318a2.342,2.342,0,0,0,3.352,2.4c1.317-.619,2.6-1.31,3.878-2a1.3,1.3,0,0,1,.615-.186A1.092,1.092,0,0,1,12670.813,1590.567Zm-2.85-6.82a9.325,9.325,0,0,0-1.442-2.13,3.527,3.527,0,0,0,3.723-2.73,3.663,3.663,0,0,0,3.884,2.761,3.763,3.763,0,0,0-1.476,4.575,3.433,3.433,0,0,0-4.634.038A8.742,8.742,0,0,0,12667.963,1583.746Z" transform="translate(-12630.27 -1557)" fill="url(#linear-gradient)"/>
</svg>
