<svg xmlns="http://www.w3.org/2000/svg" xmlns:xlink="http://www.w3.org/1999/xlink" width="80.999" height="73.208" viewBox="0 0 80.999 73.208">
  <defs>
    <linearGradient id="linear-gradient" x1="0.5" x2="0.5" y2="1" gradientUnits="objectBoundingBox">
      <stop offset="0" stop-color="#ff317d"/>
      <stop offset="1" stop-color="#f9d1ff"/>
    </linearGradient>
  </defs>
  <g id="healthcare-solutions" transform="translate(-788.862 -216.455)">
    <path id="Union_2" data-name="Union 2" d="M38.06,71.246Q23.136,56.4,8.214,41.553c-.148-.148-.286-.3-.582-.609H8.648c4.479,0,8.958-.015,13.438.012a2.709,2.709,0,0,0,2.617-1.48c.49-.88,1.034-1.729,1.594-2.661,2.212,3.479,4.368,6.854,6.51,10.241a2.693,2.693,0,0,0,1.655,1.329,2.379,2.379,0,0,0,2.753-1.52q2.5-5.247,4.977-10.5l4.162-8.783c.184.32.332.548.462.788,1.959,3.639,3.938,7.269,5.865,10.927A2.847,2.847,0,0,0,55.5,40.96c5.26-.037,10.518-.015,15.779-.015h1.005c-.252.289-.4.48-.569.649Q56.824,56.415,41.93,71.234a2.817,2.817,0,0,1-1.945.974A2.776,2.776,0,0,1,38.06,71.246ZM34.184,40.474q-2.875-4.508-5.747-9.02c-1.261-1.978-3.217-1.947-4.436.065-.861,1.424-1.7,2.864-2.588,4.27a1.1,1.1,0,0,1-.775.449q-8.089.037-16.175-.006a1.252,1.252,0,0,1-.88-.544A23.191,23.191,0,0,1,.132,25.753,2.317,2.317,0,0,0,0,25.317v-3.75c.252-1.3.431-2.615.762-3.895A23.73,23.73,0,0,1,24.327.026,24.471,24.471,0,0,1,39.2,5.979c.2.163.4.332.6.5.04.031.089.052.194.117.566-.446,1.144-.923,1.741-1.369A24.2,24.2,0,0,1,57.339.011C68.18.328,78.089,9.129,79.728,19.853a23.021,23.021,0,0,1-3.386,15.9,1.149,1.149,0,0,1-.837.477c-6.171.028-12.346.015-18.517.034a.929.929,0,0,1-.935-.618q-3.793-7.088-7.617-14.157c-.707-1.311-1.963-1.883-3.1-1.268a3.534,3.534,0,0,0-1.372,1.5C41,27.888,38.088,34.075,35.158,40.255c-.128.28-.27.554-.464.947C34.488,40.91,34.328,40.7,34.184,40.474Z" transform="translate(789.362 216.954)" stroke="rgba(0,0,0,0)" stroke-miterlimit="10" stroke-width="1" fill="url(#linear-gradient)"/>
  </g>
</svg>
