<svg xmlns="http://www.w3.org/2000/svg" xmlns:xlink="http://www.w3.org/1999/xlink" width="90" height="90.002" viewBox="0 0 90 90.002">
  <defs>
    <linearGradient id="linear-gradient" x1="0.144" x2="0.837" y2="0.948" gradientUnits="objectBoundingBox">
      <stop offset="0" stop-color="#989898"/>
      <stop offset="1" stop-color="#717171"/>
    </linearGradient>
  </defs>
  <g id="java" transform="translate(-1025.276 -6813)">
    <path id="Path_11479" data-name="Path 11479" d="M3170.71-10047.025a103.369,103.369,0,0,1,19.322,1.26,36.006,36.006,0,0,1,11.522,3.869c6.583,3.709,10.149,9.59,12,16.709a72.781,72.781,0,0,1,2.048,16.391,143.946,143.946,0,0,1-.785,23.279,42.468,42.468,0,0,1-3.449,12.654c-3.393,7.162-9.218,11.309-16.683,13.41a69.695,69.695,0,0,1-16.875,2.268,152.465,152.465,0,0,1-22.006-.568,51.487,51.487,0,0,1-11.5-2.5c-8.012-2.861-13.182-8.432-15.757-16.486a67.012,67.012,0,0,1-2.693-18.512,151.258,151.258,0,0,1,.581-21.807,49.452,49.452,0,0,1,2.735-12.092c2.942-7.732,8.482-12.656,16.292-15.141,6.293-1.994,12.8-2.49,19.34-2.719C3166.774-10047.08,3168.743-10047.025,3170.71-10047.025Z" transform="translate(-2100.451 16860.047)" fill-rule="evenodd" fill="url(#linear-gradient)"/>
    <g id="java-seeklogo.com" transform="translate(1049.759 6830.629)">
      <path id="Path_11482" data-name="Path 11482" d="M68.5,267.473s-2.027,1.179,1.442,1.577a30.35,30.35,0,0,0,10.983-.466,19.111,19.111,0,0,0,2.918,1.425c-10.383,4.45-23.5-.258-15.344-2.537" transform="translate(-55.386 -226.082)" fill="#fff"/>
      <path id="Path_11483" data-name="Path 11483" d="M58.558,229.659s-2.273,1.683,1.2,2.042a42.848,42.848,0,0,0,14.171-.68,6.29,6.29,0,0,0,2.183,1.331c-12.554,3.671-26.537.289-17.553-2.692" transform="translate(-46.711 -194.075)" fill="#fff"/>
      <path id="Path_11484" data-name="Path 11484" d="M131.008,85.442c2.558,2.946-.672,5.6-.672,5.6s6.5-3.354,3.513-7.553c-2.786-3.916-4.923-5.862,6.645-12.571,0,0-18.158,4.535-9.485,14.528" transform="translate(-108.465 -59.709)" fill="#fff"/>
      <path id="Path_11485" data-name="Path 11485" d="M36.276,292.969s1.5,1.236-1.652,2.192c-5.993,1.816-24.945,2.364-30.21.072-1.893-.823,1.657-1.966,2.773-2.206a7.194,7.194,0,0,1,1.83-.205c-2.1-1.483-13.6,2.911-5.841,4.169,21.171,3.433,38.592-1.546,33.1-4.023" transform="translate(0 -247.283)" fill="#fff"/>
      <path id="Path_11486" data-name="Path 11486" d="M37.568,190.432s-9.64,2.29-3.414,3.121a72.4,72.4,0,0,0,12.751-.137c3.99-.336,8-1.052,8-1.052a16.924,16.924,0,0,0-2.424,1.3c-9.789,2.575-28.7,1.377-23.256-1.257a18.241,18.241,0,0,1,8.348-1.973" transform="translate(-23.477 -160.865)" fill="#fff"/>
      <path id="Path_11487" data-name="Path 11487" d="M200.4,197.322c9.951-5.171,5.35-10.14,2.139-9.471a7.428,7.428,0,0,0-1.138.306,1.813,1.813,0,0,1,.85-.656c6.353-2.234,11.24,6.588-2.051,10.082a.863.863,0,0,0,.2-.261" transform="translate(-169.021 -158.089)" fill="#fff"/>
      <path id="Path_11488" data-name="Path 11488" d="M94.862.371s5.511,5.513-5.227,13.991c-8.611,6.8-1.964,10.678,0,15.108-5.026-4.535-8.715-8.527-6.24-12.243,3.632-5.454,13.695-8.1,11.471-16.856" transform="translate(-69.478)" fill="#fff"/>
      <path id="Path_11489" data-name="Path 11489" d="M53.938,317.885c9.552.612,24.22-.339,24.568-4.859,0,0-.668,1.714-7.894,3.074a78.535,78.535,0,0,1-24.172.372s1.221,1.011,7.5,1.413" transform="translate(-38.87 -264.639)" fill="#fff"/>
    </g>
  </g>
</svg>
