<svg xmlns="http://www.w3.org/2000/svg" xmlns:xlink="http://www.w3.org/1999/xlink" width="90" height="90.002" viewBox="0 0 90 90.002">
  <defs>
    <linearGradient id="linear-gradient" x1="0.144" x2="0.837" y2="0.948" gradientUnits="objectBoundingBox">
      <stop offset="0" stop-color="#989898"/>
      <stop offset="1" stop-color="#717171"/>
    </linearGradient>
  </defs>
  <g id="js" transform="translate(-721 -7124)">
    <path id="Path_11479" data-name="Path 11479" d="M3170.71-10047.025a103.369,103.369,0,0,1,19.322,1.26,36.006,36.006,0,0,1,11.522,3.869c6.583,3.709,10.149,9.59,12,16.709a72.781,72.781,0,0,1,2.048,16.391,143.946,143.946,0,0,1-.785,23.279,42.468,42.468,0,0,1-3.449,12.654c-3.393,7.162-9.218,11.309-16.683,13.41a69.695,69.695,0,0,1-16.875,2.268,152.465,152.465,0,0,1-22.006-.568,51.487,51.487,0,0,1-11.5-2.5c-8.012-2.861-13.182-8.432-15.757-16.486a67.012,67.012,0,0,1-2.693-18.512,151.258,151.258,0,0,1,.581-21.807,49.452,49.452,0,0,1,2.735-12.092c2.942-7.732,8.482-12.656,16.292-15.141,6.293-1.994,12.8-2.49,19.34-2.719C3166.774-10047.08,3168.743-10047.025,3170.71-10047.025Z" transform="translate(-2404.727 17171.047)" fill-rule="evenodd" fill="url(#linear-gradient)"/>
    <g id="Group_42650" data-name="Group 42650" transform="translate(741.18 7125.088)">
      <path id="Path_11696" data-name="Path 11696" d="M24.415,67.954l-17.658-4.9L2.821,18.912H46.062L42.125,63.045" fill="none"/>
      <path id="Path_11697" data-name="Path 11697" d="M45.561,61.371l3.367-37.714H31.25V65.338" transform="translate(-6.808 -1.136)" fill="#e4e4e4"/>
      <path id="Path_11698" data-name="Path 11698" d="M32.539,30.775v5.413l12.1-.264.461-5.148" transform="translate(-7.117 -2.841)" fill="#3a3a3c"/>
      <path id="Path_11699" data-name="Path 11699" d="M42.665,45.184H32.539V50.6l6.9-.45-.624,7.25-6.28,1.58V64.6l10.1-2.8.082-.913,1.273-14.252.131-1.453" transform="translate(-7.117 -6.291)" fill="#3a3a3c"/>
      <path id="Path_11700" data-name="Path 11700" d="M37.009,45.362h-4.47V34.334h4.968" transform="translate(-7.117 -3.693)" fill="#3a3a3c"/>
      <path id="Path_11701" data-name="Path 11701" d="M26.357,61.493l-7-1.987-.224-3.029-3.489-.618.758,8.5,9.959,2.764" transform="translate(-3.07 -8.848)" fill="#3a3a3c"/>
      <path id="Path_11702" data-name="Path 11702" d="M28.283,30.775h-4.6l.956,27.741h3.643" transform="translate(-4.996 -2.841)" fill="#3a3a3c"/>
      <path id="Path_11703" data-name="Path 11703" d="M24.415,67.954l-17.658-4.9L2.821,18.912H46.062L42.125,63.045" fill="#fff"/>
      <path id="Path_11704" data-name="Path 11704" d="M45.561,61.371l3.367-37.714H31.25V65.338" transform="translate(-6.808 -1.136)" fill="#e4e4e4"/>
      <path id="Union_22" data-name="Union 22" d="M-13557.455-6519.839l6.28-1.579.623-7.25-6.9.449v-16.37h12.562l-.459,5.148-7.252.159-.255,5.649h6.986l-.13,1.453-1.272,14.253-.081.915-10.1,2.8Z" transform="translate(13582.877 6572.523)" fill="#3e3f3f" stroke="rgba(0,0,0,0)" stroke-miterlimit="10" stroke-width="1"/>
      <path id="Union_21" data-name="Union 21" d="M-13556.7-6517.011l-.759-8.5,3.49.616.222,3.028,3.22.916-.814-23.637h4.6v27.741h0v2.6Z" transform="translate(13570.025 6572.523)" fill="#3e3f3f" stroke="rgba(0,0,0,0)" stroke-miterlimit="10" stroke-width="1"/>
    </g>
  </g>
</svg>
