<svg xmlns="http://www.w3.org/2000/svg" xmlns:xlink="http://www.w3.org/1999/xlink" width="90" height="90.002" viewBox="0 0 90 90.002">
  <defs>
    <linearGradient id="linear-gradient" x1="0.144" x2="0.837" y2="0.948" gradientUnits="objectBoundingBox">
      <stop offset="0" stop-color="#989898"/>
      <stop offset="1" stop-color="#717171"/>
    </linearGradient>
  </defs>
  <g id="laravel" transform="translate(-1035 -7435)">
    <path id="Path_4754" data-name="Path 4754" d="M3170.71-10047.025a103.369,103.369,0,0,1,19.322,1.26,36.006,36.006,0,0,1,11.522,3.869c6.583,3.709,10.149,9.59,12,16.709a72.781,72.781,0,0,1,2.048,16.391,143.946,143.946,0,0,1-.785,23.279,42.468,42.468,0,0,1-3.449,12.654c-3.393,7.162-9.218,11.309-16.683,13.41a69.695,69.695,0,0,1-16.875,2.268,152.465,152.465,0,0,1-22.006-.568,51.487,51.487,0,0,1-11.5-2.5c-8.012-2.861-13.182-8.432-15.757-16.486a67.012,67.012,0,0,1-2.693-18.512,151.258,151.258,0,0,1,.581-21.807,49.452,49.452,0,0,1,2.735-12.092c2.942-7.732,8.482-12.656,16.292-15.141,6.293-1.994,12.8-2.49,19.34-2.719C3166.774-10047.08,3168.743-10047.025,3170.71-10047.025Z" transform="translate(-2090.727 17482.047)" fill-rule="evenodd" fill="url(#linear-gradient)"/>
    <g id="laravel-seeklogo.com" transform="translate(1054 7454)">
      <path id="Path_11757" data-name="Path 11757" d="M50.622,11.8a.817.817,0,0,1,.028.213V23.2a.816.816,0,0,1-.41.708l-9.394,5.408v10.72a.819.819,0,0,1-.408.708L20.83,52.033a.9.9,0,0,1-.143.059c-.018.006-.036.017-.055.022a.823.823,0,0,1-.418,0c-.023-.006-.043-.018-.064-.027a.866.866,0,0,1-.135-.055L.41,40.745A.817.817,0,0,1,0,40.037V6.461a.834.834,0,0,1,.029-.214c.006-.023.02-.045.029-.068a.8.8,0,0,1,.052-.126A.766.766,0,0,1,.165,5.98a.832.832,0,0,1,.072-.095.8.8,0,0,1,.081-.061.665.665,0,0,1,.09-.07h0l9.8-5.644a.818.818,0,0,1,.816,0l9.8,5.644h0a.985.985,0,0,1,.09.069.947.947,0,0,1,.08.061.917.917,0,0,1,.073.1.741.741,0,0,1,.055.072.875.875,0,0,1,.053.126c.008.023.022.045.028.069a.825.825,0,0,1,.029.213V27.432l8.169-4.7V12.008a.823.823,0,0,1,.029-.212c.007-.024.02-.046.028-.069a.944.944,0,0,1,.053-.126c.015-.027.038-.048.055-.072a.808.808,0,0,1,.073-.095.77.77,0,0,1,.08-.061.83.83,0,0,1,.09-.07h0l9.8-5.644a.817.817,0,0,1,.816,0l9.8,5.644a.913.913,0,0,1,.092.069c.025.02.055.039.079.061a.974.974,0,0,1,.073.1.608.608,0,0,1,.055.072.792.792,0,0,1,.053.126A.568.568,0,0,1,50.622,11.8ZM49.016,22.729V13.422L45.585,15.4l-4.739,2.729v9.307l8.171-4.7Zm-9.8,16.836V30.252l-4.662,2.662-13.312,7.6v9.4ZM1.634,7.874V39.565L19.606,49.912v-9.4L10.217,35.2l0,0,0,0a146.69,146.69,0,0,0-.165-.127l0,0a.786.786,0,0,1-.067-.086.877.877,0,0,1-.061-.08v0a.648.648,0,0,1-.043-.1.608.608,0,0,1-.039-.092h0a.787.787,0,0,1-.016-.119.7.7,0,0,1-.012-.092V12.577L5.065,9.848,1.634,7.875ZM10.621,1.76l-8.168,4.7,8.166,4.7,8.167-4.7-8.167-4.7ZM14.868,31.1l4.738-2.728V7.874l-3.43,1.975-4.739,2.729v20.5ZM40.03,7.308l-8.167,4.7,8.167,4.7,8.166-4.7Zm-.817,10.818L34.474,15.4l-3.43-1.975v9.307l4.738,2.728,3.432,1.976ZM20.422,39.1,32.4,32.26l5.988-3.417-8.161-4.7-9.4,5.409-8.563,4.93Z" transform="translate(0 0)" fill="#fff"/>
    </g>
  </g>
</svg>
