<svg xmlns="http://www.w3.org/2000/svg" xmlns:xlink="http://www.w3.org/1999/xlink" width="57.581" height="63.447" viewBox="0 0 57.581 63.447">
  <defs>
    <linearGradient id="linear-gradient" x1="0.5" x2="0.5" y2="1" gradientUnits="objectBoundingBox">
      <stop offset="0" stop-color="#00d8b3"/>
      <stop offset="1" stop-color="#00a2ff"/>
    </linearGradient>
  </defs>
  <path id="mobile-app-development" d="M8.514,63.433A8.1,8.1,0,0,1,0,54.921V8.377A8.08,8.08,0,0,1,6.859.1,9.2,9.2,0,0,1,8.443,0Q21.413,0,34.38.006a8.086,8.086,0,0,1,8.4,8.186c.011,2.765.008,5.532.006,8.3,0,.158-.024.315-.04.5a5.508,5.508,0,0,0-4.122,4.23c-.324,1.145-.743,2.263-1.1,3.341a15.178,15.178,0,0,0-1.1-2.3,5.012,5.012,0,0,0-7.474-.9c-2.43,2.258-4.771,4.619-7.042,7.036a4.877,4.877,0,0,0,0,6.63c2.271,2.42,4.658,4.73,7.033,7.049a4.6,4.6,0,0,0,3.085,1.226.8.8,0,0,1,.79.478,5.155,5.155,0,0,0,9.388-.64,6.755,6.755,0,0,1,.541-1.2c.012.143.04.285.04.428,0,4.267.022,8.531-.006,12.8a8.031,8.031,0,0,1-6.819,8.154,9.717,9.717,0,0,1-1.651.1q-7.972,0-15.945.005Q13.44,63.435,8.514,63.433ZM15.65,51.642a2.216,2.216,0,1,0,0,4.422q5.731.011,11.464,0a2.218,2.218,0,1,0,0-4.422c-1.886-.007-3.774,0-5.663,0H18.136Q16.893,51.638,15.65,51.642ZM9.814,4.949c.534,1.347,1.051,2.7,1.62,4.035a4.3,4.3,0,0,0,4.205,2.8q5.772.033,11.545,0a4.306,4.306,0,0,0,4.2-2.819c.568-1.327,1.083-2.684,1.616-4.03a4.065,4.065,0,0,0,.119-.473H9.674C9.728,4.654,9.757,4.807,9.814,4.949Zm25.509,35.57c1.049-3.191,2.118-6.374,3.182-9.56q1.581-4.746,3.166-9.491a2.263,2.263,0,0,1,2.3-1.622,2.182,2.182,0,0,1,2.01,1.954,2.844,2.844,0,0,1-.152,1.147Q42.7,32.416,39.541,41.875a2.294,2.294,0,0,1-2.17,1.721,2.233,2.233,0,0,1-2.048-3.077Zm-4.586-.783c-1.172-1.11-2.29-2.275-3.433-3.415-.977-.98-1.964-1.95-2.932-2.937a2.179,2.179,0,0,1-.017-3.309q3.114-3.146,6.259-6.263a2.215,2.215,0,1,1,3.139,3.117c-1.391,1.413-2.8,2.807-4.2,4.21-.178.175-.347.359-.569.593,1.61,1.61,3.153,3.161,4.707,4.7a2.241,2.241,0,0,1,.679,2.386,2.161,2.161,0,0,1-2.08,1.546,2.249,2.249,0,0,1-1.553-.628Zm16.622-.01a2.223,2.223,0,0,1,.115-3.257c1.559-1.566,3.13-3.122,4.762-4.747-1.661-1.659-3.264-3.245-4.852-4.848a2.223,2.223,0,0,1-.406-2.666,2.113,2.113,0,0,1,2.4-1.059,2.718,2.718,0,0,1,1.17.667c2.108,2.063,4.188,4.151,6.264,6.246a2.182,2.182,0,0,1,.007,3.3q-3.114,3.143-6.254,6.256a2.417,2.417,0,0,1-1.695.741,2.137,2.137,0,0,1-1.512-.633Z" transform="translate(0.011 0.002)" fill="url(#linear-gradient)"/>
</svg>
