<svg xmlns="http://www.w3.org/2000/svg" xmlns:xlink="http://www.w3.org/1999/xlink" width="90" height="90.002" viewBox="0 0 90 90.002">
  <defs>
    <linearGradient id="linear-gradient" x1="0.144" x2="0.837" y2="0.948" gradientUnits="objectBoundingBox">
      <stop offset="0" stop-color="#989898"/>
      <stop offset="1" stop-color="#717171"/>
    </linearGradient>
  </defs>
  <g id="mongo-db" transform="translate(-842 -7746)">
    <path id="Path_4754" data-name="Path 4754" d="M3170.71-10047.025a103.369,103.369,0,0,1,19.322,1.26,36.006,36.006,0,0,1,11.522,3.869c6.583,3.709,10.149,9.59,12,16.709a72.781,72.781,0,0,1,2.048,16.391,143.946,143.946,0,0,1-.785,23.279,42.468,42.468,0,0,1-3.449,12.654c-3.393,7.162-9.218,11.309-16.683,13.41a69.695,69.695,0,0,1-16.875,2.268,152.465,152.465,0,0,1-22.006-.568,51.487,51.487,0,0,1-11.5-2.5c-8.012-2.861-13.182-8.432-15.757-16.486a67.012,67.012,0,0,1-2.693-18.512,151.258,151.258,0,0,1,.581-21.807,49.452,49.452,0,0,1,2.735-12.092c2.942-7.732,8.482-12.656,16.292-15.141,6.293-1.994,12.8-2.49,19.34-2.719C3166.774-10047.08,3168.743-10047.025,3170.71-10047.025Z" transform="translate(-2283.727 17793.047)" fill-rule="evenodd" fill="url(#linear-gradient)"/>
    <path id="Path_5160" data-name="Path 5160" d="M27.234,60.168l-1.282-.438s.157-6.537-2.189-7.006c-1.564-1.814.25-76.95,5.881-.25A4.575,4.575,0,0,0,27.359,55.1a24.128,24.128,0,0,0-.125,5.068Z" transform="translate(860.647 7755.004)" fill="#fff" fill-rule="evenodd"/>
    <path id="Path_5161" data-name="Path 5161" d="M27.234,60.168l-1.282-.438s.157-6.537-2.189-7.006c-1.564-1.814.25-76.95,5.881-.25A4.575,4.575,0,0,0,27.359,55.1a24.128,24.128,0,0,0-.125,5.068Z" transform="translate(860.647 7755.004)" fill="#484848" fill-rule="evenodd"/>
    <path id="Path_5162" data-name="Path 5162" d="M33.241,42.3s11.23-7.382,8.6-22.741C39.309,8.393,33.334,4.733,32.678,3.325A15.781,15.781,0,0,1,31.27.572l.469,31.061c0,.031-.97,9.509,1.5,10.667" transform="translate(855.329 7766.553)" fill="#fff" fill-rule="evenodd"/>
    <path id="Path_5163" data-name="Path 5163" d="M33.241,42.3s11.23-7.382,8.6-22.741C39.309,8.393,33.334,4.733,32.678,3.325A15.781,15.781,0,0,1,31.27.572l.469,31.061c0,.031-.97,9.509,1.5,10.667" transform="translate(855.329 7766.553)" fill="#f2f2f2" fill-rule="evenodd"/>
    <path id="Path_5164" data-name="Path 5164" d="M9.943,42.463S-.6,35.268.027,22.6C.621,9.931,8.066,3.706,9.5,2.58A2.912,2.912,0,0,0,10.537.2c.657,1.408.532,21.052.625,23.367.282,8.915-.5,17.2-1.22,18.893Z" transform="translate(876 7766.797)" fill="#fff" fill-rule="evenodd"/>
    <path id="Path_5165" data-name="Path 5165" d="M9.943,42.463S-.6,35.268.027,22.6C.621,9.931,8.066,3.706,9.5,2.58A2.912,2.912,0,0,0,10.537.2c.657,1.408.532,21.052.625,23.367.282,8.915-.5,17.2-1.22,18.893Z" transform="translate(876 7766.797)" fill="#fff" fill-rule="evenodd"/>
  </g>
</svg>
