<svg xmlns="http://www.w3.org/2000/svg" xmlns:xlink="http://www.w3.org/1999/xlink" width="90" height="90.002" viewBox="0 0 90 90.002">
  <defs>
    <linearGradient id="linear-gradient" x1="0.144" x2="0.837" y2="0.948" gradientUnits="objectBoundingBox">
      <stop offset="0" stop-color="#989898"/>
      <stop offset="1" stop-color="#717171"/>
    </linearGradient>
  </defs>
  <g id="mysql" transform="translate(-642 -7746)">
    <path id="Path_11479" data-name="Path 11479" d="M3170.71-10047.025a103.369,103.369,0,0,1,19.322,1.26,36.006,36.006,0,0,1,11.522,3.869c6.583,3.709,10.149,9.59,12,16.709a72.781,72.781,0,0,1,2.048,16.391,143.946,143.946,0,0,1-.785,23.279,42.468,42.468,0,0,1-3.449,12.654c-3.393,7.162-9.218,11.309-16.683,13.41a69.695,69.695,0,0,1-16.875,2.268,152.465,152.465,0,0,1-22.006-.568,51.487,51.487,0,0,1-11.5-2.5c-8.012-2.861-13.182-8.432-15.757-16.486a67.012,67.012,0,0,1-2.693-18.512,151.258,151.258,0,0,1,.581-21.807,49.452,49.452,0,0,1,2.735-12.092c2.942-7.732,8.482-12.656,16.292-15.141,6.293-1.994,12.8-2.49,19.34-2.719C3166.774-10047.08,3168.743-10047.025,3170.71-10047.025Z" transform="translate(-2483.727 17793.047)" fill-rule="evenodd" fill="url(#linear-gradient)"/>
    <g id="mysql-seeklogo.com" transform="translate(660.976 7765)">
      <path id="Path_11575" data-name="Path 11575" d="M48.238,39.74a16.479,16.479,0,0,0-6.906,1c-.534.213-1.389.214-1.46.89.285.285.32.748.57,1.139a8.342,8.342,0,0,0,1.851,2.172c.747.569,1.5,1.139,2.278,1.637,1.389.854,2.955,1.353,4.308,2.207.783.5,1.566,1.139,2.349,1.673.392.285.641.748,1.139.925v-.107c-.249-.321-.321-.783-.57-1.139-.356-.356-.712-.676-1.068-1.033a16.891,16.891,0,0,0-3.7-3.6c-1.139-.783-3.631-1.851-4.094-3.169l-.071-.071a14.477,14.477,0,0,0,2.456-.57c1.21-.321,2.314-.249,3.56-.57.569-.142,1.139-.32,1.709-.5v-.32c-.641-.641-1.1-1.5-1.78-2.1a47.466,47.466,0,0,0-5.874-4.379c-1.1-.712-2.528-1.175-3.7-1.78-.427-.214-1.139-.32-1.388-.676a14.359,14.359,0,0,1-1.46-2.741c-1.032-1.958-2.029-4.13-2.919-6.194a37.881,37.881,0,0,0-1.815-4.059A35.881,35.881,0,0,0,17.871,5.065a17.11,17.11,0,0,0-4.557-1.46c-.89-.036-1.78-.107-2.67-.142A14.177,14.177,0,0,1,9.007,2.217C6.978.936,1.744-1.841.249,1.826-.712,4.14,1.673,6.418,2.492,7.593a16.784,16.784,0,0,1,1.816,2.67c.249.6.32,1.246.57,1.887a42.74,42.74,0,0,0,1.851,4.77,17.2,17.2,0,0,0,1.317,2.207c.285.392.783.57.89,1.21a10.19,10.19,0,0,0-.819,2.67c-1.281,4.023-.783,9.007,1.032,11.961.569.89,1.922,2.848,3.738,2.1,1.6-.641,1.246-2.67,1.709-4.45.107-.427.036-.712.249-1,0,.036,0,.071,0,.071.5,1,1,1.958,1.46,2.955a20.33,20.33,0,0,0,4.628,4.771c.855.64,1.531,1.744,2.6,2.136v-.107H23.46a3.924,3.924,0,0,0-.819-.712A17.292,17.292,0,0,1,20.79,38.6,45.785,45.785,0,0,1,16.8,32.121c-.57-1.1-1.068-2.314-1.531-3.417-.214-.427-.214-1.068-.57-1.282a13.408,13.408,0,0,0-1.709,2.421,20.076,20.076,0,0,0-1,5.376c-.142.036-.071,0-.142.071C10.715,35,10.324,33.83,9.9,32.833a15.4,15.4,0,0,1-.32-9.5c.249-.748,1.317-3.1.89-3.809-.214-.676-.926-1.068-1.317-1.6a14.346,14.346,0,0,1-1.282-2.278c-.854-1.994-1.282-4.2-2.207-6.194A18.953,18.953,0,0,0,3.88,6.7,17.624,17.624,0,0,1,1.922,3.926c-.178-.392-.427-1.032-.142-1.46A.567.567,0,0,1,2.278,2c.463-.392,1.78.107,2.243.32A18.153,18.153,0,0,1,8.045,4.1c.5.356,1.032,1.032,1.673,1.21h.748c1.139.249,2.421.071,3.489.392a22.751,22.751,0,0,1,5.126,2.456A31.583,31.583,0,0,1,30.189,20.338c.427.819.605,1.566,1,2.421.748,1.744,1.673,3.524,2.421,5.233a23.4,23.4,0,0,0,2.527,4.771c.534.747,2.67,1.139,3.631,1.531a25.249,25.249,0,0,1,2.456,1c1.21.747,2.421,1.6,3.56,2.421.57.427,2.349,1.317,2.456,2.029Z" transform="translate(0 0)" fill="#fff"/>
      <path id="Path_11576" data-name="Path 11576" d="M52.513,43.022a5.635,5.635,0,0,0-1.46.178v.071h.071a11.467,11.467,0,0,0,1.139,1.459c.285.569.534,1.139.819,1.709l.071-.071a2.008,2.008,0,0,0,.748-1.78,7.966,7.966,0,0,1-.427-.748c-.214-.356-.676-.534-.961-.819Z" transform="translate(-40.588 -34.219)" fill="#fff"/>
    </g>
  </g>
</svg>
