<svg xmlns="http://www.w3.org/2000/svg" xmlns:xlink="http://www.w3.org/1999/xlink" width="90" height="90.002" viewBox="0 0 90 90.002">
  <defs>
    <linearGradient id="linear-gradient" x1="0.144" x2="0.837" y2="0.948" gradientUnits="objectBoundingBox">
      <stop offset="0" stop-color="#989898"/>
      <stop offset="1" stop-color="#717171"/>
    </linearGradient>
  </defs>
  <g id="nodejs" transform="translate(-1225 -7435)">
    <path id="Path_11479" data-name="Path 11479" d="M3170.71-10047.025a103.369,103.369,0,0,1,19.322,1.26,36.006,36.006,0,0,1,11.522,3.869c6.583,3.709,10.149,9.59,12,16.709a72.781,72.781,0,0,1,2.048,16.391,143.946,143.946,0,0,1-.785,23.279,42.468,42.468,0,0,1-3.449,12.654c-3.393,7.162-9.218,11.309-16.683,13.41a69.695,69.695,0,0,1-16.875,2.268,152.465,152.465,0,0,1-22.006-.568,51.487,51.487,0,0,1-11.5-2.5c-8.012-2.861-13.182-8.432-15.757-16.486a67.012,67.012,0,0,1-2.693-18.512,151.258,151.258,0,0,1,.581-21.807,49.452,49.452,0,0,1,2.735-12.092c2.942-7.732,8.482-12.656,16.292-15.141,6.293-1.994,12.8-2.49,19.34-2.719C3166.774-10047.08,3168.743-10047.025,3170.71-10047.025Z" transform="translate(-1900.727 17482.047)" fill-rule="evenodd" fill="url(#linear-gradient)"/>
    <g id="nodejs-seeklogo.com" transform="translate(1246 7453)">
      <path id="Path_11756" data-name="Path 11756" d="M23.95,53.975a4.348,4.348,0,0,1-2.083-.545l-6.6-3.917c-.992-.545-.5-.744-.2-.843a12.007,12.007,0,0,0,2.975-1.339.456.456,0,0,1,.5.05L23.6,50.4a.63.63,0,0,0,.6,0L43.983,38.95a.57.57,0,0,0,.3-.545V15.545a.57.57,0,0,0-.3-.545L24.2,3.6a.63.63,0,0,0-.6,0L3.818,15a.622.622,0,0,0-.3.545V38.4a.622.622,0,0,0,.3.545l5.4,3.124c2.926,1.488,4.76-.248,4.76-1.983V17.529a.6.6,0,0,1,.6-.6h2.529a.6.6,0,0,1,.6.6V40.09c0,3.917-2.132,6.2-5.851,6.2-1.14,0-2.033,0-4.562-1.24L2.083,42.074A4.185,4.185,0,0,1,0,38.454V15.595a4.185,4.185,0,0,1,2.083-3.62L21.868.521a4.425,4.425,0,0,1,4.165,0L45.818,11.975a4.185,4.185,0,0,1,2.083,3.62V38.454a4.185,4.185,0,0,1-2.083,3.62L26.033,53.528a5.075,5.075,0,0,1-2.083.446Zm6.1-15.719c-8.678,0-10.463-3.967-10.463-7.339a.6.6,0,0,1,.6-.6H22.76a.51.51,0,0,1,.545.5c.4,2.628,1.537,3.917,6.793,3.917,4.165,0,5.95-.942,5.95-3.174,0-1.289-.5-2.231-6.992-2.876-5.4-.545-8.777-1.735-8.777-6.049,0-4.016,3.372-6.4,9.025-6.4,6.347,0,9.471,2.182,9.868,6.942a.8.8,0,0,1-.149.446.612.612,0,0,1-.4.2H36.049a.581.581,0,0,1-.546-.446c-.6-2.727-2.132-3.62-6.2-3.62-4.562,0-5.107,1.587-5.107,2.777,0,1.438.645,1.884,6.793,2.678,6.1.793,8.975,1.934,8.975,6.2-.05,4.364-3.62,6.843-9.917,6.843Z" transform="translate(0)" fill="#fff"/>
    </g>
  </g>
</svg>
