<svg xmlns="http://www.w3.org/2000/svg" xmlns:xlink="http://www.w3.org/1999/xlink" width="90" height="90.001" viewBox="0 0 90 90.001">
  <defs>
    <linearGradient id="linear-gradient" x1="0.144" x2="0.837" y2="0.948" gradientUnits="objectBoundingBox">
      <stop offset="0" stop-color="#989898"/>
      <stop offset="1" stop-color="#717171"/>
    </linearGradient>
  </defs>
  <g id="objectivec" transform="translate(-574 -6864)">
    <path id="Path_4753" data-name="Path 4753" d="M3170.71-10047.026a103.455,103.455,0,0,1,19.322,1.261,36.02,36.02,0,0,1,11.521,3.869c6.584,3.709,10.15,9.591,12,16.71a72.758,72.758,0,0,1,2.048,16.39,143.879,143.879,0,0,1-.786,23.278,42.455,42.455,0,0,1-3.448,12.653c-3.393,7.163-9.218,11.309-16.683,13.41a69.737,69.737,0,0,1-16.875,2.269,152.32,152.32,0,0,1-22.005-.569,51.539,51.539,0,0,1-11.5-2.5c-8.012-2.861-13.181-8.432-15.757-16.486a67.017,67.017,0,0,1-2.693-18.512,151.174,151.174,0,0,1,.582-21.806,49.408,49.408,0,0,1,2.734-12.092c2.942-7.732,8.482-12.655,16.292-15.14,6.293-2,12.8-2.492,19.34-2.721C3166.774-10047.08,3168.743-10047.026,3170.71-10047.026Z" transform="translate(-2551.727 16911.047)" fill-rule="evenodd" fill="url(#linear-gradient)"/>
    <path id="Icon_awesome-apple" data-name="Icon awesome-apple" d="M34.21,27.769c-.022-3.957,1.768-6.943,5.391-9.142-2.027-2.9-5.089-4.5-9.132-4.808-3.827-.3-8.01,2.232-9.541,2.232-1.617,0-5.326-2.124-8.237-2.124-6.016.1-12.409,4.8-12.409,14.361a26.871,26.871,0,0,0,1.552,8.754C3.214,41,8.195,50.7,13.391,50.539c2.717-.065,4.636-1.93,8.172-1.93,3.428,0,5.207,1.93,8.237,1.93,5.24-.075,9.746-8.894,11.062-12.862-7.029-3.31-6.652-9.7-6.652-9.908Zm-6.1-17.7A10.154,10.154,0,0,0,30.7,2.25a11.432,11.432,0,0,0-7.32,3.763,10.313,10.313,0,0,0-2.76,7.752C23.429,13.98,25.994,12.535,28.108,10.066Z" transform="translate(598.719 6882.604)" fill="#fff"/>
  </g>
</svg>
