<svg xmlns="http://www.w3.org/2000/svg" xmlns:xlink="http://www.w3.org/1999/xlink" width="90" height="90.002" viewBox="0 0 90 90.002">
  <defs>
    <linearGradient id="linear-gradient" x1="0.144" x2="0.837" y2="0.948" gradientUnits="objectBoundingBox">
      <stop offset="0" stop-color="#989898"/>
      <stop offset="1" stop-color="#717171"/>
    </linearGradient>
  </defs>
  <g id="react" transform="translate(-1473.5 -6813)">
    <path id="Path_11758" data-name="Path 11758" d="M3170.71-10047.025a103.369,103.369,0,0,1,19.322,1.26,36.006,36.006,0,0,1,11.522,3.869c6.583,3.709,10.149,9.59,12,16.709a72.781,72.781,0,0,1,2.048,16.391,143.946,143.946,0,0,1-.785,23.279,42.468,42.468,0,0,1-3.449,12.654c-3.393,7.162-9.218,11.309-16.683,13.41a69.695,69.695,0,0,1-16.875,2.268,152.465,152.465,0,0,1-22.006-.568,51.487,51.487,0,0,1-11.5-2.5c-8.012-2.861-13.182-8.432-15.757-16.486a67.012,67.012,0,0,1-2.693-18.512,151.258,151.258,0,0,1,.581-21.807,49.452,49.452,0,0,1,2.735-12.092c2.942-7.732,8.482-12.656,16.292-15.141,6.293-1.994,12.8-2.49,19.34-2.719C3166.774-10047.08,3168.743-10047.025,3170.71-10047.025Z" transform="translate(-1652.227 16860.047)" fill-rule="evenodd" fill="url(#linear-gradient)"/>
    <path id="Icon_simple-react" data-name="Icon simple-react" d="M27,21.195a4.813,4.813,0,1,0,4.813,4.813A4.813,4.813,0,0,0,27,21.195ZM13.518,35.581l-1.062-.27C4.541,33.311,0,29.916,0,26s4.541-7.313,12.456-9.313l1.062-.268.3,1.053a52.943,52.943,0,0,0,3.067,8.051l.227.479-.227.479a52.44,52.44,0,0,0-3.067,8.051ZM11.963,19.145C5.947,20.835,2.255,23.42,2.255,26s3.692,5.162,9.709,6.854A56.139,56.139,0,0,1,14.623,26a55.692,55.692,0,0,1-2.66-6.854ZM40.483,35.581l-.3-1.055a52.554,52.554,0,0,0-3.069-8.048L36.887,26l.227-.479a52.7,52.7,0,0,0,3.069-8.051l.3-1.053,1.064.268C49.46,18.684,54,22.079,54,26s-4.541,7.313-12.454,9.313ZM39.378,26a55.635,55.635,0,0,1,2.66,6.854c6.019-1.692,9.709-4.277,9.709-6.854s-3.692-5.162-9.709-6.854A55.773,55.773,0,0,1,39.378,26Zm-27.43-6.865-.3-1.051C9.423,10.239,10.1,4.619,13.5,2.657c3.337-1.926,8.694.349,14.308,6.111l.765.785-.765.785a52.993,52.993,0,0,0-5.45,6.676l-.3.434-.529.045a53.23,53.23,0,0,0-8.516,1.373ZM16.214,4.216a3.139,3.139,0,0,0-1.586.389c-2.237,1.289-2.633,5.771-1.091,11.819A56.525,56.525,0,0,1,20.811,15.3a55.905,55.905,0,0,1,4.617-5.724C21.918,6.156,18.594,4.216,16.214,4.216ZM37.789,50.031h0c-3.206,0-7.324-2.414-11.6-6.8l-.765-.785.765-.785a52.943,52.943,0,0,0,5.447-6.678l.3-.434.527-.045a53.169,53.169,0,0,0,8.521-1.37l1.062-.268.3,1.053C44.575,41.756,43.9,47.378,40.5,49.338a5.355,5.355,0,0,1-2.711.693Zm-9.216-7.607c3.51,3.418,6.833,5.357,9.214,5.357h0a3.131,3.131,0,0,0,1.584-.389c2.237-1.289,2.635-5.774,1.091-11.822A56.294,56.294,0,0,1,33.188,36.7a55.516,55.516,0,0,1-4.615,5.726Zm13.48-23.29-1.062-.268a52.828,52.828,0,0,0-8.521-1.373l-.527-.045-.3-.434a52.683,52.683,0,0,0-5.447-6.676l-.765-.785.765-.785C31.8,3.008,37.159.733,40.5,2.657c3.4,1.962,4.077,7.583,1.854,15.424ZM33.188,15.3a56.113,56.113,0,0,1,7.277,1.127c1.544-6.048,1.145-10.53-1.091-11.819s-6.4.684-10.8,4.968A55.911,55.911,0,0,1,33.188,15.3ZM16.214,50.031a5.355,5.355,0,0,1-2.714-.693c-3.4-1.96-4.077-7.58-1.852-15.422l.3-1.053,1.062.268a53.108,53.108,0,0,0,8.516,1.37l.529.045.3.434a53.093,53.093,0,0,0,5.45,6.678l.765.785-.765.785c-4.271,4.388-8.388,6.8-11.59,6.8ZM13.536,35.57c-1.544,6.048-1.145,10.532,1.091,11.822,2.221,1.267,6.4-.686,10.8-4.968A56.246,56.246,0,0,1,20.811,36.7a56.2,56.2,0,0,1-7.274-1.127ZM27,36.983c-1.852,0-3.755-.081-5.661-.239l-.529-.045-.3-.434q-1.617-2.323-3.038-4.775t-2.624-5.013L14.621,26l.225-.479q1.207-2.56,2.624-5.013c.932-1.611,1.955-3.218,3.038-4.775l.3-.434.529-.045a67.017,67.017,0,0,1,11.324,0l.527.045.3.434a67.514,67.514,0,0,1,5.663,9.788l.227.479-.227.479a66.6,66.6,0,0,1-5.663,9.788l-.3.434-.527.045C30.758,36.9,28.852,36.983,27,36.983Zm-4.943-2.439a65.352,65.352,0,0,0,9.889,0A65.265,65.265,0,0,0,36.887,26a64.317,64.317,0,0,0-4.943-8.546,65.321,65.321,0,0,0-9.887,0A64.074,64.074,0,0,0,17.114,26a65.508,65.508,0,0,0,4.943,8.546Z" transform="translate(1491.5 6832.015)" fill="#fff"/>
  </g>
</svg>
