<svg xmlns="http://www.w3.org/2000/svg" xmlns:xlink="http://www.w3.org/1999/xlink" width="71.893" height="64.435" viewBox="0 0 71.893 64.435">
  <defs>
    <linearGradient id="linear-gradient" x1="0.5" x2="0.5" y2="1" gradientUnits="objectBoundingBox">
      <stop offset="0" stop-color="#8351ea"/>
      <stop offset="1" stop-color="#e3cdfe"/>
    </linearGradient>
  </defs>
  <path id="software-development" d="M5.32,63.435C2.016,63.435,0,61.447,0,58.182q0-21.76,0-43.526v-.951H70.888v.931q0,21.76,0,43.526c0,3.273-2.006,5.273-5.3,5.273ZM31.278,52.518c0,1.1-.014,2.16,0,3.221A2.426,2.426,0,0,0,33.2,58.284a7.679,7.679,0,0,0,4.45.014,2.464,2.464,0,0,0,1.966-2.606c0-.516,0-1.035,0-1.554,0-1.583,0-1.583,1.49-2.215a3.324,3.324,0,0,1,.791-.336,1.249,1.249,0,0,1,.861.145c.678.586,1.281,1.25,1.931,1.867a2.339,2.339,0,0,0,3.293.4,14.338,14.338,0,0,0,2.935-2.864c.919-1.2.709-2.319-.374-3.409-.749-.754-1.565-1.441-2.276-2.087L49.49,42.7c1.062,0,2.1.009,3.14,0a2.472,2.472,0,0,0,2.754-2.209,14.44,14.44,0,0,0,.122-3.519,2.692,2.692,0,0,0-2.934-2.557c-1.039-.014-2.076-.006-3.077-.006-.356-.838-.713-1.592-.99-2.369a.825.825,0,0,1,.145-.713c.618-.684,1.3-1.31,1.939-1.98a2.308,2.308,0,0,0,.377-3.276,14.015,14.015,0,0,0-2.812-2.87,2.4,2.4,0,0,0-3.5.354c-.756.748-1.449,1.557-2.087,2.253l-2.9-1.2a.768.768,0,0,1-.031-.136c-.009-1.009-.007-2.015-.018-3.024A2.48,2.48,0,0,0,37.6,18.793a7.774,7.774,0,0,0-4.368.02,2.451,2.451,0,0,0-1.954,2.609c-.012,1.061,0,2.122,0,3.16-.809.339-1.536.684-2.294.939a1.037,1.037,0,0,1-.857-.148c-.676-.586-1.278-1.25-1.928-1.867a2.344,2.344,0,0,0-3.293-.4A14.169,14.169,0,0,0,20.013,25.9a2.369,2.369,0,0,0,.339,3.485c.748.751,1.563,1.444,2.273,2.09L21.4,34.407c-1.059,0-2.1-.012-3.14.006a2.761,2.761,0,0,0-2.91,2.786c-.045.89-.041,1.786,0,2.676A2.781,2.781,0,0,0,18.311,42.7c1.041.012,2.079,0,3.088,0,.342.806.692,1.531.948,2.287a1.029,1.029,0,0,1-.157.852c-.588.673-1.258,1.27-1.879,1.916-1,1.047-1.24,2.108-.394,3.273A14.045,14.045,0,0,0,22.729,53.9a2.4,2.4,0,0,0,3.5-.342c.756-.748,1.443-1.563,2.081-2.258Zm4.12-6.1a8.048,8.048,0,1,1,.063,0ZM.07,11.334c0-2.421-.177-4.821.049-7.181A4.649,4.649,0,0,1,4.9.007q30.565-.013,61.132,0a4.866,4.866,0,0,1,4.853,4.966c.026,2.015.006,4.027,0,6.039a1.876,1.876,0,0,1-.061.319ZM6.943,3.559a2,2,0,0,0-2,2.113A1.985,1.985,0,0,0,6.921,7.8c.925.035,1.849.032,2.776.006a2,2,0,0,0,2.038-2.157A2,2,0,0,0,9.721,3.559c-.464-.02-.924,0-1.388,0-.294,0-.586-.009-.879-.009C7.285,3.547,7.115,3.55,6.943,3.559ZM26.411,7.814c2.725,0,5.444.009,8.166,0a1.931,1.931,0,0,0,2.105-1.58,2.058,2.058,0,0,0-2.151-2.673q-8.118-.017-16.24-.006a3.488,3.488,0,0,0-.521.026A2.031,2.031,0,0,0,16.07,5.8,1.953,1.953,0,0,0,18.076,7.8c1.887.017,3.777.014,5.668.012l1.776,0C25.819,7.811,26.115,7.811,26.411,7.814Z" transform="translate(0.499 0.499)" stroke="rgba(0,0,0,0)" stroke-miterlimit="10" stroke-width="1" fill="url(#linear-gradient)"/>
</svg>
