<svg xmlns="http://www.w3.org/2000/svg" xmlns:xlink="http://www.w3.org/1999/xlink" width="81.061" height="81" viewBox="0 0 81.061 81">
  <defs>
    <linearGradient id="linear-gradient" x1="0.5" x2="0.5" y2="1" gradientUnits="objectBoundingBox">
      <stop offset="0" stop-color="#ff1e4e"/>
      <stop offset="1" stop-color="#ffe044"/>
    </linearGradient>
  </defs>
  <g id="sports-gaming" transform="translate(-398.032 -754.138)">
    <path id="Union_5" data-name="Union 5" d="M38.723,80a39.61,39.61,0,0,1-19.912-6.069c-.038-.023-.059-.074-.142-.18.27-.161.53-.315.791-.466C31.527,66.215,38.8,55.736,41.614,42.1a1.016,1.016,0,0,1,.771-.91,40.881,40.881,0,0,1,19.122-1.473,2.9,2.9,0,0,1,.327.122c-.35,1.4-.662,2.811-1.057,4.2A78.8,78.8,0,0,1,43.312,75.822c-1.207,1.332-2.506,2.576-3.789,3.834a1.23,1.23,0,0,1-.777.344Zm7.669-.547A84.755,84.755,0,0,0,66.447,40.738c1.788.695,3.57,1.222,5.2,2.049,2.409,1.219,4.7,2.653,7.059,3.979a1.038,1.038,0,0,1,.55,1.328,39.78,39.78,0,0,1-14.029,23,39.1,39.1,0,0,1-18.569,8.378.141.141,0,0,1-.031,0C46.584,79.478,46.526,79.465,46.391,79.453ZM13.828,70.264A39.622,39.622,0,0,1,.644,47.032a39.25,39.25,0,0,1,2-21.257c.087-.228.193-.453.36-.843a84.726,84.726,0,0,0,22.968,37.58,50.067,50.067,0,0,1-4.024,3.438c-2.284,1.582-4.7,2.969-7.047,4.455a.873.873,0,0,1-.465.161A.949.949,0,0,1,13.828,70.264ZM24.661,54.4A78.172,78.172,0,0,1,6.653,20.24,3.6,3.6,0,0,1,7.3,16.959,41.392,41.392,0,0,1,19.753,5.522c.328-.2.672-.367,1.08-.592.094,1.827.125,3.515.277,5.194A44.3,44.3,0,0,0,31.318,34.916c1.573,1.9,3.4,3.583,5.16,5.32a1.317,1.317,0,0,1,.473,1.393,41.257,41.257,0,0,1-7.6,16.857c-.091.122-.2.238-.377.45C27.516,57.412,26.037,55.954,24.661,54.4ZM79.23,41.494A45.27,45.27,0,0,0,52.3,34.575a43.3,43.3,0,0,0-11.685,2.274.972.972,0,0,1-1.115-.158,40.919,40.919,0,0,1-10.93-15.4c-.067-.164-.11-.335-.206-.637,2.113-.589,4.168-1.226,6.252-1.734a79.733,79.733,0,0,1,22.775-2.19A70.761,70.761,0,0,1,73.842,19.4a1.616,1.616,0,0,1,.865.669,39.131,39.131,0,0,1,5.211,16.686,6.815,6.815,0,0,0,.143.762v4.374A7.772,7.772,0,0,1,79.23,41.494ZM26.011,11.672c-.212-2.773-.228-5.558-.353-8.337-.022-.553.225-.762.7-.933A39.955,39.955,0,0,1,37.1.129a4,4,0,0,0,.6-.129h4.69c1.574.209,3.155.354,4.712.637a39.623,39.623,0,0,1,22.6,12.521c.1.109.18.238.322.431a84.78,84.78,0,0,0-43.167,2.673A43.746,43.746,0,0,1,26.011,11.672Z" transform="translate(398.533 754.638)" stroke="rgba(0,0,0,0)" stroke-miterlimit="10" stroke-width="1" fill="url(#linear-gradient)"/>
  </g>
</svg>
