<svg xmlns="http://www.w3.org/2000/svg" xmlns:xlink="http://www.w3.org/1999/xlink" width="90" height="90.002" viewBox="0 0 90 90.002">
  <defs>
    <linearGradient id="linear-gradient" x1="0.144" x2="0.837" y2="0.948" gradientUnits="objectBoundingBox">
      <stop offset="0" stop-color="#989898"/>
      <stop offset="1" stop-color="#717171"/>
    </linearGradient>
    <linearGradient id="linear-gradient-2" x1="-4.183" y1="0.143" x2="-3.174" y2="0.794" gradientUnits="objectBoundingBox">
      <stop offset="0" stop-color="#fff"/>
      <stop offset="1" stop-color="#ededee"/>
    </linearGradient>
  </defs>
  <g id="sql-server" transform="translate(-439 -7746)">
    <path id="Path_4754" data-name="Path 4754" d="M3170.71-10047.025a103.369,103.369,0,0,1,19.322,1.26,36.006,36.006,0,0,1,11.522,3.869c6.583,3.709,10.149,9.59,12,16.709a72.781,72.781,0,0,1,2.048,16.391,143.946,143.946,0,0,1-.785,23.279,42.468,42.468,0,0,1-3.449,12.654c-3.393,7.162-9.218,11.309-16.683,13.41a69.695,69.695,0,0,1-16.875,2.268,152.465,152.465,0,0,1-22.006-.568,51.487,51.487,0,0,1-11.5-2.5c-8.012-2.861-13.182-8.432-15.757-16.486a67.012,67.012,0,0,1-2.693-18.512,151.258,151.258,0,0,1,.581-21.807,49.452,49.452,0,0,1,2.735-12.092c2.942-7.732,8.482-12.656,16.292-15.141,6.293-1.994,12.8-2.49,19.34-2.719C3166.774-10047.08,3168.743-10047.025,3170.71-10047.025Z" transform="translate(-2686.727 17793.047)" fill-rule="evenodd" fill="url(#linear-gradient)"/>
    <g id="microsoft-sql-server" transform="translate(-69.963 7767.001)">
      <g id="Group_507" data-name="Group 507" transform="translate(531.964 -0.001)">
        <path id="Path_5254" data-name="Path 5254" d="M360.369,463.277l-9.671,3.158-8.414,3.713-2.354.621c-.6.57-1.228,1.148-1.908,1.732-.746.643-1.44,1.228-1.974,1.652a14.723,14.723,0,0,0-1.915,1.9,8.615,8.615,0,0,0-1.418,2.4,4.025,4.025,0,0,0,.57,3.618,12.817,12.817,0,0,0,5.285,3.969,33.575,33.575,0,0,0,4.649,1.557,61.546,61.546,0,0,0,9.912,1.411,11.366,11.366,0,0,0,1.279,0,17.39,17.39,0,0,0,.943-1.791,45.279,45.279,0,0,0,3.428-9.072,42.981,42.981,0,0,0,.877-6.286c.051-.709.073-3.085.029-3.889a27.3,27.3,0,0,0-.365-3.428.79.79,0,0,1-.022-.3,12.65,12.65,0,0,1,1.308-.395l-.241-.57h0Zm-2.208,1.294a23.66,23.66,0,0,1,.38,3.662,1.957,1.957,0,0,1-.007.5c-.058,0-1.235-.694-2.076-1.221-.731-.461-2.12-1.382-2.339-1.557-.073-.051-.066-.058.533-.263C355.668,465.346,358.081,464.571,358.161,464.571Zm-4.927,1.623a2.428,2.428,0,0,1,.636.344A45.331,45.331,0,0,0,358.3,469c.27.117.3.073-.322.5a31.861,31.861,0,0,1-5.022,2.7c-.358.161-.658.285-.665.285a1.886,1.886,0,0,1,.088-.4,21.558,21.558,0,0,0,.782-5.139c.007-.731.007-.731.073-.753C353.22,466.194,353.227,466.194,353.234,466.194Zm-1.016.387a15.769,15.769,0,0,1-.044,2.127,18.6,18.6,0,0,1-.672,3.18,4.858,4.858,0,0,1-.168.512,12.868,12.868,0,0,1-1.36-1.323,9.891,9.891,0,0,1-1.345-1.959,6.159,6.159,0,0,1-.409-.994C348.337,468.043,352.189,466.552,352.218,466.581Zm-4.781,1.879a.027.027,0,0,1,.022.007,1.36,1.36,0,0,1,.11.263,9.884,9.884,0,0,0,1.213,2.171,12.369,12.369,0,0,0,1.688,1.82c.176.146.336.285.358.307.044.044.059.036-1.133.49-1.381.526-2.887,1.052-4.612,1.608q-.618.2-1.235.4c-.066.022-.044-.015.146-.314a41.112,41.112,0,0,0,2.887-5.819c.124-.322.248-.643.27-.716a.264.264,0,0,1,.161-.19A.705.705,0,0,1,347.438,468.46Zm-1.462.607a16.334,16.334,0,0,1-.716,1.513c-.709,1.381-1.484,2.741-2.522,4.393-.175.285-.343.548-.365.577-.036.051-.051.036-.168-.19a6.7,6.7,0,0,1-.563-1.7,6.825,6.825,0,0,1,.037-2.178c.095-.453.088-.446.307-.556.936-.475,3.962-1.893,3.991-1.864Zm12.609.512v.307a39.761,39.761,0,0,1-.431,5.5c-.044.285-.081.519-.088.526s-.212-.058-.461-.132a18.865,18.865,0,0,1-3.363-1.44,14.881,14.881,0,0,1-1.71-1.053c.007-.007.314-.168.672-.358a43.067,43.067,0,0,0,4-2.346c.446-.3,1.118-.782,1.265-.914Zm-18.128,2.164c.029,0,.022.059-.022.322-.029.19-.066.541-.08.782a5.408,5.408,0,0,0,.643,2.939,6.064,6.064,0,0,1,.256.556c-.051.044-4.89,1.462-6.411,1.879l-.877.241c-.051.015-.058.007-.036-.117a7.681,7.681,0,0,1,2.127-3.662,9.453,9.453,0,0,1,2.405-1.842c.746-.424,1.893-1.06,1.981-1.089C340.442,471.742,340.449,471.742,340.457,471.742Zm11.4,2.039a2.96,2.96,0,0,1,.395.212,22.02,22.02,0,0,0,5.6,2.178l.168.037-.234.131c-.972.541-4.167,1.871-7.434,3.092-.475.175-.943.351-1.031.387a.527.527,0,0,1-.168.051c0-.007.132-.263.3-.578a36.058,36.058,0,0,0,2.3-5.241c.059-.139.1-.263.1-.271Zm-1.162.38a2.1,2.1,0,0,1-.124.336,46.287,46.287,0,0,1-2.536,5.11c-.27.483-.5.87-.5.87s-.227-.132-.49-.292a15.031,15.031,0,0,1-3.823-3.253l-.132-.161.665-.183a47.737,47.737,0,0,0,6.418-2.215C350.456,474.256,350.69,474.161,350.7,474.161Zm7.222,2.522h0c.007.168-.366,1.674-.673,2.763-.256.914-.475,1.63-.877,2.895-.175.556-.329,1.016-.336,1.016a.484.484,0,0,1-.095-.022A30.553,30.553,0,0,1,350,481.661c-.512-.2-1.243-.534-1.286-.57a8.524,8.524,0,0,1,.98-.461c3.326-1.455,6.776-3.107,7.96-3.816A.955.955,0,0,1,357.92,476.683Zm-16.674.57c.015.015-.914,1.352-2.215,3.172-.453.636-.979,1.382-1.177,1.659s-.5.716-.665.979l-.307.475-.329-.278a12.175,12.175,0,0,1-1.36-1.389,6,6,0,0,1-1.221-2.361c-.08-.351-.08-.526-.007-.548.11-.029,2.061-.49,3.889-.914,1.016-.234,2.193-.512,2.617-.614S341.239,477.253,341.246,477.253Zm.936.358.234.263a13.727,13.727,0,0,0,3.428,2.807,1.912,1.912,0,0,1,.395.256c-.051.036-4.517,1.622-6.586,2.339-1.162.409-2.12.738-2.127.738a1.259,1.259,0,0,1-.146-.1l-.132-.1.212-.307c.687-.994,1.55-2.083,3.428-4.349Zm5.833,4.174c.007-.007.329.11.724.256a23.411,23.411,0,0,0,2.712.841,30.028,30.028,0,0,0,4.1.709c.161.015.248.029.219.051-.051.029-1.126.387-1.915.636-1.257.395-5.095,1.528-8.224,2.427-.578.168-1.075.307-1.1.314a.579.579,0,0,1-.314-.08,5.3,5.3,0,0,1,.387-.49,43.392,43.392,0,0,0,2.968-3.991C347.81,482.092,348.015,481.793,348.015,481.785Zm-1.287.037c.007.007-.512.841-1.418,2.273-.388.607-.819,1.294-.972,1.535s-.365.6-.49.8l-.212.373-.11-.029c-.263-.073-2.113-.724-2.6-.921a18.1,18.1,0,0,1-1.7-.782,7.116,7.116,0,0,1-1.257-.8c.015-.007,1.016-.278,2.222-.607,3.2-.87,4.978-1.374,6.14-1.74A2.944,2.944,0,0,1,346.728,481.822Zm9.1,2.134h.007c.029.073-1.155,3.363-1.586,4.4-.095.234-.131.292-.183.285-.124-.007-1.842-.248-2.887-.4-1.82-.278-4.876-.811-5.643-.987l-.175-.036,1.089-.249c2.339-.526,3.465-.811,4.605-1.162a32.547,32.547,0,0,0,4.306-1.659A3.54,3.54,0,0,1,355.829,483.956Z" transform="translate(-332.512 -440.733)" fill="url(#linear-gradient-2)"/>
        <path id="Path_5255" data-name="Path 5255" d="M466.8,82.735a46.465,46.465,0,0,0-4.43,1.594,27.66,27.66,0,0,0-5.095,2.558,3.864,3.864,0,0,0-.987.987.683.683,0,0,0-.044.249l.979.928,2.332.746,5.548.994,6.345,1.089.066-.548c-.022,0-.037-.007-.058-.007l-.834-.132-.168-.3c-.863-1.52-1.813-3.406-2.368-4.678a24.187,24.187,0,0,1-1.067-2.946c-.124-.5-.139-.526-.219-.534h0Zm-.117.373h.008c.007.007.036.212.066.453a15.272,15.272,0,0,0,.709,3.077c.27.8.27.76-.044.665-.746-.2-4.086-.782-6.506-1.118-.387-.051-.716-.1-.716-.11-.029-.029,1.747-.958,2.529-1.323C463.733,84.292,466.481,83.144,466.686,83.108Zm-7.047,3.275.285.095a43.571,43.571,0,0,0,7.595,1.447c.241.022.446.044.453.044a3.379,3.379,0,0,1-.46.241c-1.038.519-2.178,1.155-2.968,1.645a3.029,3.029,0,0,1-.475.263c-.029,0-.183-.029-.343-.051l-.292-.044-.731-.716c-1.286-1.25-2.3-2.215-2.683-2.58Zm-.292.227,1.031,1.287c.563.709,1.133,1.4,1.257,1.557a2.4,2.4,0,0,1,.219.285c-.029.022-1.491-.263-2.266-.439-.8-.183-1.126-.271-1.615-.424l-.4-.132v-.1c.007-.49.629-1.221,1.681-1.966l.1-.066Zm8.757,1.754c.029,0,.066.066.154.263.248.548,1.023,2.025,1.213,2.31.059.1.161.1-.87-.066-2.478-.4-3.275-.534-3.275-.548a.759.759,0,0,1,.168-.11,14.267,14.267,0,0,0,2.229-1.542c.168-.139.322-.27.351-.292C468.082,88.363,468.1,88.356,468.1,88.363Z" transform="translate(-448.917 -82.734)" fill="url(#linear-gradient-2)"/>
        <path id="Path_5256" data-name="Path 5256" d="M396.677,167.757a.728.728,0,0,0-.007.636,2.888,2.888,0,0,0,.687.811s3.253,3.172,3.648,3.626a10.163,10.163,0,0,1,2.654,6.944,11.243,11.243,0,0,1-1.155,5.256c-1.52,3.319-4.729,6.981-9.678,11.045l.724-.241a23.242,23.242,0,0,1,2.595-1.542,92.5,92.5,0,0,1,12.068-5.4,150.509,150.509,0,0,1,24.495-6.564l.665-.1-.1-.161a22.538,22.538,0,0,0-1.469-2.069,17.563,17.563,0,0,0-5.19-4.32,38.491,38.491,0,0,0-11.264-3.779c-.884-.176-2.829-.512-4.408-.753-3.348-.519-5.512-.877-7.895-1.286-.855-.146-2.135-.366-2.982-.548a18.919,18.919,0,0,1-1.937-.519C397.6,168.583,396.838,168.378,396.677,167.757Zm1.886,1.828a2.029,2.029,0,0,1,.278.088c.278.095.636.2,1.06.322q.481.132.965.256c.439.11.8.212.811.212.051.051.79,2.412,1.038,3.319.095.344.168.636.161.636a1.474,1.474,0,0,1-.183-.285,15.215,15.215,0,0,0-3.772-4.262A3.124,3.124,0,0,1,398.563,169.585Zm3.6.994a2.877,2.877,0,0,1,.395.066c1.243.278,3.472.7,4.9.943a1.79,1.79,0,0,1,.431.095.738.738,0,0,1-.2.124c-.241.124-1.213.7-1.535.921a14.008,14.008,0,0,0-2.069,1.652c-.212.212-.395.387-.395.387s-.044-.124-.08-.278a23.681,23.681,0,0,0-1.308-3.582,3.147,3.147,0,0,1-.146-.336C402.152,170.586,402.152,170.579,402.159,170.579Zm6.33,1.206a2.814,2.814,0,0,1,.263.811,11.968,11.968,0,0,1,.351,3.348c-.015.307-.029.592-.044.629l-.022.073-.38-.124c-.782-.249-2.054-.621-3.143-.928-.621-.168-1.126-.322-1.126-.336a17.271,17.271,0,0,1,1.294-1.294A33.947,33.947,0,0,1,408.489,171.785Zm.5.073c.022-.022,3.026.5,4.393.76,1.016.2,2.493.5,2.58.541.044.015-.11.1-.6.322a31.731,31.731,0,0,0-4.788,2.6c-.373.249-.687.453-.694.453a3.993,3.993,0,0,1-.015-.468,10.208,10.208,0,0,0-.79-3.976A1.108,1.108,0,0,1,408.994,171.858Zm7.77,1.535a5.5,5.5,0,0,1-.161.965,18.33,18.33,0,0,1-1.842,4.225,4.794,4.794,0,0,1-.307.5,3.112,3.112,0,0,1-.438-.234,23.808,23.808,0,0,0-2.865-1.4c-.292-.124-.548-.227-.555-.241-.051-.044,2.3-1.6,3.545-2.346C415.127,174.256,416.735,173.364,416.764,173.393Zm.556.088c.066,0,1.4.366,2.091.57a43.132,43.132,0,0,1,4.978,1.82l.534.241-.373.088a54.489,54.489,0,0,0-8.428,2.61c-.212.088-.4.161-.417.161a1.886,1.886,0,0,1,.153-.373,14.8,14.8,0,0,0,1.411-4.868C417.276,173.59,417.3,173.481,417.32,173.481Zm-13.245,3.041c.022-.022,1.038.219,1.586.373.833.234,2.6.826,2.6.87,0,.007-.2.175-.431.38-.958.8-1.879,1.637-2.982,2.7-.329.314-.607.57-.621.57s-.022-.044-.015-.1a16.483,16.483,0,0,0-.1-4.408C404.089,176.7,404.067,176.529,404.074,176.522Zm21.352.022a14.029,14.029,0,0,1-.775,1.206c-.438.629-1.082,1.462-2.537,3.289-.767.965-1.63,2.054-1.915,2.42s-.534.672-.541.672a2.528,2.528,0,0,1-.2-.292,15.106,15.106,0,0,0-2.961-3.268c-.219-.183-.46-.38-.541-.439a.814.814,0,0,1-.146-.124c0-.022,1.243-.556,2.186-.936,1.652-.673,3.9-1.477,5.592-2C424.469,176.8,425.412,176.529,425.426,176.544Zm.563.146a1.685,1.685,0,0,1,.417.2,24.792,24.792,0,0,1,4.89,3.67c.387.38,1.345,1.374,1.33,1.382s-.336.029-.731.058a72.05,72.05,0,0,0-10.8,1.8c-.256.058-.482.11-.5.11s.271-.285.629-.629a18.7,18.7,0,0,0,4.437-5.906c.168-.358.314-.665.329-.687Zm-16.279,1.667c.1.022,1.053.468,1.769.826.658.329,1.645.855,1.7.9.007.007-.344.19-.775.4-1.374.687-2.551,1.338-3.779,2.083-.351.212-.643.388-.651.388-.029,0-.022-.029.175-.388a15.264,15.264,0,0,0,1.484-4.028C409.659,178.429,409.688,178.356,409.71,178.356Zm-.95.175a13.958,13.958,0,0,1-.38,1.411,17.994,17.994,0,0,1-1.294,2.968c-.117.2-.293.5-.388.672l-.183.292-.409-.395a5.37,5.37,0,0,0-1.36-1,1.962,1.962,0,0,1-.351-.2c0-.058,1.25-1.191,2.208-2.01C407.291,179.672,408.738,178.51,408.76,178.532Zm5.811,2.39.358.234a27.8,27.8,0,0,1,2.522,1.864c.417.343,1.221,1.067,1.381,1.243l.088.1-.592.168c-3.348.928-5.936,1.754-8.955,2.865-.336.124-.621.227-.643.227-.044,0-.08.036.673-.658a32.1,32.1,0,0,0,4.912-5.643Zm-1.528.38c.015.015-.987,1.425-1.586,2.222-.716.95-1.988,2.544-2.865,3.582-.365.431-.68.79-.694.8s-.029-.1-.029-.27a6.127,6.127,0,0,0-.621-2.632c-.168-.336-.2-.417-.161-.453.139-.124,2.266-1.338,3.611-2.061C411.6,182,413.021,181.288,413.044,181.3Zm-9.24,2.266a3.229,3.229,0,0,1,.38.19,8.028,8.028,0,0,1,1.257.848,2.18,2.18,0,0,1-.424.351c-.694.5-1.747,1.294-2.361,1.784-.643.512-.665.526-.592.417a13.465,13.465,0,0,0,.98-1.689,13.612,13.612,0,0,0,.614-1.528A1.242,1.242,0,0,1,403.8,183.568Zm2.464,1.93c.036-.007.08.058.278.351a5.273,5.273,0,0,1,.819,2.127l.014.146-1,.387c-1.791.694-3.443,1.382-4.561,1.893-.314.146-.862.409-1.221.585s-.651.322-.651.314.227-.175.5-.38a29.474,29.474,0,0,0,5.5-5.066c.154-.183.292-.351.307-.358Zm-1.133.278a15.441,15.441,0,0,1-1.374,1.55,24.246,24.246,0,0,1-4.539,3.662l-.439.278c-.051.029.015-.044.775-.87.483-.519.848-.958,1.265-1.5a2.472,2.472,0,0,1,.731-.695C402.627,187.428,405.105,185.746,405.134,185.776Z" transform="translate(-389.252 -162.72)" fill="url(#linear-gradient-2)"/>
      </g>
    </g>
  </g>
</svg>
