<svg xmlns="http://www.w3.org/2000/svg" xmlns:xlink="http://www.w3.org/1999/xlink" width="90" height="90.001" viewBox="0 0 90 90.001">
  <defs>
    <linearGradient id="linear-gradient" x1="0.144" x2="0.837" y2="0.948" gradientUnits="objectBoundingBox">
      <stop offset="0" stop-color="#989898"/>
      <stop offset="1" stop-color="#717171"/>
    </linearGradient>
  </defs>
  <g id="swift" transform="translate(-369 -6864)">
    <path id="Path_4460" data-name="Path 4460" d="M3170.71-10047.026a103.706,103.706,0,0,1,19.322,1.26,36.055,36.055,0,0,1,11.522,3.87c6.583,3.709,10.15,9.591,12,16.709a72.823,72.823,0,0,1,2.048,16.391,143.943,143.943,0,0,1-.786,23.279,42.463,42.463,0,0,1-3.448,12.653c-3.394,7.163-9.218,11.309-16.683,13.41a69.588,69.588,0,0,1-16.875,2.267,152.045,152.045,0,0,1-22.006-.567,51.484,51.484,0,0,1-11.5-2.5c-8.012-2.86-13.181-8.432-15.757-16.487a67,67,0,0,1-2.694-18.511,151.139,151.139,0,0,1,.581-21.806,49.423,49.423,0,0,1,2.734-12.091c2.942-7.733,8.483-12.656,16.293-15.141,6.293-2,12.8-2.492,19.34-2.721C3166.774-10047.08,3168.743-10047.026,3170.71-10047.026Z" transform="translate(-2756.726 16911.047)" fill-rule="evenodd" fill="url(#linear-gradient)"/>
    <path id="Icon_simple-swift" data-name="Icon simple-swift" d="M49.7,35.953c.127-.253.127-.506.253-.76C52.993,23.276,45.765,9.332,33.341,1.979c5.453,7.354,7.607,16.1,5.706,23.96a12.468,12.468,0,0,1-.633,2.028,11.694,11.694,0,0,1-1.017-.633A155.026,155.026,0,0,1,11.919,6.416a152.853,152.853,0,0,0,15.465,19.4A168.359,168.359,0,0,1,5.325,9.077a29.25,29.25,0,0,0,3.043,4.184C14.2,20.742,21.807,29.868,30.936,36.84c-6.465,3.933-15.467,4.184-24.6,0A36.416,36.416,0,0,1,0,33.037,37.444,37.444,0,0,0,16.863,47.363c8.493,3.678,17.113,3.425,23.325,0h.129a2.648,2.648,0,0,0,.76-.506c3.043-1.521,9-3.169,12.3,3.169.886,1.775,2.534-6.465-3.676-14.072Z" transform="translate(386.999 6883.021)" fill="#fff"/>
  </g>
</svg>
