<svg xmlns="http://www.w3.org/2000/svg" xmlns:xlink="http://www.w3.org/1999/xlink" width="90" height="90.002" viewBox="0 0 90 90.002">
  <defs>
    <linearGradient id="linear-gradient" x1="0.144" x2="0.837" y2="0.948" gradientUnits="objectBoundingBox">
      <stop offset="0" stop-color="#989898"/>
      <stop offset="1" stop-color="#717171"/>
    </linearGradient>
  </defs>
  <g id="ts" transform="translate(-919 -7124)">
    <path id="Path_4754" data-name="Path 4754" d="M3170.71-10047.025a103.369,103.369,0,0,1,19.322,1.26,36.006,36.006,0,0,1,11.522,3.869c6.583,3.709,10.149,9.59,12,16.709a72.781,72.781,0,0,1,2.048,16.391,143.946,143.946,0,0,1-.785,23.279,42.468,42.468,0,0,1-3.449,12.654c-3.393,7.162-9.218,11.309-16.683,13.41a69.695,69.695,0,0,1-16.875,2.268,152.465,152.465,0,0,1-22.006-.568,51.487,51.487,0,0,1-11.5-2.5c-8.012-2.861-13.182-8.432-15.757-16.486a67.012,67.012,0,0,1-2.693-18.512,151.258,151.258,0,0,1,.581-21.807,49.452,49.452,0,0,1,2.735-12.092c2.942-7.732,8.482-12.656,16.292-15.141,6.293-1.994,12.8-2.49,19.34-2.719C3166.774-10047.08,3168.743-10047.025,3170.71-10047.025Z" transform="translate(-2206.727 17171.047)" fill-rule="evenodd" fill="url(#linear-gradient)"/>
    <path id="Path_11686" data-name="Path 11686" d="M-1752.833-2494.552h-39a.733.733,0,0,0-.158-.077,4.553,4.553,0,0,1-3.778-4.656q0-18.721,0-37.443a5.192,5.192,0,0,1,.137-1.222,4.567,4.567,0,0,1,4.66-3.488q17.093,0,34.185,0c1.144,0,2.289-.023,3.432.009a4.2,4.2,0,0,1,3.512,1.834,12.491,12.491,0,0,1,.945,2.094v39.011c-.032.1-.071.192-.1.291a4.565,4.565,0,0,1-3.156,3.449C-1752.372-2494.674-1752.6-2494.618-1752.833-2494.552Zm-13.919-9.549v3.85c0,.756-.005.772.716,1.022a14.93,14.93,0,0,0,8.955.325,5.314,5.314,0,0,0,4.014-3.535,5.717,5.717,0,0,0-2.247-6.888,9.383,9.383,0,0,0-1.178-.7c-1-.483-2.022-.925-3.026-1.4a5.193,5.193,0,0,1-2.108-1.485,1.558,1.558,0,0,1,.191-2.185,3.51,3.51,0,0,1,1.269-.683,7.473,7.473,0,0,1,4.368.209c.729.23,1.42.582,2.147.887,0-1.226-.015-2.461.009-3.7a.543.543,0,0,0-.453-.641,15.442,15.442,0,0,0-5.745-.585,9.9,9.9,0,0,0-4.153,1.141,5.6,5.6,0,0,0-1.071,9.02,15.2,15.2,0,0,0,2.649,1.681c1.084.582,2.243,1.024,3.328,1.605a3.554,3.554,0,0,1,1.131,1.036,1.638,1.638,0,0,1-.5,2.453,3.849,3.849,0,0,1-1.353.51,8.467,8.467,0,0,1-6.441-1.576C-1766.394-2503.839-1766.537-2503.945-1766.752-2504.1Zm-18.184-15.063v3.749h5.832v16.715h4.664v-16.749h5.837v-3.715Z" transform="translate(2736.773 9687.447)" fill="#fff"/>
  </g>
</svg>
