<svg xmlns="http://www.w3.org/2000/svg" xmlns:xlink="http://www.w3.org/1999/xlink" width="87.095" height="61" viewBox="0 0 87.095 61">
  <defs>
    <linearGradient id="linear-gradient" x1="0.5" x2="0.5" y2="1" gradientUnits="objectBoundingBox">
      <stop offset="0" stop-color="#665bf6"/>
      <stop offset="1" stop-color="#7de1ec"/>
    </linearGradient>
  </defs>
  <path id="web-development" d="M66.865,60c-.186,0-.388-.005-.605,0-1.941,0-2.176-.11-2.7-1.967a2.808,2.808,0,0,0-2.173-2.217,13.722,13.722,0,0,1-2.515-1.068,1.915,1.915,0,0,0-1.9-.015c-2.511,1.346-2.506,1.292-4.508-.746-1.219-1.241-1.344-1.6-.47-3.109a2.913,2.913,0,0,0,.028-3.318,11.421,11.421,0,0,1-.938-2.388A2.006,2.006,0,0,0,49.7,43.759c-2.792-.848-2.616-.894-2.606-3.747,0-1.717.166-2.046,1.812-2.478a2.957,2.957,0,0,0,2.424-2.381A11.164,11.164,0,0,1,52.349,32.8a1.889,1.889,0,0,0,.016-1.893c-1.415-2.634-1.233-2.562.819-4.554a14.226,14.226,0,0,1,1.531-1.145c.763.363,1.384.6,1.948.935a2.347,2.347,0,0,0,2.508,0,16.53,16.53,0,0,1,2.68-1.1,2.1,2.1,0,0,0,1.51-1.492c.784-2.682.969-2.554,3.549-2.539,1.936.015,2.177.123,2.694,1.977A2.766,2.766,0,0,0,71.775,25.2a11.427,11.427,0,0,1,2.434,1.04,2.058,2.058,0,0,0,2.055.015c2.337-1.244,2.377-1.323,4.375.72,1.315,1.349,1.421,1.6.493,3.241A2.854,2.854,0,0,0,81.1,33.4a10.435,10.435,0,0,1,.961,2.378,2.007,2.007,0,0,0,1.486,1.512c2.92.777,2.534,1.3,2.539,3.548,0,1.916-.138,2.181-1.978,2.7A2.742,2.742,0,0,0,81.893,45.7a11.255,11.255,0,0,1-1.036,2.435,2.074,2.074,0,0,0-.017,2.056c1.26,2.353,1.29,2.406-.728,4.373-1.33,1.3-1.64,1.417-3.241.493a2.8,2.8,0,0,0-3.17-.031,10.776,10.776,0,0,1-2.384.948,2.052,2.052,0,0,0-1.512,1.492c-.654,2.345-1,2.537-2.476,2.537C67.188,60,67.034,60,66.865,60ZM58.106,40.433a8.487,8.487,0,1,0,16.975.064,8.543,8.543,0,0,0-8.469-8.488h-.027A8.483,8.483,0,0,0,58.106,40.433ZM5.246,50.618c-2.365,0-4.3-.634-5.246-3.533v-5.99q21.467-.008,42.932-.01c.135,0,.27.015.459.026.026.322.031.618.077.909A4.262,4.262,0,0,0,46.63,45.7,1.735,1.735,0,0,1,48,47.036c.123.478.433.907.563,1.382a2.371,2.371,0,0,1,.01,1.07c-.2.94-.824,1.129-1.754,1.126q-20.76-.05-41.517,0ZM60.829,40.492a5.739,5.739,0,1,1,5.776,5.763H66.56A5.783,5.783,0,0,1,60.829,40.492ZM42.668,37.649c-3.437-.018-6.877-.008-10.314-.008q-15.637,0-31.276,0C.72,37.639.359,37.613,0,37.6V3.487A14.891,14.891,0,0,1,1.348,1.249,3.961,3.961,0,0,1,4.5.008l7.4,0Q36.4.005,60.9,0a4.235,4.235,0,0,1,3.8,1.643,5.117,5.117,0,0,1,.963,2.583c.1,4.24.046,8.483.044,12.723a2.612,2.612,0,0,1-.077.406c-.309,0-.605-.005-.9,0a4.337,4.337,0,0,0-4.465,3.267c-.21.674-.5,1.139-1.221,1.259a.652.652,0,0,0-.232.089,3.207,3.207,0,0,1-3.434.079,3.828,3.828,0,0,0-4.329.787,21.594,21.594,0,0,0-2.115,2.115,4.154,4.154,0,0,0-.58,4.943,2.292,2.292,0,0,1,.064,2.077A3.5,3.5,0,0,1,45.936,34.5a3.315,3.315,0,0,0-2.207,2.432c-.174.628-.5.715-1.035.715ZM33.778,9.318q-.957,4.169-1.908,8.338-1.326,5.789-2.648,11.576c-.243,1.07.3,1.872,1.257,1.885.735.01,1.224-.429,1.436-1.346q2.272-9.916,4.529-19.835c.247-1.081-.112-1.8-.94-1.972a1.674,1.674,0,0,0-.348-.038C34.471,7.926,33.99,8.4,33.778,9.318Zm-9.021,2.9q-5.292,2.947-10.58,5.9c-.558.309-1.03.654-1.043,1.369-.015.761.485,1.119,1.065,1.443q5.257,2.923,10.509,5.862a3.65,3.65,0,0,0,.516.266,1.363,1.363,0,0,0,1.711-.618,1.316,1.316,0,0,0-.436-1.76,10.087,10.087,0,0,0-1-.583c-2.678-1.5-5.357-3-8.162-4.562.355-.215.608-.378.871-.524q3.946-2.2,7.9-4.409c.951-.534,1.242-1.288.82-2.036a1.223,1.223,0,0,0-1.109-.669A2.207,2.207,0,0,0,24.757,12.22Zm14,.385a1.353,1.353,0,0,0,.654,1.89c.283.174.579.327.868.49,2.654,1.487,5.311,2.971,8.082,4.524-.264.161-.4.25-.546.332q-4.131,2.311-8.267,4.621c-.914.513-1.19,1.231-.792,1.977a1.391,1.391,0,0,0,2.082.437q5.411-3.008,10.808-6.039a1.4,1.4,0,0,0,0-2.638c-1.271-.733-2.56-1.438-3.842-2.154-2.345-1.308-4.689-2.623-7.042-3.916a1.765,1.765,0,0,0-.854-.24A1.279,1.279,0,0,0,38.757,12.606Z" transform="translate(0.5 0.5)" stroke="rgba(0,0,0,0)" stroke-width="1" fill="url(#linear-gradient)"/>
</svg>
