<svg xmlns="http://www.w3.org/2000/svg" width="51.939" height="50.889" viewBox="0 0 51.939 50.889">
  <g id="corporate-social" transform="translate(-1 -1.485)">
    <path id="Path_10" data-name="Path 10" d="M37.177,15.874A16.142,16.142,0,0,0,29.852,11.5a42.353,42.353,0,0,1-5.129,2.11,2.113,2.113,0,0,1,.249.022c-1.5,1.028-3.019,2.056-4.523,3.095-1.277.855-1.612-.238-1.32-.563-1.612.671-1.883,2.121-6.417,9.122a4.105,4.105,0,0,1-1.169,1.331,17.825,17.825,0,0,1,3.235-9.8c.054-.032.108-.076.173-.119a7.1,7.1,0,0,1-.963.065,5.9,5.9,0,0,1-.866-.054,15.811,15.811,0,0,0-3.852,9.912c-.011.205-.011.411-.011.628a16.228,16.228,0,0,0,7.672,13.818l3.2,1.212c.032-.043.076-.087.119-.141A14.808,14.808,0,0,1,13.5,35.395,20.906,20.906,0,0,1,16,30.764c.682-.671,1.439-.39,1.775.5a6.283,6.283,0,0,1,.411,1.417c.952,1.234-.584,2.088.195,2.9a2.3,2.3,0,0,1,.941,1.353c.671,3.7,2.37-.087,4.588,1.439a2.616,2.616,0,0,1,.844,1c1-.5,2.207-1.06,3.668-1.7a4.759,4.759,0,0,1-.206-1.266c-.866-1.45.812-1.948.108-2.911a2.274,2.274,0,0,1-.79-1.471c-.281-3.733-2.391-.271-4.415-2.078-1.558-1.4-1.158-4.783.584-6.341,1.039-.92.606-1.125.346-1.785-.422-1.039.671-2.045,1.439-1.32-.812-3,1.9-.768,1.526-2.738a1.7,1.7,0,0,1,.909-2.413c1.937-.758,2.207.844,7.564.541l.065-.195A17.686,17.686,0,0,1,39.547,27.02c-.682.552-.487-.216-.736-.454-.173-.151-.444.032-.509.271-.13.487.292,1.071-.022,1.482-.249.335-.876.216-1.028-.758a8.056,8.056,0,0,0-.206-1.461c-.162-.454-.638-.822-1.006-.584-.238.151-.249.271-1.526,2.748.108.011.227.011.346.011.216,1.677-1.255,2.824-1.526,4.4-.346,2.013.238,1.407-1.2,3.42q.828-.341,1.753-.714a6.763,6.763,0,0,1,3.657-1,10.16,10.16,0,0,1,2.413.3A16.059,16.059,0,0,0,37.177,15.874Z" transform="translate(0.678 0.822)"/>
    <path id="Path_11" data-name="Path 11" d="M40.257,37.093a2.654,2.654,0,0,0-.022.292V49.439c-9.425,1.331-13.115,5.237-20.592,1.05-.757-.433-5.075-3.073-7.315-4.436a2.071,2.071,0,0,1-.92-2.326,2.094,2.094,0,0,1,2.759-1.407l7.888,2.986a1.237,1.237,0,0,1-.011-1.136c.747-1.5,13.266-6.514,13.266-6.514A6.109,6.109,0,0,1,40.257,37.093ZM41.415,11.61a2.1,2.1,0,0,1-2.889,1.147L30.952,9.024a1.218,1.218,0,0,1-.087,1.136c-.887,1.417-13.829,5.215-13.829,5.215a5.19,5.19,0,0,1-3.365.509,1.711,1.711,0,0,0,.043-.411V3.127a90.871,90.871,0,0,0,9.793-1.353A13.163,13.163,0,0,1,33.852,4.112c.725.487,4.772,3.528,6.86,5.1A2.08,2.08,0,0,1,41.415,11.61Zm10.7,24.952H42.681a.822.822,0,0,0-.822.822V49.7a.822.822,0,0,0,.822.822h9.436a.822.822,0,0,0,.822-.822V37.385A.822.822,0,0,0,52.117,36.563Zm-3.205,3.074a1.536,1.536,0,1,1-1.253-1.784A1.541,1.541,0,0,1,48.911,39.637ZM11.258,2.337H1.833A.824.824,0,0,0,1,3.16V15.474a.824.824,0,0,0,.833.822h9.425a.831.831,0,0,0,.833-.822V3.16A.831.831,0,0,0,11.258,2.337Zm-3.2,11.4a1.536,1.536,0,1,1-1.236-1.767A1.546,1.546,0,0,1,8.06,13.735Z"/>
  </g>
</svg>
