<svg xmlns="http://www.w3.org/2000/svg" width="56.357" height="56.361" viewBox="0 0 56.357 56.361">
  <g id="diversity-inclusion" transform="translate(-0.003)">
    <path id="Path_7" data-name="Path 7" d="M12.026,76.4a2.7,2.7,0,0,0,.282-.4,10.068,10.068,0,0,1-1.651-.7.876.876,0,0,1-.511.27l-5.548.81a3.525,3.525,0,0,0-2.951,2.827L.017,87.777a.891.891,0,0,0,.865,1.045H11.164c-.157-.441,1.706-10.679,1.857-11.028ZM56.348,87.777l-1.63-8.566a3.525,3.525,0,0,0-2.951-2.827l-5.548-.81a.876.876,0,0,1-.511-.27,10.068,10.068,0,0,1-1.652.7,2.7,2.7,0,0,0,.282.4l-.994,1.392c.15.35,2.015,10.588,1.858,11.029H55.483a.894.894,0,0,0,.865-1.045Zm-14.4-8.566A3.525,3.525,0,0,0,39,76.384l-5.548-.81a.876.876,0,0,1-.511-.27,10.066,10.066,0,0,1-1.651.7,2.705,2.705,0,0,0,.282.4l-3.387,4.741L24.8,76.4a2.705,2.705,0,0,0,.282-.4,10.066,10.066,0,0,1-1.651-.7.876.876,0,0,1-.511.27l-5.548.81a3.525,3.525,0,0,0-2.951,2.827l-1.63,8.566a.881.881,0,0,0,.865,1.045H42.714a.881.881,0,0,0,.865-1.045ZM28.182,74.732a8.366,8.366,0,1,0-8.366-8.366,8.366,8.366,0,0,0,8.366,8.366Z" transform="translate(0 -32.461)" fill="#212121"/>
    <path id="Path_8" data-name="Path 8" d="M58.27,33.465A8.352,8.352,0,0,0,44.8,26.853a10.1,10.1,0,0,1,0,13.223A8.352,8.352,0,0,0,58.27,33.465Zm-33.9,8.806a8.314,8.314,0,0,0,5.106-1.754,10.1,10.1,0,0,1,0-13.224,8.361,8.361,0,1,0-5.108,14.978ZM43.886,8.392a54.078,54.078,0,0,0-13.5,0,38.229,38.229,0,0,0-1.275,9.221H45.161a38.229,38.229,0,0,0-1.275-9.221ZM43.319,6.56c-1.1-3.15-2.624-5.478-4.338-6.47C38.373.033,37.757,0,37.134,0S35.9.033,35.289.09c-1.714.992-3.234,3.32-4.339,6.47a55.858,55.858,0,0,1,12.369,0ZM28.475,8.669a53.306,53.306,0,0,0-8.737,2.188,19.221,19.221,0,0,0-1.894,6.756h9.5A40.292,40.292,0,0,1,28.475,8.67Zm1.184,16.62a10.375,10.375,0,0,1,.893.612,1.748,1.748,0,0,1,.176.167,10.105,10.105,0,0,1,12.815,0,1.748,1.748,0,0,1,.176-.167,10.37,10.37,0,0,1,.893-.612,40.555,40.555,0,0,0,.55-5.915H29.108a40.555,40.555,0,0,0,.55,5.915Zm17.263-7.676h9.5a19.221,19.221,0,0,0-1.894-6.756A53.306,53.306,0,0,0,45.794,8.67a40.292,40.292,0,0,1,1.127,8.943Z" transform="translate(-8.952)" fill="#212121"/>
    <path id="Path_9" data-name="Path 9" d="M26.6,24.629a10.022,10.022,0,0,1,3.361.578,43.434,43.434,0,0,1-.378-4.981H20.055c-.019,0-.037,0-.055-.006v.006a19.291,19.291,0,0,0,.992,6.109A10.068,10.068,0,0,1,26.6,24.629Zm22.178.578a10.086,10.086,0,0,1,8.974,1.125,19.286,19.286,0,0,0,.992-6.106V20.22c-.019,0-.037.006-.055.006H49.161a43.432,43.432,0,0,1-.378,4.981ZM55.458,9.435A19.442,19.442,0,0,0,44.416,1.521,19.141,19.141,0,0,1,47.51,7.665a55.616,55.616,0,0,1,7.948,1.77ZM34.333,1.521A19.442,19.442,0,0,0,23.291,9.435a55.617,55.617,0,0,1,7.948-1.77,19.141,19.141,0,0,1,3.094-6.144Z" transform="translate(-11.192 -0.851)" fill="#212121"/>
  </g>
</svg>
