<svg xmlns="http://www.w3.org/2000/svg" width="56.832" height="47.919" viewBox="0 0 56.832 47.919">
  <g id="growth-leadership" transform="translate(0 -5.02)">
    <path id="Path_1" data-name="Path 1" d="M14.066,56.734a.833.833,0,0,0,.275.63A37.351,37.351,0,0,1,0,56.441c.142-1.208.684-3.632,2.682-4.236a25,25,0,0,0,4.706-2.184,3.772,3.772,0,0,0,4.431,0,27.361,27.361,0,0,0,3.437,1.714A12.117,12.117,0,0,0,14.066,56.734Zm26.818-.693a48.1,48.1,0,0,1-24.944,0c.151-1.492.79-4.937,3.605-5.8a30.271,30.271,0,0,0,6.074-2.833,4.5,4.5,0,0,0,5.577,0,30.648,30.648,0,0,0,6.083,2.833C40.084,51.086,40.724,54.55,40.884,56.041Zm15.948.4a37.362,37.362,0,0,1-14.341.924.872.872,0,0,0,.266-.63,12.065,12.065,0,0,0-1.19-5A28.631,28.631,0,0,0,45,50.021a3.772,3.772,0,0,0,4.431,0,24.406,24.406,0,0,0,4.706,2.184C56.148,52.809,56.681,55.233,56.832,56.441Z" transform="translate(0 -4.748)" fill="#212121"/>
    <path id="Path_2" data-name="Path 2" d="M28.684,23.357V11.68H26.02l5.31-6.66,5.31,6.66H33.968V23.357Z" transform="translate(-2.914)" fill="#212121"/>
    <path id="Path_3" data-name="Path 3" d="M7.513,30.485V21.41H4.84l5.319-6.66,5.31,6.669-2.664-.009v9.075Z" transform="translate(-0.542 -1.09)" fill="#212121"/>
    <path id="Path_4" data-name="Path 4" d="M49.863,30.485V21.41H47.19l5.319-6.66,5.31,6.669-2.673-.009v9.075Z" transform="translate(-5.285 -1.09)" fill="#212121"/>
    <path id="Path_5" data-name="Path 5" d="M34.342,36.412l-.08-.009a.571.571,0,0,1-.426-.568l.053-1.4a3.935,3.935,0,0,0-1.057-2.975,4.429,4.429,0,0,0-3.25-1.3H28.57a4.429,4.429,0,0,0-3.25,1.3,3.968,3.968,0,0,0-1.066,2.966l.053,1.412a.581.581,0,0,1-.417.568l-.1.018c-.266.053-.551.32-.382,1.305a3.059,3.059,0,0,0,1.066,1.954.519.519,0,0,1,.426.417c.657,2.7,2.335,4.52,4.174,4.52s3.516-1.812,4.174-4.52a.584.584,0,0,1,.462-.426,3.22,3.22,0,0,0,1.03-1.936C34.795,37.45,34.928,36.536,34.342,36.412ZM14.264,40.736l-.062-.009a.438.438,0,0,1-.329-.435l.036-1.066a2.971,2.971,0,0,0-.8-2.264,3.372,3.372,0,0,0-2.478-.986H9.86a3.407,3.407,0,0,0-2.478.986,3,3,0,0,0-.808,2.256l.044,1.074a.423.423,0,0,1-.311.435l-.08.018c-.2.036-.426.24-.293.995a2.355,2.355,0,0,0,.808,1.483.408.408,0,0,1,.329.311c.506,2.06,1.776,3.437,3.179,3.437s2.682-1.385,3.179-3.437a.45.45,0,0,1,.355-.329,2.431,2.431,0,0,0,.781-1.474C14.6,41.518,14.708,40.825,14.264,40.736Zm37.625,0-.062-.009a.438.438,0,0,1-.329-.435l.036-1.066a2.971,2.971,0,0,0-.8-2.264,3.372,3.372,0,0,0-2.478-.986h-.773a3.407,3.407,0,0,0-2.478.986,3,3,0,0,0-.808,2.256l.044,1.074a.42.42,0,0,1-.32.426l-.08.018c-.2.036-.426.24-.293.995a2.355,2.355,0,0,0,.808,1.483.408.408,0,0,1,.329.311c.506,2.06,1.776,3.437,3.179,3.437s2.673-1.385,3.179-3.437A.45.45,0,0,1,51.4,43.2a2.431,2.431,0,0,0,.781-1.474C52.235,41.518,52.333,40.825,51.889,40.736Z" transform="translate(-0.66 -2.816)" fill="#212121"/>
  </g>
</svg>
