<svg xmlns="http://www.w3.org/2000/svg" width="51.558" height="56.361" viewBox="0 0 51.558 56.361">
  <path id="sustainable-development" d="M55.785,30.2v9.188a10.271,10.271,0,0,1-.192,1.955l-1.261,6.3A4.008,4.008,0,0,1,53.162,49.7l-4.628,4.352a.828.828,0,0,0-.259.6v2.372a.838.838,0,0,1-.835.835H40.257a.838.838,0,0,1-.835-.835V55.748a13.379,13.379,0,0,1,3.308-8.938,6.183,6.183,0,0,1,2.623-1.955l3.767-5.388c.4-.576,1.168-1.013,1.746-.677.822.479.727,1.771.167,2.573l-2.779,4a.838.838,0,0,0,.212,1.167h0a.838.838,0,0,0,1.164-.212l2.926-4.216a3.6,3.6,0,0,0-.268-4.2,2.858,2.858,0,0,1-.666-1.759l-.021-5.83a2.169,2.169,0,0,1,1.885-2.2A2.1,2.1,0,0,1,55.785,30.2ZM30.735,17.917l-.351,2.523c-.367,1.1-.8.625-3.475.434-5.521-.484-10-4.26-10.892-9.188a16.6,16.6,0,0,1-.351-2.873c.008-.017.008-.025.017-.042a.84.84,0,0,1,.668-.618c1.111-.159,2.239-.284,3.358-.368C26.931,7.243,31.726,12.685,30.735,17.917ZM35.287,6.632A13.169,13.169,0,0,0,29.766,9.8a11.272,11.272,0,0,0-3.734-2.623,10.024,10.024,0,0,1,1.629-3.341,16.761,16.761,0,0,1,1.863-2.214c.025-.008.025-.017.042-.017a.841.841,0,0,1,.91.067c.877.7,1.737,1.445,2.556,2.205A12.435,12.435,0,0,1,35.287,6.632ZM44.417,9.1c-.05.117.109,10.892-12.12,11.836-.1.008-.209.017-.317.017l.042-.125.351-2.6A9.495,9.495,0,0,0,30.818,11.1a12.152,12.152,0,0,1,9.531-3.316,27.518,27.518,0,0,1,3.667.468l.008.008A.836.836,0,0,1,44.417,9.1ZM4.227,30.2v9.188a10.271,10.271,0,0,0,.192,1.955l1.261,6.3A4.008,4.008,0,0,0,6.85,49.7l4.628,4.352a.828.828,0,0,1,.259.6v2.372a.838.838,0,0,0,.835.835h7.184a.838.838,0,0,0,.835-.835V55.748a13.379,13.379,0,0,0-3.308-8.938,6.183,6.183,0,0,0-2.623-1.955l-3.767-5.388c-.4-.576-1.168-1.013-1.746-.677-.822.479-.727,1.771-.167,2.573l2.779,4a.838.838,0,0,1-.212,1.167h0a.838.838,0,0,1-1.164-.212L7.457,42.108a3.6,3.6,0,0,1,.268-4.2,2.858,2.858,0,0,0,.666-1.759l.021-5.83a2.169,2.169,0,0,0-1.885-2.2A2.1,2.1,0,0,0,4.227,30.2Zm33.5,13.418a28.763,28.763,0,0,0,.877-6.383h5.748a14.39,14.39,0,0,1-2.68,7.436A24.168,24.168,0,0,0,37.731,43.622ZM18.389,44.675a14.381,14.381,0,0,1-2.679-7.436h5.742a28.752,28.752,0,0,0,.877,6.383A24.148,24.148,0,0,0,18.389,44.675Zm3.94-15.709a28.753,28.753,0,0,0-.877,6.382H15.71a14.39,14.39,0,0,1,2.68-7.435A24.016,24.016,0,0,0,22.329,28.966Zm19.347-1.053a14.38,14.38,0,0,1,2.68,7.435H38.608a28.771,28.771,0,0,0-.877-6.383A24.286,24.286,0,0,0,41.676,27.913Zm-4.959,7.435H30.976V29.621a43.713,43.713,0,0,0,4.874-.358A26.589,26.589,0,0,1,36.717,35.348Zm-5.742-7.617V22.1c2.091.686,3.492,3.241,4.281,5.325A42.369,42.369,0,0,1,30.976,27.731ZM29.084,22.1V27.73a42.456,42.456,0,0,1-4.28-.3C25.6,25.332,27,22.786,29.084,22.1Zm0,7.519v5.727H23.343a26.583,26.583,0,0,1,.868-6.085A43.794,43.794,0,0,0,29.084,29.621Zm-5.742,7.618h5.742v5.728a43.743,43.743,0,0,0-4.873.358A26.588,26.588,0,0,1,23.343,37.239Zm5.742,7.618v5.627c-2.091-.686-3.491-3.24-4.28-5.325A42.457,42.457,0,0,1,29.084,44.858Zm1.891,5.627V44.858a42.473,42.473,0,0,1,4.281.3C34.471,47.235,33.066,49.8,30.976,50.484Zm0-7.518V37.239h5.742a26.589,26.589,0,0,1-.868,6.085A43.762,43.762,0,0,0,30.976,42.967ZM40.4,26.359a25.389,25.389,0,0,1-3.239.783,14.856,14.856,0,0,0-2.3-4.369A14.236,14.236,0,0,1,40.4,26.359ZM25.2,22.772a14.866,14.866,0,0,0-2.3,4.371,25.071,25.071,0,0,1-3.234-.783A14.153,14.153,0,0,1,25.2,22.772ZM19.665,46.228a25.184,25.184,0,0,1,3.234-.782A14.866,14.866,0,0,0,25.2,49.816,14.16,14.16,0,0,1,19.665,46.228Zm15.192,3.587a14.836,14.836,0,0,0,2.305-4.37,25.262,25.262,0,0,1,3.24.783A14.226,14.226,0,0,1,34.857,49.815Z" transform="translate(-4.227 -1.5)" fill="#212121"/>
</svg>
